<?xml version="1.0" encoding="UTF-8" standalone="no"?>
<!DOCTYPE svg PUBLIC "-//W3C//DTD SVG 1.1//EN" "http://www.w3.org/Graphics/SVG/1.1/DTD/svg11.dtd">
<svg width="100%" height="100%" viewBox="0 0 1048 227" version="1.1" xmlns="http://www.w3.org/2000/svg" xmlns:xlink="http://www.w3.org/1999/xlink" xml:space="preserve" xmlns:serif="http://www.serif.com/" style="fill-rule:evenodd;clip-rule:evenodd;stroke-linejoin:round;stroke-miterlimit:2;">
    <g transform="matrix(1,0,0,1,-2157.54,-1002.78)">
        <g transform="matrix(1,0,0,1,1770.97,503.876)">
            <g transform="matrix(266.667,0,0,266.667,377.489,693.556)">
                <path d="M0.605,0.119C0.619,0.119 0.63,0.115 0.636,0.109L0.766,0.001C0.775,-0.007 0.78,-0.018 0.78,-0.036L0.78,-0.345C0.78,-0.377 0.766,-0.391 0.734,-0.391L0.579,-0.391C0.565,-0.391 0.554,-0.388 0.547,-0.382L0.418,-0.273C0.415,-0.27 0.412,-0.267 0.41,-0.264L0.41,-0.408L0.54,-0.408C0.554,-0.408 0.565,-0.412 0.571,-0.418L0.701,-0.526C0.71,-0.534 0.715,-0.545 0.715,-0.563L0.715,-0.684C0.715,-0.716 0.701,-0.73 0.669,-0.73L0.419,-0.73C0.332,-0.73 0.268,-0.713 0.226,-0.678L0.097,-0.569C0.055,-0.533 0.034,-0.481 0.034,-0.407L0.034,-0.125C0.034,0.02 0.114,0.119 0.29,0.119L0.605,0.119ZM0.734,0L0.419,0C0.251,0 0.173,-0.065 0.173,-0.204L0.173,-0.516C0.173,-0.655 0.251,-0.72 0.419,-0.72L0.669,-0.72C0.694,-0.72 0.705,-0.709 0.705,-0.684L0.705,-0.563C0.705,-0.538 0.694,-0.527 0.669,-0.527L0.461,-0.527C0.419,-0.527 0.4,-0.511 0.4,-0.477L0.4,-0.238C0.4,-0.204 0.415,-0.189 0.446,-0.189L0.543,-0.189L0.543,-0.345C0.543,-0.37 0.554,-0.381 0.579,-0.381L0.734,-0.381C0.759,-0.381 0.77,-0.37 0.77,-0.345L0.77,-0.036C0.77,-0.011 0.759,0 0.734,0ZM0.462,-0.09L0.661,-0.09L0.661,-0.291L0.651,-0.291L0.651,-0.1L0.462,-0.1C0.327,-0.1 0.292,-0.132 0.292,-0.219L0.292,-0.499C0.292,-0.588 0.324,-0.62 0.442,-0.62L0.615,-0.62L0.615,-0.63L0.442,-0.63C0.314,-0.63 0.282,-0.594 0.282,-0.499L0.282,-0.219C0.282,-0.126 0.315,-0.09 0.462,-0.09Z" style="fill-rule:nonzero;"/>
            </g>
            <g transform="matrix(266.667,0,0,266.667,590.289,693.556)">
                <path d="M0.477,-0.036L0.572,-0.104L0.573,-0.104L0.573,-0.105C0.576,-0.108 0.579,-0.11 0.582,-0.112L0.711,-0.22C0.734,-0.241 0.735,-0.252 0.708,-0.282L0.668,-0.324L0.779,-0.417C0.788,-0.426 0.791,-0.437 0.781,-0.464L0.744,-0.575C0.73,-0.618 0.72,-0.622 0.682,-0.603L0.561,-0.547L0.579,-0.678C0.587,-0.721 0.579,-0.73 0.535,-0.73L0.418,-0.73C0.4,-0.73 0.388,-0.728 0.381,-0.722L0.251,-0.613L0.25,-0.612C0.249,-0.612 0.249,-0.611 0.249,-0.611C0.236,-0.614 0.227,-0.612 0.221,-0.607L0.092,-0.498C0.086,-0.493 0.08,-0.483 0.075,-0.466L0.039,-0.355C0.025,-0.313 0.032,-0.304 0.075,-0.296L0.209,-0.274L0.113,-0.173C0.083,-0.141 0.084,-0.129 0.12,-0.104L0.214,-0.036C0.241,-0.019 0.253,-0.019 0.265,-0.03L0.374,-0.121L0.411,-0.051C0.432,-0.015 0.44,-0.011 0.477,-0.036ZM0.401,-0.165C0.385,-0.137 0.377,-0.134 0.348,-0.153L0.254,-0.221C0.226,-0.241 0.225,-0.25 0.248,-0.275L0.357,-0.39L0.205,-0.415C0.171,-0.421 0.166,-0.428 0.177,-0.461L0.213,-0.572C0.223,-0.605 0.232,-0.609 0.262,-0.594L0.404,-0.53L0.381,-0.679C0.376,-0.713 0.383,-0.72 0.417,-0.72L0.534,-0.72C0.568,-0.72 0.574,-0.713 0.568,-0.679L0.548,-0.53L0.685,-0.594C0.715,-0.609 0.723,-0.605 0.734,-0.572L0.771,-0.461C0.782,-0.428 0.777,-0.421 0.743,-0.415L0.59,-0.39L0.7,-0.275C0.723,-0.25 0.722,-0.241 0.694,-0.221L0.6,-0.153C0.571,-0.134 0.564,-0.137 0.548,-0.165L0.474,-0.306L0.401,-0.165ZM0.585,-0.268L0.593,-0.274L0.487,-0.426L0.659,-0.482L0.655,-0.492L0.481,-0.435L0.481,-0.63L0.471,-0.63L0.471,-0.435L0.297,-0.492L0.293,-0.482L0.465,-0.426L0.359,-0.274L0.367,-0.268L0.476,-0.423L0.585,-0.268Z" style="fill-rule:nonzero;"/>
            </g>
            <g transform="matrix(266.667,0,0,266.667,808.422,693.556)">
                <path d="M0.091,0.119L0.475,0.119C0.544,0.119 0.594,0.105 0.627,0.077L0.756,-0.032C0.791,-0.061 0.808,-0.104 0.808,-0.164L0.808,-0.256C0.808,-0.35 0.773,-0.401 0.7,-0.417L0.703,-0.419C0.728,-0.439 0.741,-0.472 0.741,-0.519L0.741,-0.567C0.741,-0.677 0.679,-0.73 0.539,-0.73L0.22,-0.73C0.206,-0.73 0.195,-0.727 0.188,-0.721L0.059,-0.612C0.05,-0.604 0.045,-0.593 0.045,-0.575L0.045,0.073C0.045,0.105 0.059,0.119 0.091,0.119ZM0.604,0L0.22,0C0.195,0 0.184,-0.011 0.184,-0.036L0.184,-0.684C0.184,-0.709 0.195,-0.72 0.22,-0.72L0.539,-0.72C0.67,-0.72 0.731,-0.672 0.731,-0.567L0.731,-0.519C0.731,-0.463 0.712,-0.428 0.672,-0.411C0.758,-0.403 0.798,-0.354 0.798,-0.256L0.798,-0.164C0.798,-0.052 0.737,0 0.604,0ZM0.564,-0.09C0.676,-0.09 0.695,-0.131 0.695,-0.19L0.695,-0.254C0.695,-0.32 0.676,-0.369 0.565,-0.369C0.622,-0.384 0.629,-0.42 0.629,-0.46L0.629,-0.524C0.629,-0.582 0.609,-0.63 0.498,-0.63L0.295,-0.63L0.295,-0.09L0.564,-0.09ZM0.498,-0.62C0.599,-0.62 0.619,-0.578 0.619,-0.524L0.619,-0.46C0.619,-0.412 0.608,-0.369 0.498,-0.369L0.305,-0.369L0.305,-0.62L0.498,-0.62ZM0.409,-0.55L0.409,-0.442L0.494,-0.442C0.52,-0.442 0.532,-0.455 0.532,-0.482L0.532,-0.51C0.532,-0.537 0.52,-0.55 0.494,-0.55L0.409,-0.55ZM0.565,-0.359C0.666,-0.359 0.685,-0.314 0.685,-0.254L0.685,-0.19C0.685,-0.135 0.664,-0.1 0.564,-0.1L0.305,-0.1L0.305,-0.359L0.565,-0.359ZM0.409,-0.288L0.409,-0.17L0.539,-0.17C0.565,-0.17 0.577,-0.183 0.577,-0.21L0.577,-0.249C0.577,-0.276 0.565,-0.288 0.539,-0.288L0.409,-0.288Z" style="fill-rule:nonzero;"/>
            </g>
            <g transform="matrix(266.667,0,0,266.667,1025.76,693.556)">
                <path d="M0.477,-0.036L0.572,-0.104L0.573,-0.104L0.573,-0.105C0.576,-0.108 0.579,-0.11 0.582,-0.112L0.711,-0.22C0.734,-0.241 0.735,-0.252 0.708,-0.282L0.668,-0.324L0.779,-0.417C0.788,-0.426 0.791,-0.437 0.781,-0.464L0.744,-0.575C0.73,-0.618 0.72,-0.622 0.682,-0.603L0.561,-0.547L0.579,-0.678C0.587,-0.721 0.579,-0.73 0.535,-0.73L0.418,-0.73C0.4,-0.73 0.388,-0.728 0.381,-0.722L0.251,-0.613L0.25,-0.612C0.249,-0.612 0.249,-0.611 0.249,-0.611C0.236,-0.614 0.227,-0.612 0.221,-0.607L0.092,-0.498C0.086,-0.493 0.08,-0.483 0.075,-0.466L0.039,-0.355C0.025,-0.313 0.032,-0.304 0.075,-0.296L0.209,-0.274L0.113,-0.173C0.083,-0.141 0.084,-0.129 0.12,-0.104L0.214,-0.036C0.241,-0.019 0.253,-0.019 0.265,-0.03L0.374,-0.121L0.411,-0.051C0.432,-0.015 0.44,-0.011 0.477,-0.036ZM0.401,-0.165C0.385,-0.137 0.377,-0.134 0.348,-0.153L0.254,-0.221C0.226,-0.241 0.225,-0.25 0.248,-0.275L0.357,-0.39L0.205,-0.415C0.171,-0.421 0.166,-0.428 0.177,-0.461L0.213,-0.572C0.223,-0.605 0.232,-0.609 0.262,-0.594L0.404,-0.53L0.381,-0.679C0.376,-0.713 0.383,-0.72 0.417,-0.72L0.534,-0.72C0.568,-0.72 0.574,-0.713 0.568,-0.679L0.548,-0.53L0.685,-0.594C0.715,-0.609 0.723,-0.605 0.734,-0.572L0.771,-0.461C0.782,-0.428 0.777,-0.421 0.743,-0.415L0.59,-0.39L0.7,-0.275C0.723,-0.25 0.722,-0.241 0.694,-0.221L0.6,-0.153C0.571,-0.134 0.564,-0.137 0.548,-0.165L0.474,-0.306L0.401,-0.165ZM0.585,-0.268L0.593,-0.274L0.487,-0.426L0.659,-0.482L0.655,-0.492L0.481,-0.435L0.481,-0.63L0.471,-0.63L0.471,-0.435L0.297,-0.492L0.293,-0.482L0.465,-0.426L0.359,-0.274L0.367,-0.268L0.476,-0.423L0.585,-0.268Z" style="fill-rule:nonzero;"/>
            </g>
            <g transform="matrix(266.667,0,0,266.667,1243.89,693.556)">
                <path d="M0.246,0.119C0.26,0.119 0.271,0.115 0.277,0.109L0.407,0.001C0.416,-0.007 0.421,-0.018 0.421,-0.036L0.421,-0.114L0.456,-0.114C0.47,-0.114 0.481,-0.118 0.487,-0.124L0.617,-0.232C0.626,-0.24 0.631,-0.251 0.631,-0.269L0.631,-0.389C0.631,-0.421 0.617,-0.435 0.586,-0.435L0.698,-0.528C0.707,-0.536 0.712,-0.547 0.712,-0.565L0.712,-0.684C0.712,-0.716 0.698,-0.73 0.666,-0.73L0.22,-0.73C0.206,-0.73 0.195,-0.727 0.188,-0.721L0.059,-0.612C0.05,-0.604 0.045,-0.593 0.045,-0.575L0.045,0.073C0.045,0.105 0.059,0.119 0.091,0.119L0.246,0.119ZM0.375,0L0.22,0C0.195,0 0.184,-0.011 0.184,-0.036L0.184,-0.684C0.184,-0.709 0.195,-0.72 0.22,-0.72L0.666,-0.72C0.691,-0.72 0.702,-0.709 0.702,-0.684L0.702,-0.565C0.702,-0.54 0.691,-0.529 0.666,-0.529L0.411,-0.529L0.411,-0.425L0.585,-0.425C0.61,-0.425 0.621,-0.414 0.621,-0.389L0.621,-0.269C0.621,-0.244 0.61,-0.233 0.585,-0.233L0.411,-0.233L0.411,-0.036C0.411,-0.011 0.4,0 0.375,0ZM0.293,-0.09L0.303,-0.09L0.303,-0.324L0.531,-0.324L0.531,-0.334L0.303,-0.334L0.303,-0.62L0.612,-0.62L0.612,-0.63L0.293,-0.63L0.293,-0.09Z" style="fill-rule:nonzero;"/>
            </g>
        </g>
    </g>
</svg>
