<?xml version="1.0" encoding="UTF-8" standalone="no"?>
<!DOCTYPE svg PUBLIC "-//W3C//DTD SVG 1.1//EN" "http://www.w3.org/Graphics/SVG/1.1/DTD/svg11.dtd">
<svg width="100%" height="100%" viewBox="0 0 3109 235" version="1.1" xmlns="http://www.w3.org/2000/svg" xmlns:xlink="http://www.w3.org/1999/xlink" xml:space="preserve" xmlns:serif="http://www.serif.com/" style="fill-rule:evenodd;clip-rule:evenodd;stroke-linejoin:round;stroke-miterlimit:2;">
    <g transform="matrix(1,0,0,1,-199.554,-422.957)">
        <g transform="matrix(1,0,0,1,-187.019,-71.9488)">
            <g transform="matrix(266.667,0,0,266.667,377.489,693.556)">
                <path d="M0.605,0.119C0.619,0.119 0.63,0.115 0.636,0.109L0.766,0.001C0.775,-0.007 0.78,-0.018 0.78,-0.036L0.78,-0.345C0.78,-0.377 0.766,-0.391 0.734,-0.391L0.579,-0.391C0.565,-0.391 0.554,-0.388 0.547,-0.382L0.418,-0.273C0.415,-0.27 0.412,-0.267 0.41,-0.264L0.41,-0.408L0.54,-0.408C0.554,-0.408 0.565,-0.412 0.571,-0.418L0.701,-0.526C0.71,-0.534 0.715,-0.545 0.715,-0.563L0.715,-0.684C0.715,-0.716 0.701,-0.73 0.669,-0.73L0.419,-0.73C0.332,-0.73 0.268,-0.713 0.226,-0.678L0.097,-0.569C0.055,-0.533 0.034,-0.481 0.034,-0.407L0.034,-0.125C0.034,0.02 0.114,0.119 0.29,0.119L0.605,0.119ZM0.734,0L0.419,0C0.251,0 0.173,-0.065 0.173,-0.204L0.173,-0.516C0.173,-0.655 0.251,-0.72 0.419,-0.72L0.669,-0.72C0.694,-0.72 0.705,-0.709 0.705,-0.684L0.705,-0.563C0.705,-0.538 0.694,-0.527 0.669,-0.527L0.461,-0.527C0.419,-0.527 0.4,-0.511 0.4,-0.477L0.4,-0.238C0.4,-0.204 0.415,-0.189 0.446,-0.189L0.543,-0.189L0.543,-0.345C0.543,-0.37 0.554,-0.381 0.579,-0.381L0.734,-0.381C0.759,-0.381 0.77,-0.37 0.77,-0.345L0.77,-0.036C0.77,-0.011 0.759,0 0.734,0ZM0.462,-0.09L0.661,-0.09L0.661,-0.291L0.651,-0.291L0.651,-0.1L0.462,-0.1C0.327,-0.1 0.292,-0.132 0.292,-0.219L0.292,-0.499C0.292,-0.588 0.324,-0.62 0.442,-0.62L0.615,-0.62L0.615,-0.63L0.442,-0.63C0.314,-0.63 0.282,-0.594 0.282,-0.499L0.282,-0.219C0.282,-0.126 0.315,-0.09 0.462,-0.09Z" style="fill-rule:nonzero;"/>
            </g>
            <g transform="matrix(266.667,0,0,266.667,592.956,693.556)">
                <path d="M0.555,0.119C0.569,0.119 0.58,0.115 0.586,0.109L0.716,0.001C0.725,-0.007 0.73,-0.018 0.73,-0.036L0.73,-0.153C0.73,-0.185 0.716,-0.199 0.684,-0.199L0.546,-0.199L0.635,-0.274C0.644,-0.282 0.649,-0.293 0.649,-0.311L0.649,-0.418C0.649,-0.439 0.643,-0.452 0.63,-0.459L0.716,-0.53C0.725,-0.538 0.73,-0.549 0.73,-0.567L0.73,-0.684C0.73,-0.716 0.716,-0.73 0.684,-0.73L0.22,-0.73C0.206,-0.73 0.195,-0.727 0.188,-0.721L0.059,-0.612C0.05,-0.604 0.045,-0.593 0.045,-0.575L0.045,0.073C0.045,0.105 0.059,0.119 0.091,0.119L0.555,0.119ZM0.684,0L0.22,0C0.195,0 0.184,-0.011 0.184,-0.036L0.184,-0.684C0.184,-0.709 0.195,-0.72 0.22,-0.72L0.684,-0.72C0.709,-0.72 0.72,-0.709 0.72,-0.684L0.72,-0.567C0.72,-0.542 0.709,-0.531 0.684,-0.531L0.408,-0.531L0.408,-0.454L0.603,-0.454C0.628,-0.454 0.639,-0.443 0.639,-0.418L0.639,-0.311C0.639,-0.286 0.628,-0.275 0.603,-0.275L0.408,-0.275L0.408,-0.189L0.684,-0.189C0.709,-0.189 0.72,-0.178 0.72,-0.153L0.72,-0.036C0.72,-0.011 0.709,0 0.684,0ZM0.63,-0.1L0.303,-0.1L0.303,-0.359L0.549,-0.359L0.549,-0.369L0.303,-0.369L0.303,-0.62L0.63,-0.62L0.63,-0.63L0.293,-0.63L0.293,-0.09L0.63,-0.09L0.63,-0.1Z" style="fill-rule:nonzero;"/>
            </g>
            <g transform="matrix(266.667,0,0,266.667,794.022,693.556)">
                <path d="M0.395,0.119C0.409,0.119 0.42,0.115 0.426,0.109L0.556,0.001C0.565,-0.007 0.57,-0.018 0.57,-0.036L0.57,-0.408L0.578,-0.408C0.592,-0.408 0.603,-0.412 0.609,-0.418L0.739,-0.526C0.748,-0.534 0.753,-0.545 0.753,-0.563L0.753,-0.684C0.753,-0.716 0.739,-0.73 0.707,-0.73L0.179,-0.73C0.165,-0.73 0.154,-0.727 0.147,-0.721L0.018,-0.612C0.009,-0.604 0.004,-0.593 0.004,-0.575L0.004,-0.454C0.004,-0.422 0.018,-0.408 0.05,-0.408L0.187,-0.408L0.187,0.073C0.187,0.105 0.201,0.119 0.233,0.119L0.395,0.119ZM0.524,0L0.362,0C0.337,0 0.326,-0.011 0.326,-0.036L0.326,-0.527L0.179,-0.527C0.154,-0.527 0.143,-0.538 0.143,-0.563L0.143,-0.684C0.143,-0.709 0.154,-0.72 0.179,-0.72L0.707,-0.72C0.732,-0.72 0.743,-0.709 0.743,-0.684L0.743,-0.563C0.743,-0.538 0.732,-0.527 0.707,-0.527L0.56,-0.527L0.56,-0.036C0.56,-0.011 0.549,0 0.524,0ZM0.438,-0.09L0.448,-0.09L0.448,-0.62L0.653,-0.62L0.653,-0.63L0.233,-0.63L0.233,-0.62L0.438,-0.62L0.438,-0.09Z" style="fill-rule:nonzero;"/>
            </g>
            <g transform="matrix(266.667,0,0,266.667,1079.62,693.556)">
                <path d="M0.091,0.119L0.475,0.119C0.544,0.119 0.594,0.105 0.627,0.077L0.756,-0.032C0.791,-0.061 0.808,-0.104 0.808,-0.164L0.808,-0.256C0.808,-0.35 0.773,-0.401 0.7,-0.417L0.703,-0.419C0.728,-0.439 0.741,-0.472 0.741,-0.519L0.741,-0.567C0.741,-0.677 0.679,-0.73 0.539,-0.73L0.22,-0.73C0.206,-0.73 0.195,-0.727 0.188,-0.721L0.059,-0.612C0.05,-0.604 0.045,-0.593 0.045,-0.575L0.045,0.073C0.045,0.105 0.059,0.119 0.091,0.119ZM0.604,0L0.22,0C0.195,0 0.184,-0.011 0.184,-0.036L0.184,-0.684C0.184,-0.709 0.195,-0.72 0.22,-0.72L0.539,-0.72C0.67,-0.72 0.731,-0.672 0.731,-0.567L0.731,-0.519C0.731,-0.463 0.712,-0.428 0.672,-0.411C0.758,-0.403 0.798,-0.354 0.798,-0.256L0.798,-0.164C0.798,-0.052 0.737,0 0.604,0ZM0.564,-0.09C0.676,-0.09 0.695,-0.131 0.695,-0.19L0.695,-0.254C0.695,-0.32 0.676,-0.369 0.565,-0.369C0.622,-0.384 0.629,-0.42 0.629,-0.46L0.629,-0.524C0.629,-0.582 0.609,-0.63 0.498,-0.63L0.295,-0.63L0.295,-0.09L0.564,-0.09ZM0.498,-0.62C0.599,-0.62 0.619,-0.578 0.619,-0.524L0.619,-0.46C0.619,-0.412 0.608,-0.369 0.498,-0.369L0.305,-0.369L0.305,-0.62L0.498,-0.62ZM0.409,-0.55L0.409,-0.442L0.494,-0.442C0.52,-0.442 0.532,-0.455 0.532,-0.482L0.532,-0.51C0.532,-0.537 0.52,-0.55 0.494,-0.55L0.409,-0.55ZM0.565,-0.359C0.666,-0.359 0.685,-0.314 0.685,-0.254L0.685,-0.19C0.685,-0.135 0.664,-0.1 0.564,-0.1L0.305,-0.1L0.305,-0.359L0.565,-0.359ZM0.409,-0.288L0.409,-0.17L0.539,-0.17C0.565,-0.17 0.577,-0.183 0.577,-0.21L0.577,-0.249C0.577,-0.276 0.565,-0.288 0.539,-0.288L0.409,-0.288Z" style="fill-rule:nonzero;"/>
            </g>
            <g transform="matrix(266.667,0,0,266.667,1299.62,693.556)">
                <path d="M0.555,0.119C0.569,0.119 0.58,0.115 0.586,0.109L0.716,0.001C0.725,-0.007 0.73,-0.018 0.73,-0.036L0.73,-0.153C0.73,-0.185 0.716,-0.199 0.684,-0.199L0.546,-0.199L0.635,-0.274C0.644,-0.282 0.649,-0.293 0.649,-0.311L0.649,-0.418C0.649,-0.439 0.643,-0.452 0.63,-0.459L0.716,-0.53C0.725,-0.538 0.73,-0.549 0.73,-0.567L0.73,-0.684C0.73,-0.716 0.716,-0.73 0.684,-0.73L0.22,-0.73C0.206,-0.73 0.195,-0.727 0.188,-0.721L0.059,-0.612C0.05,-0.604 0.045,-0.593 0.045,-0.575L0.045,0.073C0.045,0.105 0.059,0.119 0.091,0.119L0.555,0.119ZM0.684,0L0.22,0C0.195,0 0.184,-0.011 0.184,-0.036L0.184,-0.684C0.184,-0.709 0.195,-0.72 0.22,-0.72L0.684,-0.72C0.709,-0.72 0.72,-0.709 0.72,-0.684L0.72,-0.567C0.72,-0.542 0.709,-0.531 0.684,-0.531L0.408,-0.531L0.408,-0.454L0.603,-0.454C0.628,-0.454 0.639,-0.443 0.639,-0.418L0.639,-0.311C0.639,-0.286 0.628,-0.275 0.603,-0.275L0.408,-0.275L0.408,-0.189L0.684,-0.189C0.709,-0.189 0.72,-0.178 0.72,-0.153L0.72,-0.036C0.72,-0.011 0.709,0 0.684,0ZM0.63,-0.1L0.303,-0.1L0.303,-0.359L0.549,-0.359L0.549,-0.369L0.303,-0.369L0.303,-0.62L0.63,-0.62L0.63,-0.63L0.293,-0.63L0.293,-0.09L0.63,-0.09L0.63,-0.1Z" style="fill-rule:nonzero;"/>
            </g>
            <g transform="matrix(266.667,0,0,266.667,1500.69,693.556)">
                <path d="M0.316,-0.622C0.309,-0.629 0.307,-0.631 0.301,-0.631C0.295,-0.631 0.289,-0.627 0.289,-0.619L0.289,-0.09L0.299,-0.09L0.299,-0.617C0.299,-0.618 0.299,-0.62 0.301,-0.62C0.303,-0.62 0.304,-0.619 0.306,-0.617L0.684,-0.193L0.684,-0.09L0.694,-0.09L0.694,-0.63L0.684,-0.63L0.684,-0.208L0.316,-0.622ZM0.37,0L0.22,0C0.195,0 0.184,-0.011 0.184,-0.036L0.184,-0.684C0.184,-0.709 0.195,-0.72 0.22,-0.72L0.324,-0.72C0.35,-0.72 0.366,-0.713 0.383,-0.693L0.577,-0.471L0.577,-0.684C0.577,-0.709 0.588,-0.72 0.613,-0.72L0.763,-0.72C0.788,-0.72 0.799,-0.709 0.799,-0.684L0.799,-0.036C0.799,-0.011 0.788,0 0.763,0L0.613,0C0.588,0 0.577,-0.011 0.577,-0.036L0.577,-0.159L0.406,-0.366L0.406,-0.036C0.406,-0.011 0.395,0 0.37,0ZM0.402,0.001C0.411,-0.007 0.416,-0.018 0.416,-0.036L0.416,-0.073L0.438,-0.046L0.438,0.073C0.438,0.105 0.452,0.119 0.484,0.119L0.634,0.119C0.648,0.119 0.659,0.115 0.665,0.109L0.795,0.001C0.804,-0.007 0.809,-0.018 0.809,-0.036L0.809,-0.684C0.809,-0.716 0.795,-0.73 0.763,-0.73L0.613,-0.73C0.599,-0.73 0.588,-0.727 0.581,-0.721L0.46,-0.62L0.391,-0.7C0.371,-0.722 0.353,-0.73 0.324,-0.73L0.22,-0.73C0.206,-0.73 0.195,-0.727 0.188,-0.721L0.059,-0.612C0.05,-0.604 0.045,-0.593 0.045,-0.575L0.045,0.073C0.045,0.105 0.059,0.119 0.091,0.119L0.241,0.119C0.255,0.119 0.266,0.115 0.272,0.109L0.402,0.001Z" style="fill-rule:nonzero;"/>
            </g>
            <g transform="matrix(266.667,0,0,266.667,1728.16,693.556)">
                <path d="M0.395,0.119C0.409,0.119 0.42,0.115 0.426,0.109L0.556,0.001C0.565,-0.007 0.57,-0.018 0.57,-0.036L0.57,-0.408L0.578,-0.408C0.592,-0.408 0.603,-0.412 0.609,-0.418L0.739,-0.526C0.748,-0.534 0.753,-0.545 0.753,-0.563L0.753,-0.684C0.753,-0.716 0.739,-0.73 0.707,-0.73L0.179,-0.73C0.165,-0.73 0.154,-0.727 0.147,-0.721L0.018,-0.612C0.009,-0.604 0.004,-0.593 0.004,-0.575L0.004,-0.454C0.004,-0.422 0.018,-0.408 0.05,-0.408L0.187,-0.408L0.187,0.073C0.187,0.105 0.201,0.119 0.233,0.119L0.395,0.119ZM0.524,0L0.362,0C0.337,0 0.326,-0.011 0.326,-0.036L0.326,-0.527L0.179,-0.527C0.154,-0.527 0.143,-0.538 0.143,-0.563L0.143,-0.684C0.143,-0.709 0.154,-0.72 0.179,-0.72L0.707,-0.72C0.732,-0.72 0.743,-0.709 0.743,-0.684L0.743,-0.563C0.743,-0.538 0.732,-0.527 0.707,-0.527L0.56,-0.527L0.56,-0.036C0.56,-0.011 0.549,0 0.524,0ZM0.438,-0.09L0.448,-0.09L0.448,-0.62L0.653,-0.62L0.653,-0.63L0.233,-0.63L0.233,-0.62L0.438,-0.62L0.438,-0.09Z" style="fill-rule:nonzero;"/>
            </g>
            <g transform="matrix(266.667,0,0,266.667,2013.76,693.556)">
                <path d="M0.246,0.119C0.26,0.119 0.271,0.115 0.277,0.109L0.407,0.001C0.416,-0.007 0.421,-0.018 0.421,-0.036L0.421,-0.114L0.456,-0.114C0.47,-0.114 0.481,-0.118 0.487,-0.124L0.617,-0.232C0.626,-0.24 0.631,-0.251 0.631,-0.269L0.631,-0.389C0.631,-0.421 0.617,-0.435 0.586,-0.435L0.698,-0.528C0.707,-0.536 0.712,-0.547 0.712,-0.565L0.712,-0.684C0.712,-0.716 0.698,-0.73 0.666,-0.73L0.22,-0.73C0.206,-0.73 0.195,-0.727 0.188,-0.721L0.059,-0.612C0.05,-0.604 0.045,-0.593 0.045,-0.575L0.045,0.073C0.045,0.105 0.059,0.119 0.091,0.119L0.246,0.119ZM0.375,0L0.22,0C0.195,0 0.184,-0.011 0.184,-0.036L0.184,-0.684C0.184,-0.709 0.195,-0.72 0.22,-0.72L0.666,-0.72C0.691,-0.72 0.702,-0.709 0.702,-0.684L0.702,-0.565C0.702,-0.54 0.691,-0.529 0.666,-0.529L0.411,-0.529L0.411,-0.425L0.585,-0.425C0.61,-0.425 0.621,-0.414 0.621,-0.389L0.621,-0.269C0.621,-0.244 0.61,-0.233 0.585,-0.233L0.411,-0.233L0.411,-0.036C0.411,-0.011 0.4,0 0.375,0ZM0.293,-0.09L0.303,-0.09L0.303,-0.324L0.531,-0.324L0.531,-0.334L0.303,-0.334L0.303,-0.62L0.612,-0.62L0.612,-0.63L0.293,-0.63L0.293,-0.09Z" style="fill-rule:nonzero;"/>
            </g>
            <g transform="matrix(266.667,0,0,266.667,2203.89,693.556)">
                <path d="M0.615,0.071L0.744,-0.037C0.789,-0.075 0.804,-0.127 0.804,-0.189L0.804,-0.53C0.804,-0.656 0.746,-0.745 0.484,-0.745C0.35,-0.745 0.271,-0.722 0.224,-0.682L0.094,-0.574C0.049,-0.536 0.034,-0.483 0.034,-0.421L0.034,-0.11C0.034,0.016 0.093,0.134 0.355,0.134C0.488,0.134 0.568,0.111 0.615,0.071ZM0.794,-0.189C0.794,-0.067 0.734,0.015 0.484,0.015C0.234,0.015 0.173,-0.067 0.173,-0.189L0.173,-0.53C0.173,-0.652 0.234,-0.735 0.484,-0.735C0.734,-0.735 0.794,-0.652 0.794,-0.53L0.794,-0.189ZM0.685,-0.212L0.685,-0.507C0.685,-0.588 0.639,-0.642 0.482,-0.642C0.325,-0.642 0.281,-0.588 0.281,-0.507L0.281,-0.212C0.281,-0.131 0.325,-0.077 0.482,-0.077C0.639,-0.077 0.685,-0.131 0.685,-0.212ZM0.291,-0.212L0.291,-0.507C0.291,-0.582 0.333,-0.632 0.482,-0.632C0.631,-0.632 0.675,-0.582 0.675,-0.507L0.675,-0.212C0.675,-0.137 0.631,-0.087 0.482,-0.087C0.333,-0.087 0.291,-0.137 0.291,-0.212ZM0.4,-0.225C0.4,-0.198 0.412,-0.178 0.484,-0.178C0.557,-0.178 0.568,-0.198 0.568,-0.225L0.568,-0.494C0.568,-0.52 0.557,-0.54 0.484,-0.54C0.412,-0.54 0.4,-0.52 0.4,-0.494L0.4,-0.225ZM0.41,-0.225L0.41,-0.414C0.425,-0.408 0.429,-0.398 0.429,-0.385L0.429,-0.195C0.414,-0.202 0.41,-0.212 0.41,-0.225Z" style="fill-rule:nonzero;"/>
            </g>
            <g transform="matrix(266.667,0,0,266.667,2427.09,693.556)">
                <path d="M0.52,-0.62C0.591,-0.62 0.624,-0.578 0.624,-0.516L0.624,-0.446C0.624,-0.372 0.603,-0.331 0.52,-0.331L0.302,-0.331L0.302,-0.62L0.52,-0.62ZM0.41,-0.54L0.41,-0.412L0.485,-0.412C0.52,-0.412 0.529,-0.432 0.529,-0.459L0.529,-0.493C0.529,-0.52 0.52,-0.54 0.485,-0.54L0.41,-0.54ZM0.302,-0.09L0.302,-0.322L0.585,-0.322C0.661,-0.322 0.696,-0.29 0.696,-0.224L0.696,-0.09L0.706,-0.09L0.706,-0.224C0.706,-0.294 0.667,-0.331 0.585,-0.331L0.574,-0.331C0.622,-0.346 0.634,-0.386 0.634,-0.447L0.634,-0.516C0.634,-0.582 0.598,-0.63 0.52,-0.63L0.292,-0.63L0.292,-0.09L0.302,-0.09ZM0.374,0L0.22,0C0.195,0 0.184,-0.011 0.184,-0.036L0.184,-0.684C0.184,-0.709 0.195,-0.72 0.22,-0.72L0.553,-0.72C0.703,-0.72 0.75,-0.652 0.75,-0.553L0.75,-0.507C0.75,-0.451 0.736,-0.411 0.694,-0.393C0.767,-0.385 0.815,-0.332 0.815,-0.248L0.815,-0.036C0.815,-0.011 0.804,0 0.779,0L0.624,0C0.599,0 0.588,-0.011 0.588,-0.036L0.588,-0.189C0.588,-0.219 0.578,-0.232 0.55,-0.232L0.41,-0.232L0.41,-0.036C0.41,-0.011 0.399,0 0.374,0ZM0.406,0.001C0.415,-0.007 0.42,-0.018 0.42,-0.036L0.42,-0.113L0.421,-0.113C0.442,-0.113 0.449,-0.102 0.449,-0.08L0.449,0.073C0.449,0.105 0.463,0.119 0.495,0.119L0.65,0.119C0.664,0.119 0.675,0.115 0.681,0.109L0.811,0.001C0.82,-0.007 0.825,-0.018 0.825,-0.036L0.825,-0.248C0.825,-0.327 0.784,-0.38 0.721,-0.398L0.722,-0.398C0.749,-0.421 0.76,-0.458 0.76,-0.507L0.76,-0.553C0.76,-0.657 0.712,-0.73 0.553,-0.73L0.22,-0.73C0.206,-0.73 0.195,-0.727 0.188,-0.721L0.059,-0.612C0.05,-0.604 0.045,-0.593 0.045,-0.575L0.045,0.073C0.045,0.105 0.059,0.119 0.091,0.119L0.245,0.119C0.259,0.119 0.27,0.115 0.276,0.109L0.406,0.001Z" style="fill-rule:nonzero;"/>
            </g>
            <g transform="matrix(266.667,0,0,266.667,2651.89,693.556)">
                <path d="M0.555,0.119C0.569,0.119 0.58,0.115 0.586,0.109L0.716,0.001C0.725,-0.007 0.73,-0.018 0.73,-0.036L0.73,-0.153C0.73,-0.185 0.716,-0.199 0.684,-0.199L0.546,-0.199L0.635,-0.274C0.644,-0.282 0.649,-0.293 0.649,-0.311L0.649,-0.418C0.649,-0.439 0.643,-0.452 0.63,-0.459L0.716,-0.53C0.725,-0.538 0.73,-0.549 0.73,-0.567L0.73,-0.684C0.73,-0.716 0.716,-0.73 0.684,-0.73L0.22,-0.73C0.206,-0.73 0.195,-0.727 0.188,-0.721L0.059,-0.612C0.05,-0.604 0.045,-0.593 0.045,-0.575L0.045,0.073C0.045,0.105 0.059,0.119 0.091,0.119L0.555,0.119ZM0.684,0L0.22,0C0.195,0 0.184,-0.011 0.184,-0.036L0.184,-0.684C0.184,-0.709 0.195,-0.72 0.22,-0.72L0.684,-0.72C0.709,-0.72 0.72,-0.709 0.72,-0.684L0.72,-0.567C0.72,-0.542 0.709,-0.531 0.684,-0.531L0.408,-0.531L0.408,-0.454L0.603,-0.454C0.628,-0.454 0.639,-0.443 0.639,-0.418L0.639,-0.311C0.639,-0.286 0.628,-0.275 0.603,-0.275L0.408,-0.275L0.408,-0.189L0.684,-0.189C0.709,-0.189 0.72,-0.178 0.72,-0.153L0.72,-0.036C0.72,-0.011 0.709,0 0.684,0ZM0.63,-0.1L0.303,-0.1L0.303,-0.359L0.549,-0.359L0.549,-0.369L0.303,-0.369L0.303,-0.62L0.63,-0.62L0.63,-0.63L0.293,-0.63L0.293,-0.09L0.63,-0.09L0.63,-0.1Z" style="fill-rule:nonzero;"/>
            </g>
            <g transform="matrix(266.667,0,0,266.667,2852.96,693.556)">
                <path d="M0.221,0.119L0.481,0.119C0.499,0.119 0.512,0.115 0.523,0.105L0.652,-0.002C0.659,-0.008 0.666,-0.017 0.67,-0.029L0.768,-0.274C0.793,-0.336 0.801,-0.355 0.801,-0.42L0.801,-0.684C0.801,-0.716 0.788,-0.73 0.755,-0.73L0.598,-0.73C0.584,-0.73 0.573,-0.727 0.566,-0.721L0.437,-0.612C0.428,-0.604 0.423,-0.593 0.423,-0.575L0.423,-0.363L0.42,-0.37C0.416,-0.384 0.413,-0.395 0.413,-0.408L0.413,-0.684C0.413,-0.715 0.396,-0.73 0.364,-0.73L0.205,-0.73C0.191,-0.73 0.18,-0.727 0.173,-0.721L0.044,-0.612C0.035,-0.604 0.03,-0.593 0.03,-0.575L0.03,-0.311C0.03,-0.246 0.038,-0.227 0.063,-0.165L0.161,0.08C0.173,0.109 0.19,0.119 0.221,0.119ZM0.61,0L0.35,0C0.324,0 0.309,-0.008 0.299,-0.033L0.201,-0.278C0.177,-0.338 0.169,-0.357 0.169,-0.42L0.169,-0.684C0.169,-0.709 0.18,-0.72 0.205,-0.72L0.364,-0.72C0.389,-0.72 0.403,-0.709 0.403,-0.684L0.403,-0.408C0.403,-0.394 0.406,-0.382 0.411,-0.367L0.458,-0.227C0.462,-0.214 0.466,-0.21 0.477,-0.21L0.488,-0.21C0.499,-0.21 0.503,-0.214 0.507,-0.227L0.554,-0.368C0.559,-0.383 0.562,-0.395 0.562,-0.409L0.562,-0.684C0.562,-0.709 0.573,-0.72 0.598,-0.72L0.755,-0.72C0.781,-0.72 0.791,-0.709 0.791,-0.684L0.791,-0.42C0.791,-0.357 0.783,-0.338 0.759,-0.278L0.661,-0.033C0.651,-0.008 0.636,0 0.61,0ZM0.282,-0.63L0.282,-0.414C0.282,-0.377 0.286,-0.346 0.298,-0.317L0.364,-0.157C0.38,-0.118 0.395,-0.09 0.437,-0.09L0.525,-0.09C0.567,-0.09 0.582,-0.118 0.598,-0.157L0.664,-0.317C0.676,-0.346 0.68,-0.377 0.68,-0.414L0.68,-0.63L0.67,-0.63L0.67,-0.414C0.67,-0.379 0.665,-0.348 0.654,-0.321L0.588,-0.161C0.574,-0.126 0.563,-0.1 0.525,-0.1L0.437,-0.1C0.399,-0.1 0.388,-0.126 0.374,-0.161L0.308,-0.321C0.297,-0.348 0.292,-0.379 0.292,-0.414L0.292,-0.63L0.282,-0.63Z" style="fill-rule:nonzero;"/>
            </g>
            <g transform="matrix(266.667,0,0,266.667,3074.29,693.556)">
                <path d="M0.555,0.119C0.569,0.119 0.58,0.115 0.586,0.109L0.716,0.001C0.725,-0.007 0.73,-0.018 0.73,-0.036L0.73,-0.153C0.73,-0.185 0.716,-0.199 0.684,-0.199L0.546,-0.199L0.635,-0.274C0.644,-0.282 0.649,-0.293 0.649,-0.311L0.649,-0.418C0.649,-0.439 0.643,-0.452 0.63,-0.459L0.716,-0.53C0.725,-0.538 0.73,-0.549 0.73,-0.567L0.73,-0.684C0.73,-0.716 0.716,-0.73 0.684,-0.73L0.22,-0.73C0.206,-0.73 0.195,-0.727 0.188,-0.721L0.059,-0.612C0.05,-0.604 0.045,-0.593 0.045,-0.575L0.045,0.073C0.045,0.105 0.059,0.119 0.091,0.119L0.555,0.119ZM0.684,0L0.22,0C0.195,0 0.184,-0.011 0.184,-0.036L0.184,-0.684C0.184,-0.709 0.195,-0.72 0.22,-0.72L0.684,-0.72C0.709,-0.72 0.72,-0.709 0.72,-0.684L0.72,-0.567C0.72,-0.542 0.709,-0.531 0.684,-0.531L0.408,-0.531L0.408,-0.454L0.603,-0.454C0.628,-0.454 0.639,-0.443 0.639,-0.418L0.639,-0.311C0.639,-0.286 0.628,-0.275 0.603,-0.275L0.408,-0.275L0.408,-0.189L0.684,-0.189C0.709,-0.189 0.72,-0.178 0.72,-0.153L0.72,-0.036C0.72,-0.011 0.709,0 0.684,0ZM0.63,-0.1L0.303,-0.1L0.303,-0.359L0.549,-0.359L0.549,-0.369L0.303,-0.369L0.303,-0.62L0.63,-0.62L0.63,-0.63L0.293,-0.63L0.293,-0.09L0.63,-0.09L0.63,-0.1Z" style="fill-rule:nonzero;"/>
            </g>
            <g transform="matrix(266.667,0,0,266.667,3275.36,693.556)">
                <path d="M0.52,-0.62C0.591,-0.62 0.624,-0.578 0.624,-0.516L0.624,-0.446C0.624,-0.372 0.603,-0.331 0.52,-0.331L0.302,-0.331L0.302,-0.62L0.52,-0.62ZM0.41,-0.54L0.41,-0.412L0.485,-0.412C0.52,-0.412 0.529,-0.432 0.529,-0.459L0.529,-0.493C0.529,-0.52 0.52,-0.54 0.485,-0.54L0.41,-0.54ZM0.302,-0.09L0.302,-0.322L0.585,-0.322C0.661,-0.322 0.696,-0.29 0.696,-0.224L0.696,-0.09L0.706,-0.09L0.706,-0.224C0.706,-0.294 0.667,-0.331 0.585,-0.331L0.574,-0.331C0.622,-0.346 0.634,-0.386 0.634,-0.447L0.634,-0.516C0.634,-0.582 0.598,-0.63 0.52,-0.63L0.292,-0.63L0.292,-0.09L0.302,-0.09ZM0.374,0L0.22,0C0.195,0 0.184,-0.011 0.184,-0.036L0.184,-0.684C0.184,-0.709 0.195,-0.72 0.22,-0.72L0.553,-0.72C0.703,-0.72 0.75,-0.652 0.75,-0.553L0.75,-0.507C0.75,-0.451 0.736,-0.411 0.694,-0.393C0.767,-0.385 0.815,-0.332 0.815,-0.248L0.815,-0.036C0.815,-0.011 0.804,0 0.779,0L0.624,0C0.599,0 0.588,-0.011 0.588,-0.036L0.588,-0.189C0.588,-0.219 0.578,-0.232 0.55,-0.232L0.41,-0.232L0.41,-0.036C0.41,-0.011 0.399,0 0.374,0ZM0.406,0.001C0.415,-0.007 0.42,-0.018 0.42,-0.036L0.42,-0.113L0.421,-0.113C0.442,-0.113 0.449,-0.102 0.449,-0.08L0.449,0.073C0.449,0.105 0.463,0.119 0.495,0.119L0.65,0.119C0.664,0.119 0.675,0.115 0.681,0.109L0.811,0.001C0.82,-0.007 0.825,-0.018 0.825,-0.036L0.825,-0.248C0.825,-0.327 0.784,-0.38 0.721,-0.398L0.722,-0.398C0.749,-0.421 0.76,-0.458 0.76,-0.507L0.76,-0.553C0.76,-0.657 0.712,-0.73 0.553,-0.73L0.22,-0.73C0.206,-0.73 0.195,-0.727 0.188,-0.721L0.059,-0.612C0.05,-0.604 0.045,-0.593 0.045,-0.575L0.045,0.073C0.045,0.105 0.059,0.119 0.091,0.119L0.245,0.119C0.259,0.119 0.27,0.115 0.276,0.109L0.406,0.001Z" style="fill-rule:nonzero;"/>
            </g>
        </g>
    </g>
</svg>
