<?xml version="1.0" encoding="UTF-8" standalone="no"?>
<!DOCTYPE svg PUBLIC "-//W3C//DTD SVG 1.1//EN" "http://www.w3.org/Graphics/SVG/1.1/DTD/svg11.dtd">
<svg width="100%" height="100%" viewBox="0 0 216 55" version="1.1" xmlns="http://www.w3.org/2000/svg" xmlns:xlink="http://www.w3.org/1999/xlink" xml:space="preserve" xmlns:serif="http://www.serif.com/" style="fill-rule:evenodd;clip-rule:evenodd;stroke-linejoin:round;stroke-miterlimit:2;">
    <g transform="matrix(1,0,0,1,-292.146,-293.017)">
        <g transform="matrix(1,0,0,1,-5.07533,-26.1351)">
            <g transform="matrix(62.5,0,0,62.5,294.846,365.402)">
                <path d="M0.708,-0.676L0.716,-0.66L0.538,-0.528C0.573,-0.528 0.609,-0.519 0.645,-0.501C0.681,-0.484 0.709,-0.459 0.727,-0.428C0.746,-0.397 0.755,-0.364 0.755,-0.33C0.755,-0.276 0.737,-0.223 0.699,-0.173C0.661,-0.123 0.608,-0.081 0.538,-0.049C0.469,-0.016 0.403,0 0.342,0C0.283,0 0.229,-0.013 0.18,-0.04C0.132,-0.066 0.096,-0.099 0.073,-0.139C0.049,-0.178 0.038,-0.222 0.038,-0.27C0.038,-0.324 0.051,-0.374 0.077,-0.42C0.103,-0.466 0.151,-0.517 0.222,-0.573L0.419,-0.73C0.474,-0.703 0.517,-0.686 0.548,-0.677C0.579,-0.668 0.609,-0.664 0.639,-0.664C0.662,-0.664 0.684,-0.668 0.708,-0.676ZM0.344,-0.646L0.336,-0.637L0.336,-0.406L0.564,-0.578C0.493,-0.596 0.42,-0.618 0.344,-0.646ZM0.234,-0.556C0.197,-0.517 0.171,-0.481 0.156,-0.447C0.14,-0.413 0.133,-0.374 0.133,-0.329C0.133,-0.293 0.138,-0.261 0.148,-0.233C0.158,-0.206 0.172,-0.179 0.192,-0.153C0.21,-0.17 0.222,-0.185 0.227,-0.196C0.232,-0.208 0.234,-0.23 0.234,-0.262L0.234,-0.556ZM0.422,-0.309C0.445,-0.293 0.465,-0.282 0.484,-0.275C0.503,-0.269 0.524,-0.266 0.547,-0.266C0.568,-0.266 0.587,-0.268 0.604,-0.273C0.622,-0.279 0.644,-0.289 0.671,-0.304C0.663,-0.338 0.648,-0.366 0.626,-0.387C0.591,-0.422 0.547,-0.439 0.494,-0.439C0.471,-0.439 0.447,-0.434 0.422,-0.426L0.422,-0.309ZM0.4,-0.416C0.374,-0.404 0.353,-0.391 0.336,-0.378L0.336,-0.296C0.336,-0.271 0.334,-0.254 0.331,-0.246C0.327,-0.237 0.319,-0.228 0.308,-0.219C0.3,-0.213 0.295,-0.209 0.29,-0.205L0.206,-0.135C0.235,-0.104 0.265,-0.081 0.295,-0.066C0.326,-0.051 0.361,-0.043 0.4,-0.041L0.4,-0.416ZM0.422,-0.173C0.463,-0.195 0.501,-0.206 0.538,-0.206C0.573,-0.206 0.61,-0.196 0.649,-0.176C0.666,-0.21 0.674,-0.243 0.674,-0.274L0.674,-0.281C0.645,-0.266 0.621,-0.256 0.604,-0.251C0.586,-0.246 0.566,-0.244 0.545,-0.244C0.525,-0.244 0.504,-0.247 0.484,-0.253C0.463,-0.259 0.443,-0.269 0.422,-0.281L0.422,-0.173ZM0.422,-0.041C0.452,-0.043 0.477,-0.047 0.496,-0.054C0.525,-0.064 0.553,-0.078 0.579,-0.098C0.599,-0.112 0.618,-0.132 0.639,-0.157C0.599,-0.174 0.564,-0.182 0.534,-0.182C0.497,-0.182 0.46,-0.171 0.422,-0.149L0.422,-0.041Z" style="fill-rule:nonzero;"/>
            </g>
        </g>
        <g transform="matrix(1,0,0,1,-5.07533,-26.1351)">
            <g transform="matrix(62.5,0,0,62.5,344.345,365.402)">
                <path d="M0.196,-0.374C0.218,-0.409 0.235,-0.46 0.245,-0.525C0.238,-0.522 0.229,-0.517 0.217,-0.511C0.175,-0.489 0.141,-0.463 0.116,-0.434L0.04,-0.47L0.08,-0.546C0.1,-0.54 0.123,-0.537 0.15,-0.537C0.176,-0.537 0.205,-0.54 0.238,-0.546C0.208,-0.574 0.183,-0.596 0.163,-0.61C0.151,-0.618 0.134,-0.627 0.11,-0.638L0.123,-0.721L0.208,-0.707C0.208,-0.688 0.212,-0.667 0.219,-0.645C0.225,-0.622 0.237,-0.593 0.254,-0.558C0.285,-0.615 0.301,-0.665 0.303,-0.707L0.387,-0.721L0.399,-0.638C0.376,-0.629 0.358,-0.619 0.344,-0.609C0.321,-0.592 0.297,-0.571 0.272,-0.546C0.308,-0.54 0.338,-0.537 0.362,-0.537C0.392,-0.537 0.416,-0.54 0.431,-0.546L0.471,-0.47L0.393,-0.434C0.372,-0.459 0.33,-0.49 0.266,-0.525C0.273,-0.485 0.279,-0.456 0.285,-0.439C0.294,-0.412 0.304,-0.39 0.314,-0.374L0.254,-0.312L0.196,-0.374Z" style="fill-rule:nonzero;"/>
            </g>
        </g>
        <g transform="matrix(1,0,0,1,-5.07533,-26.1351)">
            <g transform="matrix(62.5,0,0,62.5,376.206,365.402)">
                <path d="M0.657,-0.74C0.691,-0.731 0.716,-0.717 0.733,-0.7C0.758,-0.675 0.77,-0.647 0.77,-0.614C0.77,-0.588 0.761,-0.561 0.741,-0.533C0.722,-0.504 0.687,-0.471 0.636,-0.432C0.68,-0.428 0.712,-0.421 0.732,-0.411C0.753,-0.4 0.767,-0.387 0.775,-0.371C0.783,-0.354 0.787,-0.327 0.787,-0.289L0.787,-0.121C0.671,-0.108 0.573,-0.068 0.491,0C0.463,-0.02 0.436,-0.033 0.41,-0.042C0.369,-0.055 0.325,-0.062 0.278,-0.062C0.221,-0.062 0.175,-0.05 0.14,-0.027C0.116,-0.011 0.104,0.004 0.104,0.02C0.104,0.026 0.108,0.035 0.115,0.046C0.121,0.058 0.125,0.067 0.125,0.074C0.125,0.08 0.122,0.086 0.117,0.091C0.112,0.096 0.107,0.098 0.101,0.098C0.092,0.098 0.084,0.094 0.076,0.085C0.069,0.077 0.065,0.065 0.065,0.052C0.065,0.039 0.07,0.025 0.079,0.009C0.088,-0.008 0.107,-0.031 0.137,-0.061C0.167,-0.091 0.186,-0.113 0.194,-0.127C0.202,-0.141 0.207,-0.154 0.207,-0.167C0.207,-0.181 0.202,-0.193 0.192,-0.202C0.183,-0.211 0.17,-0.216 0.156,-0.216C0.143,-0.216 0.132,-0.212 0.123,-0.205C0.115,-0.197 0.109,-0.185 0.106,-0.167L0.088,-0.168L0.088,-0.181C0.088,-0.209 0.097,-0.231 0.115,-0.249C0.134,-0.266 0.158,-0.275 0.189,-0.275C0.193,-0.275 0.198,-0.275 0.206,-0.274C0.205,-0.306 0.201,-0.329 0.191,-0.344C0.177,-0.367 0.155,-0.378 0.126,-0.378C0.108,-0.378 0.092,-0.374 0.078,-0.364C0.07,-0.359 0.063,-0.349 0.055,-0.334L0.037,-0.341C0.04,-0.372 0.052,-0.397 0.073,-0.415C0.094,-0.434 0.121,-0.443 0.153,-0.443C0.165,-0.443 0.18,-0.442 0.198,-0.44C0.2,-0.486 0.204,-0.519 0.211,-0.54C0.218,-0.561 0.23,-0.58 0.247,-0.598C0.264,-0.615 0.296,-0.639 0.343,-0.67C0.299,-0.655 0.261,-0.648 0.23,-0.648C0.21,-0.648 0.184,-0.652 0.152,-0.66C0.133,-0.664 0.12,-0.666 0.112,-0.666C0.098,-0.666 0.085,-0.661 0.075,-0.651C0.065,-0.641 0.058,-0.624 0.055,-0.598L0.037,-0.598C0.038,-0.628 0.043,-0.653 0.053,-0.673C0.063,-0.693 0.078,-0.709 0.099,-0.721C0.119,-0.734 0.141,-0.74 0.164,-0.74C0.181,-0.74 0.209,-0.735 0.248,-0.725C0.288,-0.715 0.319,-0.71 0.344,-0.71C0.362,-0.71 0.379,-0.712 0.396,-0.716C0.413,-0.72 0.435,-0.728 0.462,-0.74L0.472,-0.718C0.402,-0.684 0.355,-0.651 0.331,-0.618C0.308,-0.586 0.296,-0.543 0.296,-0.489L0.296,-0.288C0.296,-0.244 0.292,-0.21 0.282,-0.186C0.272,-0.161 0.252,-0.134 0.223,-0.102C0.28,-0.127 0.319,-0.153 0.339,-0.181C0.359,-0.209 0.369,-0.25 0.369,-0.304L0.369,-0.448C0.369,-0.516 0.375,-0.563 0.386,-0.59C0.398,-0.618 0.42,-0.641 0.451,-0.661C0.482,-0.681 0.551,-0.707 0.657,-0.74ZM0.573,-0.692C0.537,-0.676 0.514,-0.663 0.501,-0.652C0.489,-0.641 0.481,-0.628 0.476,-0.612C0.471,-0.597 0.469,-0.572 0.469,-0.535L0.469,-0.335C0.469,-0.3 0.465,-0.273 0.459,-0.255C0.452,-0.237 0.44,-0.219 0.421,-0.201C0.403,-0.184 0.365,-0.159 0.309,-0.125C0.339,-0.13 0.368,-0.132 0.394,-0.132C0.439,-0.132 0.481,-0.126 0.521,-0.114L0.521,-0.521L0.543,-0.521L0.543,-0.394C0.588,-0.421 0.621,-0.448 0.643,-0.477C0.664,-0.505 0.675,-0.536 0.675,-0.569C0.675,-0.597 0.666,-0.62 0.65,-0.64C0.633,-0.659 0.607,-0.677 0.573,-0.692ZM0.543,-0.323C0.57,-0.314 0.594,-0.309 0.615,-0.309C0.637,-0.309 0.661,-0.314 0.688,-0.323C0.688,-0.346 0.682,-0.364 0.672,-0.377C0.662,-0.391 0.643,-0.404 0.615,-0.416C0.58,-0.393 0.556,-0.377 0.543,-0.371L0.543,-0.323ZM0.688,-0.302C0.66,-0.292 0.636,-0.287 0.615,-0.287C0.593,-0.287 0.569,-0.292 0.543,-0.302L0.543,-0.215C0.568,-0.224 0.591,-0.229 0.613,-0.229C0.634,-0.229 0.659,-0.224 0.688,-0.215L0.688,-0.302ZM0.688,-0.192C0.658,-0.203 0.632,-0.208 0.611,-0.208C0.59,-0.208 0.567,-0.203 0.543,-0.192L0.543,-0.105C0.557,-0.099 0.57,-0.092 0.583,-0.084C0.616,-0.102 0.651,-0.115 0.688,-0.125L0.688,-0.192Z" style="fill-rule:nonzero;"/>
            </g>
        </g>
        <g transform="matrix(1,0,0,1,-5.07533,-26.1351)">
            <g transform="matrix(62.5,0,0,62.5,428.94,365.402)">
                <path d="M0.196,-0.374C0.218,-0.409 0.235,-0.46 0.245,-0.525C0.238,-0.522 0.229,-0.517 0.217,-0.511C0.175,-0.489 0.141,-0.463 0.116,-0.434L0.04,-0.47L0.08,-0.546C0.1,-0.54 0.123,-0.537 0.15,-0.537C0.176,-0.537 0.205,-0.54 0.238,-0.546C0.208,-0.574 0.183,-0.596 0.163,-0.61C0.151,-0.618 0.134,-0.627 0.11,-0.638L0.123,-0.721L0.208,-0.707C0.208,-0.688 0.212,-0.667 0.219,-0.645C0.225,-0.622 0.237,-0.593 0.254,-0.558C0.285,-0.615 0.301,-0.665 0.303,-0.707L0.387,-0.721L0.399,-0.638C0.376,-0.629 0.358,-0.619 0.344,-0.609C0.321,-0.592 0.297,-0.571 0.272,-0.546C0.308,-0.54 0.338,-0.537 0.362,-0.537C0.392,-0.537 0.416,-0.54 0.431,-0.546L0.471,-0.47L0.393,-0.434C0.372,-0.459 0.33,-0.49 0.266,-0.525C0.273,-0.485 0.279,-0.456 0.285,-0.439C0.294,-0.412 0.304,-0.39 0.314,-0.374L0.254,-0.312L0.196,-0.374Z" style="fill-rule:nonzero;"/>
            </g>
        </g>
        <g transform="matrix(1,0,0,1,-5.07533,-26.1351)">
            <g transform="matrix(62.5,0,0,62.5,460.8,365.402)">
                <path d="M0.806,-0.73L0.828,-0.73C0.826,-0.701 0.822,-0.68 0.814,-0.665C0.804,-0.645 0.789,-0.629 0.768,-0.617C0.748,-0.605 0.725,-0.6 0.7,-0.6C0.674,-0.6 0.642,-0.607 0.606,-0.621L0.606,-0.492L0.759,-0.492L0.731,-0.419L0.606,-0.419L0.606,-0.187C0.606,-0.141 0.603,-0.108 0.596,-0.087C0.59,-0.066 0.578,-0.045 0.559,-0.026C0.541,-0.007 0.517,0.009 0.489,0.022C0.449,0.041 0.417,0.055 0.393,0.063L0.188,0.131C0.124,0.107 0.086,0.095 0.076,0.095C0.067,0.095 0.059,0.098 0.052,0.105C0.044,0.111 0.039,0.122 0.036,0.136L0.016,0.131C0.016,0.109 0.018,0.091 0.024,0.078C0.033,0.057 0.045,0.041 0.061,0.03C0.077,0.02 0.094,0.014 0.112,0.014C0.138,0.014 0.171,0.023 0.212,0.041C0.241,0.053 0.258,0.061 0.264,0.062C0.271,0.064 0.277,0.065 0.283,0.065C0.293,0.065 0.302,0.061 0.311,0.053C0.319,0.045 0.324,0.032 0.327,0.015C0.329,-0.002 0.331,-0.038 0.331,-0.092L0.331,-0.419L0.3,-0.419C0.25,-0.419 0.213,-0.414 0.189,-0.402C0.164,-0.391 0.143,-0.371 0.126,-0.344L0.107,-0.352C0.12,-0.395 0.137,-0.426 0.158,-0.444C0.194,-0.476 0.244,-0.492 0.307,-0.492L0.331,-0.492L0.331,-0.596L0.364,-0.594C0.401,-0.594 0.437,-0.602 0.472,-0.616C0.508,-0.631 0.538,-0.649 0.562,-0.669C0.578,-0.683 0.595,-0.704 0.613,-0.73C0.666,-0.696 0.71,-0.679 0.744,-0.679C0.759,-0.679 0.771,-0.683 0.782,-0.691C0.792,-0.699 0.8,-0.712 0.806,-0.73ZM0.506,-0.601C0.484,-0.589 0.459,-0.58 0.431,-0.574L0.431,-0.181C0.431,-0.167 0.43,-0.141 0.427,-0.104C0.426,-0.082 0.423,-0.065 0.419,-0.053C0.414,-0.037 0.406,-0.02 0.395,-0.005C0.384,0.01 0.366,0.029 0.341,0.053C0.383,0.038 0.417,0.019 0.443,-0.004C0.468,-0.027 0.485,-0.052 0.493,-0.079C0.502,-0.105 0.506,-0.145 0.506,-0.198L0.506,-0.601Z" style="fill-rule:nonzero;"/>
            </g>
        </g>
    </g>
</svg>
