<?xml version="1.0" encoding="UTF-8" standalone="no"?>
<!DOCTYPE svg PUBLIC "-//W3C//DTD SVG 1.1//EN" "http://www.w3.org/Graphics/SVG/1.1/DTD/svg11.dtd">
<svg width="100%" height="100%" viewBox="0 0 733 55" version="1.1" xmlns="http://www.w3.org/2000/svg" xmlns:xlink="http://www.w3.org/1999/xlink" xml:space="preserve" xmlns:serif="http://www.serif.com/" style="fill-rule:evenodd;clip-rule:evenodd;stroke-linejoin:round;stroke-miterlimit:2;">
    <g transform="matrix(1,0,0,1,-33.9363,-105.517)">
        <g transform="matrix(1,0,0,1,-5.07533,-26.1351)">
            <g transform="matrix(62.5,0,0,62.5,36.6366,177.902)">
                <path d="M0.708,-0.676L0.716,-0.66L0.538,-0.528C0.573,-0.528 0.609,-0.519 0.645,-0.501C0.681,-0.484 0.709,-0.459 0.727,-0.428C0.746,-0.397 0.755,-0.364 0.755,-0.33C0.755,-0.276 0.737,-0.223 0.699,-0.173C0.661,-0.123 0.608,-0.081 0.538,-0.049C0.469,-0.016 0.403,0 0.342,0C0.283,0 0.229,-0.013 0.18,-0.04C0.132,-0.066 0.096,-0.099 0.073,-0.139C0.049,-0.178 0.038,-0.222 0.038,-0.27C0.038,-0.324 0.051,-0.374 0.077,-0.42C0.103,-0.466 0.151,-0.517 0.222,-0.573L0.419,-0.73C0.474,-0.703 0.517,-0.686 0.548,-0.677C0.579,-0.668 0.609,-0.664 0.639,-0.664C0.662,-0.664 0.684,-0.668 0.708,-0.676ZM0.344,-0.646L0.336,-0.637L0.336,-0.406L0.564,-0.578C0.493,-0.596 0.42,-0.618 0.344,-0.646ZM0.234,-0.556C0.197,-0.517 0.171,-0.481 0.156,-0.447C0.14,-0.413 0.133,-0.374 0.133,-0.329C0.133,-0.293 0.138,-0.261 0.148,-0.233C0.158,-0.206 0.172,-0.179 0.192,-0.153C0.21,-0.17 0.222,-0.185 0.227,-0.196C0.232,-0.208 0.234,-0.23 0.234,-0.262L0.234,-0.556ZM0.422,-0.309C0.445,-0.293 0.465,-0.282 0.484,-0.275C0.503,-0.269 0.524,-0.266 0.547,-0.266C0.568,-0.266 0.587,-0.268 0.604,-0.273C0.622,-0.279 0.644,-0.289 0.671,-0.304C0.663,-0.338 0.648,-0.366 0.626,-0.387C0.591,-0.422 0.547,-0.439 0.494,-0.439C0.471,-0.439 0.447,-0.434 0.422,-0.426L0.422,-0.309ZM0.4,-0.416C0.374,-0.404 0.353,-0.391 0.336,-0.378L0.336,-0.296C0.336,-0.271 0.334,-0.254 0.331,-0.246C0.327,-0.237 0.319,-0.228 0.308,-0.219C0.3,-0.213 0.295,-0.209 0.29,-0.205L0.206,-0.135C0.235,-0.104 0.265,-0.081 0.295,-0.066C0.326,-0.051 0.361,-0.043 0.4,-0.041L0.4,-0.416ZM0.422,-0.173C0.463,-0.195 0.501,-0.206 0.538,-0.206C0.573,-0.206 0.61,-0.196 0.649,-0.176C0.666,-0.21 0.674,-0.243 0.674,-0.274L0.674,-0.281C0.645,-0.266 0.621,-0.256 0.604,-0.251C0.586,-0.246 0.566,-0.244 0.545,-0.244C0.525,-0.244 0.504,-0.247 0.484,-0.253C0.463,-0.259 0.443,-0.269 0.422,-0.281L0.422,-0.173ZM0.422,-0.041C0.452,-0.043 0.477,-0.047 0.496,-0.054C0.525,-0.064 0.553,-0.078 0.579,-0.098C0.599,-0.112 0.618,-0.132 0.639,-0.157C0.599,-0.174 0.564,-0.182 0.534,-0.182C0.497,-0.182 0.46,-0.171 0.422,-0.149L0.422,-0.041Z" style="fill-rule:nonzero;"/>
            </g>
        </g>
        <g transform="matrix(1,0,0,1,-5.07533,-26.1351)">
            <g transform="matrix(62.5,0,0,62.5,86.1361,177.902)">
                <path d="M0.282,-0.668L0.292,-0.653C0.238,-0.619 0.198,-0.579 0.173,-0.534C0.147,-0.49 0.134,-0.442 0.134,-0.391C0.134,-0.325 0.157,-0.262 0.202,-0.202C0.221,-0.218 0.232,-0.231 0.236,-0.241C0.24,-0.252 0.242,-0.279 0.242,-0.323L0.242,-0.548L0.455,-0.73C0.495,-0.711 0.528,-0.697 0.556,-0.69C0.583,-0.682 0.61,-0.679 0.636,-0.679C0.65,-0.679 0.667,-0.68 0.687,-0.683L0.699,-0.668L0.53,-0.498L0.662,-0.498L0.609,-0.405L0.423,-0.405L0.423,-0.088L0.455,-0.086C0.501,-0.086 0.547,-0.098 0.592,-0.121C0.627,-0.138 0.662,-0.165 0.698,-0.202L0.71,-0.183C0.673,-0.125 0.631,-0.081 0.585,-0.052C0.53,-0.017 0.466,0 0.395,0C0.283,0 0.194,-0.039 0.129,-0.116C0.077,-0.178 0.051,-0.25 0.051,-0.333C0.051,-0.384 0.062,-0.432 0.083,-0.476C0.104,-0.521 0.134,-0.561 0.172,-0.596C0.2,-0.62 0.236,-0.645 0.282,-0.668ZM0.401,-0.645L0.341,-0.594L0.341,-0.368C0.341,-0.343 0.34,-0.325 0.337,-0.316C0.334,-0.306 0.328,-0.295 0.318,-0.284C0.296,-0.259 0.262,-0.226 0.215,-0.187C0.243,-0.157 0.271,-0.135 0.299,-0.12C0.326,-0.105 0.361,-0.095 0.401,-0.09L0.401,-0.645ZM0.588,-0.59C0.554,-0.594 0.526,-0.6 0.504,-0.607C0.482,-0.614 0.455,-0.625 0.423,-0.641L0.423,-0.423L0.588,-0.59Z" style="fill-rule:nonzero;"/>
            </g>
        </g>
        <g transform="matrix(1,0,0,1,-5.07533,-26.1351)">
            <g transform="matrix(62.5,0,0,62.5,131.699,177.902)">
                <path d="M0.754,-0.73L0.772,-0.717C0.766,-0.686 0.756,-0.661 0.744,-0.643C0.733,-0.624 0.715,-0.61 0.692,-0.599C0.669,-0.589 0.643,-0.583 0.613,-0.583C0.597,-0.583 0.577,-0.584 0.555,-0.586L0.555,-0.093C0.604,-0.108 0.643,-0.127 0.672,-0.151C0.702,-0.174 0.729,-0.208 0.754,-0.252L0.772,-0.243C0.758,-0.2 0.742,-0.165 0.723,-0.139C0.692,-0.096 0.653,-0.062 0.605,-0.037C0.558,-0.012 0.502,0 0.439,0C0.378,0 0.321,-0.012 0.268,-0.035C0.237,-0.049 0.208,-0.068 0.183,-0.093C0.157,-0.118 0.136,-0.147 0.119,-0.183C0.103,-0.218 0.095,-0.258 0.095,-0.302C0.095,-0.347 0.104,-0.39 0.122,-0.431C0.139,-0.472 0.166,-0.511 0.201,-0.549C0.223,-0.572 0.254,-0.598 0.294,-0.627L0.233,-0.63C0.21,-0.631 0.185,-0.626 0.158,-0.615C0.13,-0.605 0.108,-0.59 0.093,-0.572C0.078,-0.554 0.064,-0.526 0.053,-0.49L0.034,-0.501C0.045,-0.547 0.06,-0.583 0.077,-0.609C0.101,-0.643 0.131,-0.67 0.17,-0.688C0.208,-0.707 0.252,-0.716 0.301,-0.716C0.335,-0.716 0.396,-0.709 0.482,-0.695C0.569,-0.681 0.628,-0.673 0.661,-0.673C0.683,-0.673 0.699,-0.677 0.711,-0.683C0.722,-0.69 0.737,-0.706 0.754,-0.73ZM0.349,-0.622L0.323,-0.624C0.28,-0.587 0.248,-0.549 0.227,-0.512C0.199,-0.461 0.186,-0.409 0.186,-0.356C0.186,-0.265 0.223,-0.19 0.298,-0.133C0.322,-0.153 0.336,-0.169 0.341,-0.181C0.347,-0.194 0.349,-0.219 0.349,-0.257L0.349,-0.622ZM0.532,-0.591C0.501,-0.595 0.474,-0.6 0.45,-0.604L0.45,-0.312C0.45,-0.278 0.449,-0.257 0.446,-0.247C0.443,-0.238 0.437,-0.227 0.427,-0.216C0.409,-0.196 0.372,-0.164 0.317,-0.12C0.345,-0.107 0.367,-0.098 0.384,-0.093C0.413,-0.085 0.441,-0.082 0.468,-0.082C0.483,-0.082 0.504,-0.083 0.532,-0.087L0.532,-0.591Z" style="fill-rule:nonzero;"/>
            </g>
        </g>
        <g transform="matrix(1,0,0,1,-5.07533,-26.1351)">
            <g transform="matrix(62.5,0,0,62.5,197.159,177.902)">
                <path d="M0.657,-0.74C0.691,-0.731 0.716,-0.717 0.733,-0.7C0.758,-0.675 0.77,-0.647 0.77,-0.614C0.77,-0.588 0.761,-0.561 0.741,-0.533C0.722,-0.504 0.687,-0.471 0.636,-0.432C0.68,-0.428 0.712,-0.421 0.732,-0.411C0.753,-0.4 0.767,-0.387 0.775,-0.371C0.783,-0.354 0.787,-0.327 0.787,-0.289L0.787,-0.121C0.671,-0.108 0.573,-0.068 0.491,0C0.463,-0.02 0.436,-0.033 0.41,-0.042C0.369,-0.055 0.325,-0.062 0.278,-0.062C0.221,-0.062 0.175,-0.05 0.14,-0.027C0.116,-0.011 0.104,0.004 0.104,0.02C0.104,0.026 0.108,0.035 0.115,0.046C0.121,0.058 0.125,0.067 0.125,0.074C0.125,0.08 0.122,0.086 0.117,0.091C0.112,0.096 0.107,0.098 0.101,0.098C0.092,0.098 0.084,0.094 0.076,0.085C0.069,0.077 0.065,0.065 0.065,0.052C0.065,0.039 0.07,0.025 0.079,0.009C0.088,-0.008 0.107,-0.031 0.137,-0.061C0.167,-0.091 0.186,-0.113 0.194,-0.127C0.202,-0.141 0.207,-0.154 0.207,-0.167C0.207,-0.181 0.202,-0.193 0.192,-0.202C0.183,-0.211 0.17,-0.216 0.156,-0.216C0.143,-0.216 0.132,-0.212 0.123,-0.205C0.115,-0.197 0.109,-0.185 0.106,-0.167L0.088,-0.168L0.088,-0.181C0.088,-0.209 0.097,-0.231 0.115,-0.249C0.134,-0.266 0.158,-0.275 0.189,-0.275C0.193,-0.275 0.198,-0.275 0.206,-0.274C0.205,-0.306 0.201,-0.329 0.191,-0.344C0.177,-0.367 0.155,-0.378 0.126,-0.378C0.108,-0.378 0.092,-0.374 0.078,-0.364C0.07,-0.359 0.063,-0.349 0.055,-0.334L0.037,-0.341C0.04,-0.372 0.052,-0.397 0.073,-0.415C0.094,-0.434 0.121,-0.443 0.153,-0.443C0.165,-0.443 0.18,-0.442 0.198,-0.44C0.2,-0.486 0.204,-0.519 0.211,-0.54C0.218,-0.561 0.23,-0.58 0.247,-0.598C0.264,-0.615 0.296,-0.639 0.343,-0.67C0.299,-0.655 0.261,-0.648 0.23,-0.648C0.21,-0.648 0.184,-0.652 0.152,-0.66C0.133,-0.664 0.12,-0.666 0.112,-0.666C0.098,-0.666 0.085,-0.661 0.075,-0.651C0.065,-0.641 0.058,-0.624 0.055,-0.598L0.037,-0.598C0.038,-0.628 0.043,-0.653 0.053,-0.673C0.063,-0.693 0.078,-0.709 0.099,-0.721C0.119,-0.734 0.141,-0.74 0.164,-0.74C0.181,-0.74 0.209,-0.735 0.248,-0.725C0.288,-0.715 0.319,-0.71 0.344,-0.71C0.362,-0.71 0.379,-0.712 0.396,-0.716C0.413,-0.72 0.435,-0.728 0.462,-0.74L0.472,-0.718C0.402,-0.684 0.355,-0.651 0.331,-0.618C0.308,-0.586 0.296,-0.543 0.296,-0.489L0.296,-0.288C0.296,-0.244 0.292,-0.21 0.282,-0.186C0.272,-0.161 0.252,-0.134 0.223,-0.102C0.28,-0.127 0.319,-0.153 0.339,-0.181C0.359,-0.209 0.369,-0.25 0.369,-0.304L0.369,-0.448C0.369,-0.516 0.375,-0.563 0.386,-0.59C0.398,-0.618 0.42,-0.641 0.451,-0.661C0.482,-0.681 0.551,-0.707 0.657,-0.74ZM0.573,-0.692C0.537,-0.676 0.514,-0.663 0.501,-0.652C0.489,-0.641 0.481,-0.628 0.476,-0.612C0.471,-0.597 0.469,-0.572 0.469,-0.535L0.469,-0.335C0.469,-0.3 0.465,-0.273 0.459,-0.255C0.452,-0.237 0.44,-0.219 0.421,-0.201C0.403,-0.184 0.365,-0.159 0.309,-0.125C0.339,-0.13 0.368,-0.132 0.394,-0.132C0.439,-0.132 0.481,-0.126 0.521,-0.114L0.521,-0.521L0.543,-0.521L0.543,-0.394C0.588,-0.421 0.621,-0.448 0.643,-0.477C0.664,-0.505 0.675,-0.536 0.675,-0.569C0.675,-0.597 0.666,-0.62 0.65,-0.64C0.633,-0.659 0.607,-0.677 0.573,-0.692ZM0.543,-0.323C0.57,-0.314 0.594,-0.309 0.615,-0.309C0.637,-0.309 0.661,-0.314 0.688,-0.323C0.688,-0.346 0.682,-0.364 0.672,-0.377C0.662,-0.391 0.643,-0.404 0.615,-0.416C0.58,-0.393 0.556,-0.377 0.543,-0.371L0.543,-0.323ZM0.688,-0.302C0.66,-0.292 0.636,-0.287 0.615,-0.287C0.593,-0.287 0.569,-0.292 0.543,-0.302L0.543,-0.215C0.568,-0.224 0.591,-0.229 0.613,-0.229C0.634,-0.229 0.659,-0.224 0.688,-0.215L0.688,-0.302ZM0.688,-0.192C0.658,-0.203 0.632,-0.208 0.611,-0.208C0.59,-0.208 0.567,-0.203 0.543,-0.192L0.543,-0.105C0.557,-0.099 0.57,-0.092 0.583,-0.084C0.616,-0.102 0.651,-0.115 0.688,-0.125L0.688,-0.192Z" style="fill-rule:nonzero;"/>
            </g>
        </g>
        <g transform="matrix(1,0,0,1,-5.07533,-26.1351)">
            <g transform="matrix(62.5,0,0,62.5,249.893,177.902)">
                <path d="M0.282,-0.668L0.292,-0.653C0.238,-0.619 0.198,-0.579 0.173,-0.534C0.147,-0.49 0.134,-0.442 0.134,-0.391C0.134,-0.325 0.157,-0.262 0.202,-0.202C0.221,-0.218 0.232,-0.231 0.236,-0.241C0.24,-0.252 0.242,-0.279 0.242,-0.323L0.242,-0.548L0.455,-0.73C0.495,-0.711 0.528,-0.697 0.556,-0.69C0.583,-0.682 0.61,-0.679 0.636,-0.679C0.65,-0.679 0.667,-0.68 0.687,-0.683L0.699,-0.668L0.53,-0.498L0.662,-0.498L0.609,-0.405L0.423,-0.405L0.423,-0.088L0.455,-0.086C0.501,-0.086 0.547,-0.098 0.592,-0.121C0.627,-0.138 0.662,-0.165 0.698,-0.202L0.71,-0.183C0.673,-0.125 0.631,-0.081 0.585,-0.052C0.53,-0.017 0.466,0 0.395,0C0.283,0 0.194,-0.039 0.129,-0.116C0.077,-0.178 0.051,-0.25 0.051,-0.333C0.051,-0.384 0.062,-0.432 0.083,-0.476C0.104,-0.521 0.134,-0.561 0.172,-0.596C0.2,-0.62 0.236,-0.645 0.282,-0.668ZM0.401,-0.645L0.341,-0.594L0.341,-0.368C0.341,-0.343 0.34,-0.325 0.337,-0.316C0.334,-0.306 0.328,-0.295 0.318,-0.284C0.296,-0.259 0.262,-0.226 0.215,-0.187C0.243,-0.157 0.271,-0.135 0.299,-0.12C0.326,-0.105 0.361,-0.095 0.401,-0.09L0.401,-0.645ZM0.588,-0.59C0.554,-0.594 0.526,-0.6 0.504,-0.607C0.482,-0.614 0.455,-0.625 0.423,-0.641L0.423,-0.423L0.588,-0.59Z" style="fill-rule:nonzero;"/>
            </g>
        </g>
        <g transform="matrix(1,0,0,1,-5.07533,-26.1351)">
            <g transform="matrix(62.5,0,0,62.5,295.456,177.902)">
                <path d="M0.643,-0.74C0.7,-0.726 0.744,-0.708 0.776,-0.688C0.819,-0.66 0.852,-0.626 0.874,-0.586C0.896,-0.546 0.907,-0.504 0.907,-0.459C0.907,-0.427 0.902,-0.395 0.891,-0.363C0.88,-0.332 0.862,-0.297 0.837,-0.259C0.829,-0.245 0.786,-0.187 0.71,-0.086C0.749,-0.103 0.788,-0.111 0.827,-0.111C0.844,-0.111 0.859,-0.11 0.87,-0.108C0.882,-0.105 0.891,-0.104 0.898,-0.104C0.903,-0.104 0.908,-0.107 0.913,-0.112C0.918,-0.117 0.928,-0.135 0.944,-0.166L0.968,-0.157L0.884,0C0.84,-0.015 0.803,-0.022 0.774,-0.022C0.741,-0.022 0.714,-0.016 0.693,-0.003C0.672,0.009 0.651,0.031 0.632,0.063L0.612,0.053C0.623,0.02 0.643,-0.022 0.671,-0.071C0.719,-0.152 0.754,-0.218 0.777,-0.27C0.748,-0.29 0.721,-0.303 0.696,-0.312C0.672,-0.32 0.646,-0.324 0.619,-0.324C0.596,-0.324 0.574,-0.321 0.554,-0.316C0.534,-0.31 0.511,-0.3 0.484,-0.285L0.484,-0.199C0.484,-0.146 0.481,-0.109 0.476,-0.086C0.47,-0.064 0.458,-0.041 0.44,-0.018C0.421,0.005 0.397,0.025 0.367,0.04C0.338,0.056 0.308,0.063 0.276,0.063C0.263,0.063 0.251,0.062 0.238,0.06C0.231,0.058 0.211,0.053 0.177,0.043C0.143,0.033 0.125,0.027 0.12,0.026C0.111,0.025 0.101,0.024 0.091,0.024C0.076,0.024 0.062,0.026 0.05,0.03C0.038,0.035 0.024,0.042 0.008,0.053L-0.006,0.041C0.027,-0.018 0.072,-0.047 0.129,-0.047C0.153,-0.047 0.182,-0.043 0.219,-0.035C0.242,-0.03 0.257,-0.028 0.265,-0.028C0.283,-0.028 0.298,-0.035 0.311,-0.049C0.323,-0.063 0.33,-0.081 0.33,-0.104C0.33,-0.132 0.32,-0.156 0.3,-0.176C0.28,-0.195 0.256,-0.205 0.228,-0.205C0.209,-0.205 0.189,-0.197 0.167,-0.181L0.153,-0.194C0.168,-0.212 0.182,-0.225 0.197,-0.233C0.211,-0.241 0.227,-0.245 0.245,-0.245C0.256,-0.245 0.266,-0.243 0.278,-0.24C0.289,-0.236 0.3,-0.231 0.313,-0.224C0.307,-0.252 0.297,-0.274 0.283,-0.29C0.259,-0.316 0.228,-0.33 0.192,-0.33C0.176,-0.33 0.163,-0.328 0.153,-0.325C0.145,-0.322 0.135,-0.316 0.124,-0.308L0.112,-0.325C0.129,-0.343 0.146,-0.355 0.16,-0.362C0.175,-0.369 0.191,-0.373 0.208,-0.373C0.223,-0.373 0.237,-0.37 0.25,-0.366C0.263,-0.362 0.28,-0.352 0.301,-0.338C0.301,-0.364 0.297,-0.385 0.288,-0.401C0.28,-0.416 0.265,-0.43 0.243,-0.443C0.221,-0.456 0.2,-0.462 0.18,-0.462C0.161,-0.462 0.143,-0.455 0.124,-0.442L0.112,-0.459C0.126,-0.475 0.14,-0.485 0.153,-0.491C0.169,-0.499 0.186,-0.503 0.205,-0.503C0.221,-0.503 0.235,-0.501 0.249,-0.496C0.263,-0.492 0.28,-0.482 0.301,-0.468L0.301,-0.577L0.643,-0.74ZM0.484,-0.477C0.515,-0.459 0.542,-0.447 0.564,-0.44C0.586,-0.433 0.61,-0.429 0.634,-0.429C0.662,-0.429 0.688,-0.434 0.713,-0.442C0.738,-0.451 0.767,-0.466 0.8,-0.489C0.782,-0.535 0.751,-0.573 0.708,-0.601C0.664,-0.629 0.615,-0.644 0.561,-0.644C0.537,-0.644 0.512,-0.639 0.484,-0.631L0.484,-0.477ZM0.461,-0.624L0.402,-0.594L0.402,-0.174C0.402,-0.125 0.397,-0.09 0.387,-0.07C0.377,-0.049 0.359,-0.029 0.331,-0.009C0.364,-0.012 0.388,-0.019 0.403,-0.03C0.425,-0.045 0.441,-0.064 0.449,-0.087C0.457,-0.11 0.461,-0.148 0.461,-0.203L0.461,-0.624ZM0.484,-0.311C0.513,-0.325 0.537,-0.334 0.557,-0.339C0.577,-0.345 0.598,-0.347 0.622,-0.347C0.651,-0.347 0.678,-0.343 0.703,-0.334C0.729,-0.326 0.756,-0.312 0.785,-0.292C0.794,-0.315 0.801,-0.337 0.806,-0.358C0.81,-0.379 0.813,-0.399 0.813,-0.418C0.813,-0.432 0.811,-0.448 0.807,-0.465C0.771,-0.442 0.741,-0.427 0.716,-0.418C0.69,-0.41 0.664,-0.406 0.637,-0.406C0.613,-0.406 0.59,-0.409 0.566,-0.416C0.543,-0.422 0.516,-0.434 0.484,-0.451L0.484,-0.311Z" style="fill-rule:nonzero;"/>
            </g>
        </g>
        <g transform="matrix(1,0,0,1,-5.07533,-26.1351)">
            <g transform="matrix(62.5,0,0,62.5,358.567,177.902)">
                <path d="M0.754,-0.73L0.772,-0.717C0.766,-0.686 0.756,-0.661 0.744,-0.643C0.733,-0.624 0.715,-0.61 0.692,-0.599C0.669,-0.589 0.643,-0.583 0.613,-0.583C0.597,-0.583 0.577,-0.584 0.555,-0.586L0.555,-0.093C0.604,-0.108 0.643,-0.127 0.672,-0.151C0.702,-0.174 0.729,-0.208 0.754,-0.252L0.772,-0.243C0.758,-0.2 0.742,-0.165 0.723,-0.139C0.692,-0.096 0.653,-0.062 0.605,-0.037C0.558,-0.012 0.502,0 0.439,0C0.378,0 0.321,-0.012 0.268,-0.035C0.237,-0.049 0.208,-0.068 0.183,-0.093C0.157,-0.118 0.136,-0.147 0.119,-0.183C0.103,-0.218 0.095,-0.258 0.095,-0.302C0.095,-0.347 0.104,-0.39 0.122,-0.431C0.139,-0.472 0.166,-0.511 0.201,-0.549C0.223,-0.572 0.254,-0.598 0.294,-0.627L0.233,-0.63C0.21,-0.631 0.185,-0.626 0.158,-0.615C0.13,-0.605 0.108,-0.59 0.093,-0.572C0.078,-0.554 0.064,-0.526 0.053,-0.49L0.034,-0.501C0.045,-0.547 0.06,-0.583 0.077,-0.609C0.101,-0.643 0.131,-0.67 0.17,-0.688C0.208,-0.707 0.252,-0.716 0.301,-0.716C0.335,-0.716 0.396,-0.709 0.482,-0.695C0.569,-0.681 0.628,-0.673 0.661,-0.673C0.683,-0.673 0.699,-0.677 0.711,-0.683C0.722,-0.69 0.737,-0.706 0.754,-0.73ZM0.349,-0.622L0.323,-0.624C0.28,-0.587 0.248,-0.549 0.227,-0.512C0.199,-0.461 0.186,-0.409 0.186,-0.356C0.186,-0.265 0.223,-0.19 0.298,-0.133C0.322,-0.153 0.336,-0.169 0.341,-0.181C0.347,-0.194 0.349,-0.219 0.349,-0.257L0.349,-0.622ZM0.532,-0.591C0.501,-0.595 0.474,-0.6 0.45,-0.604L0.45,-0.312C0.45,-0.278 0.449,-0.257 0.446,-0.247C0.443,-0.238 0.437,-0.227 0.427,-0.216C0.409,-0.196 0.372,-0.164 0.317,-0.12C0.345,-0.107 0.367,-0.098 0.384,-0.093C0.413,-0.085 0.441,-0.082 0.468,-0.082C0.483,-0.082 0.504,-0.083 0.532,-0.087L0.532,-0.591Z" style="fill-rule:nonzero;"/>
            </g>
        </g>
        <g transform="matrix(1,0,0,1,-5.07533,-26.1351)">
            <g transform="matrix(62.5,0,0,62.5,424.027,177.902)">
                <path d="M0.806,-0.73L0.828,-0.73C0.826,-0.701 0.822,-0.68 0.814,-0.665C0.804,-0.645 0.789,-0.629 0.768,-0.617C0.748,-0.605 0.725,-0.6 0.7,-0.6C0.674,-0.6 0.642,-0.607 0.606,-0.621L0.606,-0.492L0.759,-0.492L0.731,-0.419L0.606,-0.419L0.606,-0.187C0.606,-0.141 0.603,-0.108 0.596,-0.087C0.59,-0.066 0.578,-0.045 0.559,-0.026C0.541,-0.007 0.517,0.009 0.489,0.022C0.449,0.041 0.417,0.055 0.393,0.063L0.188,0.131C0.124,0.107 0.086,0.095 0.076,0.095C0.067,0.095 0.059,0.098 0.052,0.105C0.044,0.111 0.039,0.122 0.036,0.136L0.016,0.131C0.016,0.109 0.018,0.091 0.024,0.078C0.033,0.057 0.045,0.041 0.061,0.03C0.077,0.02 0.094,0.014 0.112,0.014C0.138,0.014 0.171,0.023 0.212,0.041C0.241,0.053 0.258,0.061 0.264,0.062C0.271,0.064 0.277,0.065 0.283,0.065C0.293,0.065 0.302,0.061 0.311,0.053C0.319,0.045 0.324,0.032 0.327,0.015C0.329,-0.002 0.331,-0.038 0.331,-0.092L0.331,-0.419L0.3,-0.419C0.25,-0.419 0.213,-0.414 0.189,-0.402C0.164,-0.391 0.143,-0.371 0.126,-0.344L0.107,-0.352C0.12,-0.395 0.137,-0.426 0.158,-0.444C0.194,-0.476 0.244,-0.492 0.307,-0.492L0.331,-0.492L0.331,-0.596L0.364,-0.594C0.401,-0.594 0.437,-0.602 0.472,-0.616C0.508,-0.631 0.538,-0.649 0.562,-0.669C0.578,-0.683 0.595,-0.704 0.613,-0.73C0.666,-0.696 0.71,-0.679 0.744,-0.679C0.759,-0.679 0.771,-0.683 0.782,-0.691C0.792,-0.699 0.8,-0.712 0.806,-0.73ZM0.506,-0.601C0.484,-0.589 0.459,-0.58 0.431,-0.574L0.431,-0.181C0.431,-0.167 0.43,-0.141 0.427,-0.104C0.426,-0.082 0.423,-0.065 0.419,-0.053C0.414,-0.037 0.406,-0.02 0.395,-0.005C0.384,0.01 0.366,0.029 0.341,0.053C0.383,0.038 0.417,0.019 0.443,-0.004C0.468,-0.027 0.485,-0.052 0.493,-0.079C0.502,-0.105 0.506,-0.145 0.506,-0.198L0.506,-0.601Z" style="fill-rule:nonzero;"/>
            </g>
        </g>
        <g transform="matrix(1,0,0,1,-5.07533,-26.1351)">
            <g transform="matrix(62.5,0,0,62.5,477.036,177.902)">
                <path d="M0.434,-0.73C0.49,-0.724 0.535,-0.716 0.567,-0.706C0.615,-0.69 0.657,-0.669 0.693,-0.64C0.729,-0.612 0.758,-0.579 0.778,-0.541C0.798,-0.502 0.809,-0.46 0.809,-0.416C0.809,-0.374 0.798,-0.333 0.776,-0.292C0.755,-0.252 0.718,-0.207 0.666,-0.156C0.614,-0.106 0.561,-0.067 0.508,-0.04C0.455,-0.013 0.403,0 0.352,0C0.298,0 0.245,-0.014 0.194,-0.041C0.144,-0.068 0.104,-0.105 0.077,-0.152C0.049,-0.199 0.035,-0.252 0.035,-0.309C0.035,-0.342 0.039,-0.374 0.045,-0.404C0.052,-0.434 0.064,-0.47 0.081,-0.51C0.113,-0.526 0.151,-0.548 0.194,-0.576C0.218,-0.591 0.276,-0.628 0.37,-0.687C0.389,-0.699 0.41,-0.713 0.434,-0.73ZM0.396,-0.633C0.374,-0.634 0.353,-0.635 0.331,-0.636L0.331,-0.347C0.331,-0.316 0.329,-0.294 0.325,-0.282C0.32,-0.269 0.313,-0.256 0.301,-0.243L0.211,-0.156C0.242,-0.13 0.27,-0.112 0.298,-0.101C0.325,-0.09 0.358,-0.083 0.396,-0.081L0.396,-0.633ZM0.417,-0.502C0.441,-0.482 0.463,-0.468 0.484,-0.459C0.505,-0.45 0.528,-0.445 0.553,-0.445C0.576,-0.445 0.597,-0.45 0.616,-0.459C0.635,-0.468 0.656,-0.482 0.677,-0.502C0.659,-0.527 0.641,-0.544 0.625,-0.556C0.596,-0.577 0.565,-0.594 0.531,-0.606C0.497,-0.618 0.459,-0.626 0.417,-0.631L0.417,-0.502ZM0.231,-0.572C0.203,-0.551 0.183,-0.534 0.171,-0.52C0.155,-0.501 0.142,-0.479 0.131,-0.452C0.121,-0.425 0.115,-0.396 0.115,-0.364C0.115,-0.295 0.142,-0.231 0.195,-0.171C0.21,-0.185 0.22,-0.199 0.224,-0.213C0.229,-0.227 0.231,-0.254 0.231,-0.294L0.231,-0.572ZM0.417,-0.299C0.441,-0.322 0.462,-0.338 0.482,-0.347C0.502,-0.356 0.525,-0.36 0.552,-0.36C0.579,-0.36 0.604,-0.355 0.626,-0.346C0.649,-0.336 0.672,-0.319 0.698,-0.295C0.707,-0.327 0.711,-0.355 0.711,-0.379C0.711,-0.401 0.709,-0.42 0.706,-0.436C0.703,-0.448 0.698,-0.463 0.69,-0.481C0.662,-0.458 0.637,-0.443 0.616,-0.434C0.595,-0.426 0.572,-0.422 0.547,-0.422C0.524,-0.422 0.503,-0.426 0.483,-0.433C0.464,-0.441 0.442,-0.455 0.417,-0.475L0.417,-0.299ZM0.417,-0.081C0.458,-0.083 0.492,-0.09 0.518,-0.101C0.557,-0.117 0.59,-0.14 0.619,-0.169C0.648,-0.198 0.671,-0.234 0.69,-0.275C0.645,-0.317 0.599,-0.338 0.552,-0.338C0.525,-0.338 0.499,-0.331 0.474,-0.316C0.456,-0.306 0.437,-0.288 0.417,-0.264L0.417,-0.081Z" style="fill-rule:nonzero;"/>
            </g>
        </g>
        <g transform="matrix(1,0,0,1,-5.07533,-26.1351)">
            <g transform="matrix(62.5,0,0,62.5,529.801,177.902)">
                <path d="M0.535,-0.726L0.703,-0.511L0.546,-0.406C0.591,-0.379 0.627,-0.347 0.654,-0.31C0.681,-0.274 0.702,-0.226 0.717,-0.168C0.723,-0.14 0.73,-0.12 0.738,-0.107C0.742,-0.098 0.752,-0.088 0.765,-0.077L0.814,-0.118L0.831,-0.101L0.712,0C0.688,-0.015 0.671,-0.031 0.661,-0.048C0.653,-0.059 0.64,-0.098 0.62,-0.164C0.609,-0.198 0.595,-0.228 0.579,-0.253C0.562,-0.278 0.545,-0.296 0.526,-0.309C0.507,-0.321 0.482,-0.333 0.451,-0.343L0.418,-0.321L0.418,-0.118C0.448,-0.108 0.479,-0.095 0.512,-0.077L0.562,-0.121L0.578,-0.104L0.451,0C0.405,-0.023 0.365,-0.04 0.331,-0.049C0.297,-0.059 0.263,-0.063 0.228,-0.063C0.185,-0.063 0.143,-0.056 0.103,-0.042C0.082,-0.034 0.058,-0.02 0.032,0L0.019,-0.012C0.051,-0.053 0.084,-0.083 0.117,-0.103C0.149,-0.123 0.19,-0.136 0.237,-0.143L0.237,-0.165C0.237,-0.196 0.233,-0.222 0.225,-0.242C0.217,-0.262 0.202,-0.283 0.181,-0.305C0.159,-0.327 0.136,-0.345 0.112,-0.359C0.097,-0.368 0.076,-0.376 0.048,-0.385L0.048,-0.405C0.074,-0.415 0.107,-0.433 0.145,-0.459L0.237,-0.521C0.237,-0.563 0.234,-0.593 0.228,-0.611C0.223,-0.629 0.211,-0.644 0.194,-0.656C0.177,-0.668 0.158,-0.674 0.137,-0.674C0.125,-0.674 0.113,-0.672 0.103,-0.668C0.092,-0.664 0.079,-0.657 0.064,-0.646L0.048,-0.658C0.073,-0.684 0.096,-0.701 0.116,-0.711C0.137,-0.72 0.162,-0.725 0.192,-0.725C0.225,-0.725 0.253,-0.718 0.276,-0.705C0.298,-0.691 0.315,-0.673 0.326,-0.65C0.332,-0.636 0.336,-0.616 0.337,-0.589L0.535,-0.726ZM0.469,-0.653L0.418,-0.618L0.418,-0.348L0.609,-0.476L0.469,-0.653ZM0.396,-0.603L0.337,-0.562L0.337,-0.139C0.356,-0.136 0.376,-0.132 0.396,-0.126L0.396,-0.603ZM0.237,-0.493L0.128,-0.42C0.149,-0.41 0.166,-0.4 0.18,-0.391C0.193,-0.381 0.212,-0.365 0.237,-0.342L0.237,-0.493Z" style="fill-rule:nonzero;"/>
            </g>
        </g>
        <g transform="matrix(1,0,0,1,-5.07533,-26.1351)">
            <g transform="matrix(62.5,0,0,62.5,582.566,177.902)">
                <path d="M0.282,-0.668L0.292,-0.653C0.238,-0.619 0.198,-0.579 0.173,-0.534C0.147,-0.49 0.134,-0.442 0.134,-0.391C0.134,-0.325 0.157,-0.262 0.202,-0.202C0.221,-0.218 0.232,-0.231 0.236,-0.241C0.24,-0.252 0.242,-0.279 0.242,-0.323L0.242,-0.548L0.455,-0.73C0.495,-0.711 0.528,-0.697 0.556,-0.69C0.583,-0.682 0.61,-0.679 0.636,-0.679C0.65,-0.679 0.667,-0.68 0.687,-0.683L0.699,-0.668L0.53,-0.498L0.662,-0.498L0.609,-0.405L0.423,-0.405L0.423,-0.088L0.455,-0.086C0.501,-0.086 0.547,-0.098 0.592,-0.121C0.627,-0.138 0.662,-0.165 0.698,-0.202L0.71,-0.183C0.673,-0.125 0.631,-0.081 0.585,-0.052C0.53,-0.017 0.466,0 0.395,0C0.283,0 0.194,-0.039 0.129,-0.116C0.077,-0.178 0.051,-0.25 0.051,-0.333C0.051,-0.384 0.062,-0.432 0.083,-0.476C0.104,-0.521 0.134,-0.561 0.172,-0.596C0.2,-0.62 0.236,-0.645 0.282,-0.668ZM0.401,-0.645L0.341,-0.594L0.341,-0.368C0.341,-0.343 0.34,-0.325 0.337,-0.316C0.334,-0.306 0.328,-0.295 0.318,-0.284C0.296,-0.259 0.262,-0.226 0.215,-0.187C0.243,-0.157 0.271,-0.135 0.299,-0.12C0.326,-0.105 0.361,-0.095 0.401,-0.09L0.401,-0.645ZM0.588,-0.59C0.554,-0.594 0.526,-0.6 0.504,-0.607C0.482,-0.614 0.455,-0.625 0.423,-0.641L0.423,-0.423L0.588,-0.59Z" style="fill-rule:nonzero;"/>
            </g>
        </g>
        <g transform="matrix(1,0,0,1,-5.07533,-26.1351)">
            <g transform="matrix(62.5,0,0,62.5,628.128,177.902)">
                <path d="M0.304,-0.579L0.609,-0.74C0.666,-0.657 0.694,-0.572 0.694,-0.483C0.694,-0.416 0.68,-0.355 0.65,-0.3C0.611,-0.225 0.531,-0.125 0.41,0C0.389,-0.014 0.371,-0.024 0.355,-0.029C0.34,-0.034 0.324,-0.037 0.307,-0.037C0.287,-0.037 0.268,-0.035 0.25,-0.03C0.232,-0.024 0.209,-0.015 0.182,0L0.167,-0.013C0.193,-0.062 0.211,-0.101 0.22,-0.128C0.228,-0.156 0.233,-0.181 0.233,-0.204C0.233,-0.239 0.223,-0.266 0.204,-0.288C0.185,-0.309 0.163,-0.319 0.138,-0.319C0.127,-0.319 0.118,-0.318 0.111,-0.314C0.105,-0.311 0.098,-0.305 0.092,-0.295L0.076,-0.307C0.083,-0.329 0.095,-0.346 0.109,-0.356C0.124,-0.367 0.141,-0.372 0.161,-0.372C0.173,-0.372 0.185,-0.37 0.196,-0.366C0.207,-0.362 0.222,-0.353 0.24,-0.34C0.237,-0.45 0.214,-0.537 0.172,-0.601C0.149,-0.637 0.124,-0.655 0.097,-0.655C0.083,-0.655 0.072,-0.65 0.063,-0.641C0.052,-0.628 0.043,-0.605 0.038,-0.573L0.019,-0.579C0.021,-0.617 0.027,-0.647 0.036,-0.669C0.045,-0.691 0.058,-0.709 0.076,-0.721C0.094,-0.734 0.112,-0.74 0.132,-0.74C0.162,-0.74 0.192,-0.728 0.223,-0.704C0.253,-0.68 0.28,-0.638 0.304,-0.579ZM0.312,-0.556C0.323,-0.52 0.33,-0.486 0.334,-0.453C0.378,-0.439 0.417,-0.432 0.453,-0.432C0.498,-0.432 0.546,-0.443 0.596,-0.464C0.593,-0.5 0.586,-0.534 0.575,-0.566C0.564,-0.599 0.547,-0.633 0.524,-0.669L0.312,-0.556ZM0.596,-0.44C0.566,-0.428 0.541,-0.419 0.52,-0.415C0.499,-0.41 0.476,-0.408 0.452,-0.408C0.415,-0.408 0.376,-0.415 0.335,-0.43C0.337,-0.414 0.337,-0.402 0.337,-0.395C0.337,-0.363 0.332,-0.327 0.322,-0.286C0.341,-0.292 0.36,-0.297 0.377,-0.3C0.395,-0.303 0.411,-0.304 0.427,-0.304C0.47,-0.304 0.514,-0.294 0.561,-0.272C0.582,-0.334 0.594,-0.39 0.596,-0.44ZM0.551,-0.252C0.523,-0.264 0.5,-0.272 0.483,-0.276C0.466,-0.28 0.447,-0.282 0.426,-0.282C0.41,-0.282 0.393,-0.281 0.374,-0.277C0.356,-0.274 0.336,-0.268 0.315,-0.261C0.305,-0.227 0.293,-0.196 0.28,-0.17C0.259,-0.126 0.234,-0.082 0.204,-0.038C0.24,-0.064 0.269,-0.083 0.294,-0.093C0.327,-0.106 0.358,-0.112 0.388,-0.112C0.409,-0.112 0.434,-0.108 0.462,-0.099C0.485,-0.129 0.502,-0.155 0.515,-0.177C0.528,-0.199 0.54,-0.224 0.551,-0.252Z" style="fill-rule:nonzero;"/>
            </g>
        </g>
        <g transform="matrix(1,0,0,1,-5.07533,-26.1351)">
            <g transform="matrix(62.5,0,0,62.5,673.691,177.902)">
                <path d="M0.282,-0.668L0.292,-0.653C0.238,-0.619 0.198,-0.579 0.173,-0.534C0.147,-0.49 0.134,-0.442 0.134,-0.391C0.134,-0.325 0.157,-0.262 0.202,-0.202C0.221,-0.218 0.232,-0.231 0.236,-0.241C0.24,-0.252 0.242,-0.279 0.242,-0.323L0.242,-0.548L0.455,-0.73C0.495,-0.711 0.528,-0.697 0.556,-0.69C0.583,-0.682 0.61,-0.679 0.636,-0.679C0.65,-0.679 0.667,-0.68 0.687,-0.683L0.699,-0.668L0.53,-0.498L0.662,-0.498L0.609,-0.405L0.423,-0.405L0.423,-0.088L0.455,-0.086C0.501,-0.086 0.547,-0.098 0.592,-0.121C0.627,-0.138 0.662,-0.165 0.698,-0.202L0.71,-0.183C0.673,-0.125 0.631,-0.081 0.585,-0.052C0.53,-0.017 0.466,0 0.395,0C0.283,0 0.194,-0.039 0.129,-0.116C0.077,-0.178 0.051,-0.25 0.051,-0.333C0.051,-0.384 0.062,-0.432 0.083,-0.476C0.104,-0.521 0.134,-0.561 0.172,-0.596C0.2,-0.62 0.236,-0.645 0.282,-0.668ZM0.401,-0.645L0.341,-0.594L0.341,-0.368C0.341,-0.343 0.34,-0.325 0.337,-0.316C0.334,-0.306 0.328,-0.295 0.318,-0.284C0.296,-0.259 0.262,-0.226 0.215,-0.187C0.243,-0.157 0.271,-0.135 0.299,-0.12C0.326,-0.105 0.361,-0.095 0.401,-0.09L0.401,-0.645ZM0.588,-0.59C0.554,-0.594 0.526,-0.6 0.504,-0.607C0.482,-0.614 0.455,-0.625 0.423,-0.641L0.423,-0.423L0.588,-0.59Z" style="fill-rule:nonzero;"/>
            </g>
        </g>
        <g transform="matrix(1,0,0,1,-5.07533,-26.1351)">
            <g transform="matrix(62.5,0,0,62.5,719.254,177.902)">
                <path d="M0.535,-0.726L0.703,-0.511L0.546,-0.406C0.591,-0.379 0.627,-0.347 0.654,-0.31C0.681,-0.274 0.702,-0.226 0.717,-0.168C0.723,-0.14 0.73,-0.12 0.738,-0.107C0.742,-0.098 0.752,-0.088 0.765,-0.077L0.814,-0.118L0.831,-0.101L0.712,0C0.688,-0.015 0.671,-0.031 0.661,-0.048C0.653,-0.059 0.64,-0.098 0.62,-0.164C0.609,-0.198 0.595,-0.228 0.579,-0.253C0.562,-0.278 0.545,-0.296 0.526,-0.309C0.507,-0.321 0.482,-0.333 0.451,-0.343L0.418,-0.321L0.418,-0.118C0.448,-0.108 0.479,-0.095 0.512,-0.077L0.562,-0.121L0.578,-0.104L0.451,0C0.405,-0.023 0.365,-0.04 0.331,-0.049C0.297,-0.059 0.263,-0.063 0.228,-0.063C0.185,-0.063 0.143,-0.056 0.103,-0.042C0.082,-0.034 0.058,-0.02 0.032,0L0.019,-0.012C0.051,-0.053 0.084,-0.083 0.117,-0.103C0.149,-0.123 0.19,-0.136 0.237,-0.143L0.237,-0.165C0.237,-0.196 0.233,-0.222 0.225,-0.242C0.217,-0.262 0.202,-0.283 0.181,-0.305C0.159,-0.327 0.136,-0.345 0.112,-0.359C0.097,-0.368 0.076,-0.376 0.048,-0.385L0.048,-0.405C0.074,-0.415 0.107,-0.433 0.145,-0.459L0.237,-0.521C0.237,-0.563 0.234,-0.593 0.228,-0.611C0.223,-0.629 0.211,-0.644 0.194,-0.656C0.177,-0.668 0.158,-0.674 0.137,-0.674C0.125,-0.674 0.113,-0.672 0.103,-0.668C0.092,-0.664 0.079,-0.657 0.064,-0.646L0.048,-0.658C0.073,-0.684 0.096,-0.701 0.116,-0.711C0.137,-0.72 0.162,-0.725 0.192,-0.725C0.225,-0.725 0.253,-0.718 0.276,-0.705C0.298,-0.691 0.315,-0.673 0.326,-0.65C0.332,-0.636 0.336,-0.616 0.337,-0.589L0.535,-0.726ZM0.469,-0.653L0.418,-0.618L0.418,-0.348L0.609,-0.476L0.469,-0.653ZM0.396,-0.603L0.337,-0.562L0.337,-0.139C0.356,-0.136 0.376,-0.132 0.396,-0.126L0.396,-0.603ZM0.237,-0.493L0.128,-0.42C0.149,-0.41 0.166,-0.4 0.18,-0.391C0.193,-0.381 0.212,-0.365 0.237,-0.342L0.237,-0.493Z" style="fill-rule:nonzero;"/>
            </g>
        </g>
    </g>
</svg>
