<?xml version="1.0" encoding="UTF-8" standalone="no"?>
<!DOCTYPE svg PUBLIC "-//W3C//DTD SVG 1.1//EN" "http://www.w3.org/Graphics/SVG/1.1/DTD/svg11.dtd">
<svg width="100%" height="100%" viewBox="0 0 702 185" version="1.1" xmlns="http://www.w3.org/2000/svg" xmlns:xlink="http://www.w3.org/1999/xlink" xml:space="preserve" xmlns:serif="http://www.serif.com/" style="fill:#733373;fill-rule:evenodd;clip-rule:evenodd;stroke-linejoin:round;stroke-miterlimit:2;">
    <g transform="matrix(1,0,0,1,-523.184,-983.267)">
        <g transform="matrix(1,0,0,1,-573.949,510.392)">
            <g transform="matrix(300,0,0,300,1092.61,653.755)">
                <path d="M0.015,-0.05L0.015,0L0.25,0L0.25,-0.05L0.158,-0.05L0.158,-0.279L0.443,-0.279L0.443,-0.05L0.351,-0.05L0.351,0L0.585,0L0.585,-0.05L0.493,-0.05L0.493,-0.54L0.585,-0.54L0.585,-0.59L0.351,-0.59L0.351,-0.54L0.443,-0.54L0.443,-0.329L0.158,-0.329L0.158,-0.54L0.25,-0.54L0.25,-0.59L0.015,-0.59L0.015,-0.54L0.108,-0.54L0.108,-0.05L0.015,-0.05Z" style="fill-rule:nonzero;"/>
            </g>
            <g transform="matrix(300,0,0,300,1272.61,653.755)">
                <path d="M0.296,0.013C0.451,0.013 0.573,-0.104 0.573,-0.29C0.573,-0.476 0.451,-0.603 0.296,-0.603C0.15,-0.603 0.028,-0.476 0.028,-0.29C0.028,-0.104 0.15,0.013 0.296,0.013ZM0.296,-0.037C0.181,-0.037 0.078,-0.132 0.078,-0.29C0.078,-0.448 0.181,-0.554 0.296,-0.553C0.419,-0.552 0.524,-0.448 0.523,-0.29C0.522,-0.132 0.419,-0.037 0.296,-0.037Z" style="fill-rule:nonzero;"/>
            </g>
            <g transform="matrix(300,0,0,300,1452.61,653.755)">
                <path d="M0.024,-0.59L0.024,-0.54L0.085,-0.54L0.085,-0.05L0.025,-0.05L0.025,0L0.187,0L0.187,-0.05L0.135,-0.05L0.135,-0.502L0.278,-0.05L0.326,-0.05L0.469,-0.502L0.469,-0.05L0.417,-0.05L0.417,0L0.579,0L0.579,-0.05L0.519,-0.05L0.519,-0.54L0.58,-0.54L0.58,-0.59L0.445,-0.59L0.302,-0.138L0.159,-0.59L0.024,-0.59Z" style="fill-rule:nonzero;"/>
            </g>
            <g transform="matrix(300,0,0,300,1632.61,653.755)">
                <path d="M0.204,-0.269L0.204,-0.05L0.491,-0.05L0.505,-0.223L0.554,-0.218L0.534,0L0.03,0L0.03,-0.05L0.154,-0.05L0.154,-0.54L0.03,-0.54L0.03,-0.59L0.534,-0.59L0.554,-0.373L0.505,-0.368L0.491,-0.54L0.204,-0.54L0.204,-0.318L0.356,-0.318L0.356,-0.427L0.406,-0.427L0.406,-0.162L0.356,-0.162L0.356,-0.269L0.204,-0.269Z" style="fill-rule:nonzero;"/>
            </g>
        </g>
    </g>
</svg>
