<?xml version="1.0" encoding="UTF-8" standalone="no"?>
<!DOCTYPE svg PUBLIC "-//W3C//DTD SVG 1.1//EN" "http://www.w3.org/Graphics/SVG/1.1/DTD/svg11.dtd">
<svg width="100%" height="100%" viewBox="0 0 1749 95" version="1.1" xmlns="http://www.w3.org/2000/svg" xmlns:xlink="http://www.w3.org/1999/xlink" xml:space="preserve" xmlns:serif="http://www.serif.com/" style="fill-rule:evenodd;clip-rule:evenodd;stroke-linejoin:round;stroke-miterlimit:2;">
    <g id="shade" transform="matrix(1.23181,0,0,1.29012,-421.745,-698.269)">
        <g transform="matrix(83.3333,0,0,83.3333,348.206,603.32)">
            <path d="M0.44,0.119C0.454,0.119 0.465,0.115 0.471,0.109L0.601,0.001C0.61,-0.007 0.615,-0.018 0.615,-0.036L0.615,-0.153C0.615,-0.185 0.601,-0.199 0.569,-0.199L0.431,-0.199L0.52,-0.274C0.529,-0.282 0.534,-0.293 0.534,-0.311L0.534,-0.418C0.534,-0.439 0.528,-0.452 0.515,-0.459L0.601,-0.53C0.61,-0.538 0.615,-0.549 0.615,-0.567L0.615,-0.684C0.615,-0.716 0.601,-0.73 0.569,-0.73L0.105,-0.73C0.091,-0.73 0.08,-0.727 0.073,-0.721L-0.056,-0.612C-0.065,-0.604 -0.07,-0.593 -0.07,-0.575L-0.07,0.073C-0.07,0.105 -0.056,0.119 -0.024,0.119L0.44,0.119Z" style="fill:rgb(212,15,125);fill-rule:nonzero;"/>
        </g>
        <g transform="matrix(83.3333,0,0,83.3333,402.706,603.32)">
            <path d="M0.106,0.119L0.366,0.119C0.384,0.119 0.397,0.115 0.408,0.105L0.537,-0.002C0.544,-0.008 0.551,-0.017 0.555,-0.029L0.653,-0.274C0.678,-0.336 0.686,-0.355 0.686,-0.42L0.686,-0.684C0.686,-0.716 0.673,-0.73 0.64,-0.73L0.483,-0.73C0.469,-0.73 0.458,-0.727 0.451,-0.721L0.322,-0.612C0.313,-0.604 0.308,-0.593 0.308,-0.575L0.308,-0.363L0.305,-0.37C0.301,-0.384 0.298,-0.395 0.298,-0.408L0.298,-0.684C0.298,-0.715 0.281,-0.73 0.249,-0.73L0.09,-0.73C0.076,-0.73 0.065,-0.727 0.058,-0.721L-0.071,-0.612C-0.08,-0.604 -0.085,-0.593 -0.085,-0.575L-0.085,-0.311C-0.085,-0.246 -0.077,-0.227 -0.052,-0.165L0.046,0.08C0.058,0.109 0.075,0.119 0.106,0.119Z" style="fill:rgb(212,15,125);fill-rule:nonzero;"/>
        </g>
        <g transform="matrix(83.3333,0,0,83.3333,463.539,603.32)">
            <path d="M0.44,0.119C0.454,0.119 0.465,0.115 0.471,0.109L0.601,0.001C0.61,-0.007 0.615,-0.018 0.615,-0.036L0.615,-0.153C0.615,-0.185 0.601,-0.199 0.569,-0.199L0.431,-0.199L0.52,-0.274C0.529,-0.282 0.534,-0.293 0.534,-0.311L0.534,-0.418C0.534,-0.439 0.528,-0.452 0.515,-0.459L0.601,-0.53C0.61,-0.538 0.615,-0.549 0.615,-0.567L0.615,-0.684C0.615,-0.716 0.601,-0.73 0.569,-0.73L0.105,-0.73C0.091,-0.73 0.08,-0.727 0.073,-0.721L-0.056,-0.612C-0.065,-0.604 -0.07,-0.593 -0.07,-0.575L-0.07,0.073C-0.07,0.105 -0.056,0.119 -0.024,0.119L0.44,0.119Z" style="fill:rgb(212,15,125);fill-rule:nonzero;"/>
        </g>
        <g transform="matrix(83.3333,0,0,83.3333,518.039,603.32)">
            <path d="M0.291,0.001C0.3,-0.007 0.305,-0.018 0.305,-0.036L0.305,-0.113L0.306,-0.113C0.327,-0.113 0.334,-0.102 0.334,-0.08L0.334,0.073C0.334,0.105 0.348,0.119 0.38,0.119L0.535,0.119C0.549,0.119 0.56,0.115 0.566,0.109L0.696,0.001C0.705,-0.007 0.71,-0.018 0.71,-0.036L0.71,-0.248C0.71,-0.327 0.669,-0.38 0.606,-0.398L0.607,-0.398C0.634,-0.421 0.645,-0.458 0.645,-0.507L0.645,-0.553C0.645,-0.657 0.597,-0.73 0.438,-0.73L0.105,-0.73C0.091,-0.73 0.08,-0.727 0.073,-0.721L-0.056,-0.612C-0.065,-0.604 -0.07,-0.593 -0.07,-0.575L-0.07,0.073C-0.07,0.105 -0.056,0.119 -0.024,0.119L0.13,0.119C0.144,0.119 0.155,0.115 0.161,0.109L0.291,0.001Z" style="fill:rgb(212,15,125);fill-rule:nonzero;"/>
        </g>
        <g transform="matrix(83.3333,0,0,83.3333,577.456,603.32)">
            <path d="M0.305,0.119C0.319,0.119 0.33,0.115 0.336,0.109L0.466,0.001C0.475,-0.007 0.48,-0.018 0.48,-0.036L0.48,-0.16L0.63,-0.363C0.662,-0.406 0.67,-0.427 0.67,-0.492L0.67,-0.684C0.67,-0.716 0.656,-0.73 0.624,-0.73L0.475,-0.73C0.461,-0.73 0.45,-0.727 0.443,-0.721L0.314,-0.612C0.305,-0.604 0.3,-0.593 0.3,-0.575L0.3,-0.466L0.288,-0.483C0.281,-0.496 0.281,-0.508 0.281,-0.52L0.281,-0.684C0.281,-0.716 0.267,-0.73 0.235,-0.73L0.081,-0.73C0.067,-0.73 0.056,-0.727 0.049,-0.721L-0.08,-0.612C-0.089,-0.604 -0.094,-0.593 -0.094,-0.575L-0.094,-0.383C-0.094,-0.318 -0.086,-0.297 -0.054,-0.254L0.097,-0.052L0.097,0.073C0.097,0.105 0.11,0.119 0.143,0.119L0.305,0.119Z" style="fill:rgb(212,15,125);fill-rule:nonzero;"/>
        </g>
        <g transform="matrix(83.3333,0,0,83.3333,636.206,603.32)">
            <path d="M0.28,0.119C0.294,0.119 0.305,0.115 0.311,0.109L0.441,0.001C0.45,-0.007 0.455,-0.018 0.455,-0.036L0.455,-0.408L0.463,-0.408C0.477,-0.408 0.488,-0.412 0.494,-0.418L0.624,-0.526C0.633,-0.534 0.638,-0.545 0.638,-0.563L0.638,-0.684C0.638,-0.716 0.624,-0.73 0.592,-0.73L0.064,-0.73C0.05,-0.73 0.039,-0.727 0.032,-0.721L-0.097,-0.612C-0.106,-0.604 -0.111,-0.593 -0.111,-0.575L-0.111,-0.454C-0.111,-0.422 -0.097,-0.408 -0.065,-0.408L0.072,-0.408L0.072,0.073C0.072,0.105 0.086,0.119 0.118,0.119L0.28,0.119Z" style="fill:rgb(212,15,125);fill-rule:nonzero;"/>
        </g>
        <g transform="matrix(83.3333,0,0,83.3333,690.872,603.32)">
            <path d="M0.292,0.001C0.301,-0.007 0.306,-0.018 0.306,-0.036L0.306,-0.139L0.324,-0.139L0.324,0.073C0.324,0.105 0.338,0.119 0.37,0.119L0.525,0.119C0.539,0.119 0.55,0.115 0.556,0.109L0.686,0.001C0.695,-0.007 0.7,-0.018 0.7,-0.036L0.7,-0.684C0.7,-0.716 0.686,-0.73 0.654,-0.73L0.499,-0.73C0.485,-0.73 0.474,-0.727 0.467,-0.721L0.338,-0.612C0.329,-0.604 0.324,-0.593 0.324,-0.575L0.324,-0.477L0.306,-0.477L0.306,-0.684C0.306,-0.716 0.292,-0.73 0.26,-0.73L0.105,-0.73C0.091,-0.73 0.08,-0.727 0.073,-0.721L-0.056,-0.612C-0.065,-0.604 -0.07,-0.593 -0.07,-0.575L-0.07,0.073C-0.07,0.105 -0.056,0.119 -0.024,0.119L0.131,0.119C0.145,0.119 0.156,0.115 0.162,0.109L0.292,0.001Z" style="fill:rgb(212,15,125);fill-rule:nonzero;"/>
        </g>
        <g transform="matrix(83.3333,0,0,83.3333,754.122,603.32)">
            <path d="M0.386,0.119C0.4,0.119 0.411,0.115 0.417,0.109L0.547,0.001C0.556,-0.007 0.561,-0.018 0.561,-0.036L0.561,-0.155C0.561,-0.187 0.547,-0.201 0.515,-0.201L0.428,-0.201L0.428,-0.426L0.547,-0.526C0.556,-0.534 0.561,-0.545 0.561,-0.563L0.561,-0.684C0.561,-0.716 0.547,-0.73 0.515,-0.73L0.089,-0.73C0.075,-0.73 0.064,-0.727 0.057,-0.721L-0.072,-0.612C-0.081,-0.604 -0.086,-0.593 -0.086,-0.575L-0.086,-0.454C-0.086,-0.422 -0.072,-0.408 -0.04,-0.408L0.049,-0.408L0.049,-0.185L-0.072,-0.083C-0.081,-0.075 -0.086,-0.064 -0.086,-0.046L-0.086,0.073C-0.086,0.105 -0.072,0.119 -0.04,0.119L0.386,0.119Z" style="fill:rgb(212,15,125);fill-rule:nonzero;"/>
        </g>
        <g transform="matrix(83.3333,0,0,83.3333,804.539,603.32)">
            <path d="M0.287,0.001C0.296,-0.007 0.301,-0.018 0.301,-0.036L0.301,-0.073L0.323,-0.046L0.323,0.073C0.323,0.105 0.337,0.119 0.369,0.119L0.519,0.119C0.533,0.119 0.544,0.115 0.55,0.109L0.68,0.001C0.689,-0.007 0.694,-0.018 0.694,-0.036L0.694,-0.684C0.694,-0.716 0.68,-0.73 0.648,-0.73L0.498,-0.73C0.484,-0.73 0.473,-0.727 0.466,-0.721L0.345,-0.62L0.276,-0.7C0.256,-0.722 0.238,-0.73 0.209,-0.73L0.105,-0.73C0.091,-0.73 0.08,-0.727 0.073,-0.721L-0.056,-0.612C-0.065,-0.604 -0.07,-0.593 -0.07,-0.575L-0.07,0.073C-0.07,0.105 -0.056,0.119 -0.024,0.119L0.126,0.119C0.14,0.119 0.151,0.115 0.157,0.109L0.287,0.001Z" style="fill:rgb(212,15,125);fill-rule:nonzero;"/>
        </g>
        <g transform="matrix(83.3333,0,0,83.3333,867.289,603.32)">
            <path d="M0.49,0.119C0.504,0.119 0.515,0.115 0.521,0.109L0.651,0.001C0.66,-0.007 0.665,-0.018 0.665,-0.036L0.665,-0.345C0.665,-0.377 0.651,-0.391 0.619,-0.391L0.464,-0.391C0.45,-0.391 0.439,-0.388 0.432,-0.382L0.303,-0.273C0.3,-0.27 0.297,-0.267 0.295,-0.264L0.295,-0.408L0.425,-0.408C0.439,-0.408 0.45,-0.412 0.456,-0.418L0.586,-0.526C0.595,-0.534 0.6,-0.545 0.6,-0.563L0.6,-0.684C0.6,-0.716 0.586,-0.73 0.554,-0.73L0.304,-0.73C0.217,-0.73 0.153,-0.713 0.111,-0.678L-0.018,-0.569C-0.06,-0.533 -0.081,-0.481 -0.081,-0.407L-0.081,-0.125C-0.081,0.02 -0.001,0.119 0.175,0.119L0.49,0.119Z" style="fill:rgb(212,15,125);fill-rule:nonzero;"/>
        </g>
        <g transform="matrix(83.3333,0,0,83.3333,945.039,603.32)">
            <path d="M0.386,0.119C0.4,0.119 0.411,0.115 0.417,0.109L0.547,0.001C0.556,-0.007 0.561,-0.018 0.561,-0.036L0.561,-0.155C0.561,-0.187 0.547,-0.201 0.515,-0.201L0.428,-0.201L0.428,-0.426L0.547,-0.526C0.556,-0.534 0.561,-0.545 0.561,-0.563L0.561,-0.684C0.561,-0.716 0.547,-0.73 0.515,-0.73L0.089,-0.73C0.075,-0.73 0.064,-0.727 0.057,-0.721L-0.072,-0.612C-0.081,-0.604 -0.086,-0.593 -0.086,-0.575L-0.086,-0.454C-0.086,-0.422 -0.072,-0.408 -0.04,-0.408L0.049,-0.408L0.049,-0.185L-0.072,-0.083C-0.081,-0.075 -0.086,-0.064 -0.086,-0.046L-0.086,0.073C-0.086,0.105 -0.072,0.119 -0.04,0.119L0.386,0.119Z" style="fill:rgb(212,15,125);fill-rule:nonzero;"/>
        </g>
        <g transform="matrix(83.3333,0,0,83.3333,995.456,603.32)">
            <path d="M-0.042,0.119L0.274,0.119C0.341,0.119 0.395,0.102 0.432,0.071L0.561,-0.037C0.6,-0.069 0.62,-0.116 0.62,-0.176L0.62,-0.281C0.62,-0.389 0.565,-0.434 0.48,-0.453L0.57,-0.528C0.579,-0.536 0.584,-0.547 0.584,-0.565L0.584,-0.684C0.584,-0.716 0.57,-0.73 0.538,-0.73L0.258,-0.73C0.19,-0.73 0.136,-0.713 0.1,-0.683L-0.03,-0.574C-0.068,-0.542 -0.088,-0.495 -0.088,-0.435L-0.088,-0.33C-0.088,-0.233 -0.045,-0.187 0.026,-0.165L-0.074,-0.081C-0.083,-0.073 -0.088,-0.062 -0.088,-0.044L-0.088,0.073C-0.088,0.105 -0.074,0.119 -0.042,0.119Z" style="fill:rgb(212,15,125);fill-rule:nonzero;"/>
        </g>
        <g transform="matrix(83.3333,0,0,83.3333,1068.37,603.32)">
            <path d="M0.131,0.119C0.145,0.119 0.156,0.115 0.162,0.109L0.292,0.001C0.301,-0.007 0.306,-0.018 0.306,-0.036L0.306,-0.084C0.382,-0.087 0.434,-0.106 0.467,-0.134L0.597,-0.242C0.641,-0.279 0.657,-0.333 0.657,-0.397L0.657,-0.525C0.657,-0.646 0.602,-0.73 0.411,-0.73L0.105,-0.73C0.091,-0.73 0.08,-0.727 0.073,-0.721L-0.056,-0.612C-0.065,-0.604 -0.07,-0.593 -0.07,-0.575L-0.07,0.073C-0.07,0.105 -0.056,0.119 -0.024,0.119L0.131,0.119Z" style="fill:rgb(212,15,125);fill-rule:nonzero;"/>
        </g>
        <g transform="matrix(83.3333,0,0,83.3333,1125.21,603.32)">
            <path d="M0.44,0.119C0.454,0.119 0.465,0.115 0.471,0.109L0.601,0.001C0.61,-0.007 0.615,-0.018 0.615,-0.036L0.615,-0.153C0.615,-0.185 0.601,-0.199 0.569,-0.199L0.431,-0.199L0.52,-0.274C0.529,-0.282 0.534,-0.293 0.534,-0.311L0.534,-0.418C0.534,-0.439 0.528,-0.452 0.515,-0.459L0.601,-0.53C0.61,-0.538 0.615,-0.549 0.615,-0.567L0.615,-0.684C0.615,-0.716 0.601,-0.73 0.569,-0.73L0.105,-0.73C0.091,-0.73 0.08,-0.727 0.073,-0.721L-0.056,-0.612C-0.065,-0.604 -0.07,-0.593 -0.07,-0.575L-0.07,0.073C-0.07,0.105 -0.056,0.119 -0.024,0.119L0.44,0.119Z" style="fill:rgb(212,15,125);fill-rule:nonzero;"/>
        </g>
        <g transform="matrix(83.3333,0,0,83.3333,1179.71,603.32)">
            <path d="M0.291,0.001C0.3,-0.007 0.305,-0.018 0.305,-0.036L0.305,-0.113L0.306,-0.113C0.327,-0.113 0.334,-0.102 0.334,-0.08L0.334,0.073C0.334,0.105 0.348,0.119 0.38,0.119L0.535,0.119C0.549,0.119 0.56,0.115 0.566,0.109L0.696,0.001C0.705,-0.007 0.71,-0.018 0.71,-0.036L0.71,-0.248C0.71,-0.327 0.669,-0.38 0.606,-0.398L0.607,-0.398C0.634,-0.421 0.645,-0.458 0.645,-0.507L0.645,-0.553C0.645,-0.657 0.597,-0.73 0.438,-0.73L0.105,-0.73C0.091,-0.73 0.08,-0.727 0.073,-0.721L-0.056,-0.612C-0.065,-0.604 -0.07,-0.593 -0.07,-0.575L-0.07,0.073C-0.07,0.105 -0.056,0.119 -0.024,0.119L0.13,0.119C0.144,0.119 0.155,0.115 0.161,0.109L0.291,0.001Z" style="fill:rgb(212,15,125);fill-rule:nonzero;"/>
        </g>
        <g transform="matrix(83.3333,0,0,83.3333,1241.62,603.32)">
            <path d="M0.131,0.119C0.145,0.119 0.156,0.115 0.162,0.109L0.292,0.001C0.301,-0.007 0.306,-0.018 0.306,-0.036L0.306,-0.114L0.341,-0.114C0.355,-0.114 0.366,-0.118 0.372,-0.124L0.502,-0.232C0.511,-0.24 0.516,-0.251 0.516,-0.269L0.516,-0.389C0.516,-0.421 0.502,-0.435 0.471,-0.435L0.583,-0.528C0.592,-0.536 0.597,-0.547 0.597,-0.565L0.597,-0.684C0.597,-0.716 0.583,-0.73 0.551,-0.73L0.105,-0.73C0.091,-0.73 0.08,-0.727 0.073,-0.721L-0.056,-0.612C-0.065,-0.604 -0.07,-0.593 -0.07,-0.575L-0.07,0.073C-0.07,0.105 -0.056,0.119 -0.024,0.119L0.131,0.119Z" style="fill:rgb(212,15,125);fill-rule:nonzero;"/>
        </g>
        <g transform="matrix(83.3333,0,0,83.3333,1292.71,603.32)">
            <path d="M0.5,0.071L0.629,-0.037C0.674,-0.075 0.689,-0.127 0.689,-0.189L0.689,-0.53C0.689,-0.656 0.631,-0.745 0.369,-0.745C0.235,-0.745 0.156,-0.722 0.109,-0.682L-0.021,-0.574C-0.066,-0.536 -0.081,-0.483 -0.081,-0.421L-0.081,-0.11C-0.081,0.016 -0.022,0.134 0.24,0.134C0.373,0.134 0.453,0.111 0.5,0.071ZM0.295,-0.225L0.295,-0.414C0.31,-0.408 0.314,-0.398 0.314,-0.385L0.314,-0.195C0.299,-0.202 0.295,-0.212 0.295,-0.225Z" style="fill:rgb(212,15,125);fill-rule:nonzero;"/>
        </g>
        <g transform="matrix(83.3333,0,0,83.3333,1354.12,603.32)">
            <path d="M0.291,0.001C0.3,-0.007 0.305,-0.018 0.305,-0.036L0.305,-0.113L0.306,-0.113C0.327,-0.113 0.334,-0.102 0.334,-0.08L0.334,0.073C0.334,0.105 0.348,0.119 0.38,0.119L0.535,0.119C0.549,0.119 0.56,0.115 0.566,0.109L0.696,0.001C0.705,-0.007 0.71,-0.018 0.71,-0.036L0.71,-0.248C0.71,-0.327 0.669,-0.38 0.606,-0.398L0.607,-0.398C0.634,-0.421 0.645,-0.458 0.645,-0.507L0.645,-0.553C0.645,-0.657 0.597,-0.73 0.438,-0.73L0.105,-0.73C0.091,-0.73 0.08,-0.727 0.073,-0.721L-0.056,-0.612C-0.065,-0.604 -0.07,-0.593 -0.07,-0.575L-0.07,0.073C-0.07,0.105 -0.056,0.119 -0.024,0.119L0.13,0.119C0.144,0.119 0.155,0.115 0.161,0.109L0.291,0.001Z" style="fill:rgb(212,15,125);fill-rule:nonzero;"/>
        </g>
        <g transform="matrix(83.3333,0,0,83.3333,1416.04,603.32)">
            <path d="M0.286,0.001C0.295,-0.007 0.3,-0.018 0.3,-0.036L0.3,-0.128L0.313,-0.128C0.332,-0.128 0.345,-0.133 0.356,-0.142L0.415,-0.191L0.415,0.073C0.415,0.105 0.428,0.119 0.461,0.119L0.615,0.119C0.629,0.119 0.64,0.115 0.646,0.109L0.776,0.001C0.785,-0.007 0.79,-0.018 0.79,-0.036L0.79,-0.684C0.79,-0.716 0.776,-0.73 0.744,-0.73L0.582,-0.73C0.566,-0.73 0.556,-0.726 0.545,-0.718L0.416,-0.61C0.409,-0.604 0.403,-0.596 0.398,-0.586L0.389,-0.57L0.321,-0.695C0.306,-0.721 0.291,-0.73 0.266,-0.73L0.105,-0.73C0.091,-0.73 0.08,-0.727 0.073,-0.721L-0.056,-0.612C-0.065,-0.604 -0.07,-0.593 -0.07,-0.575L-0.07,0.073C-0.07,0.105 -0.056,0.119 -0.024,0.119L0.125,0.119C0.139,0.119 0.15,0.115 0.156,0.109L0.286,0.001Z" style="fill:rgb(212,15,125);fill-rule:nonzero;"/>
        </g>
        <g transform="matrix(83.3333,0,0,83.3333,1486.79,603.32)">
            <path d="M0.139,0.109L0.269,0.001C0.278,-0.007 0.283,-0.018 0.283,-0.036L0.283,-0.057L0.311,-0.057L0.311,0.073C0.311,0.104 0.326,0.119 0.36,0.119L0.511,0.119C0.525,0.119 0.536,0.115 0.542,0.109L0.672,0.001C0.681,-0.007 0.686,-0.018 0.686,-0.036L0.686,-0.3C0.686,-0.341 0.674,-0.392 0.646,-0.464L0.559,-0.691C0.55,-0.718 0.531,-0.73 0.5,-0.73L0.231,-0.73C0.212,-0.73 0.198,-0.726 0.187,-0.716L0.059,-0.609L0.058,-0.608C0.051,-0.601 0.045,-0.593 0.041,-0.581L-0.045,-0.355C-0.073,-0.283 -0.085,-0.232 -0.085,-0.191L-0.085,0.073C-0.085,0.105 -0.071,0.119 -0.039,0.119L0.108,0.119C0.122,0.119 0.133,0.115 0.139,0.109Z" style="fill:rgb(212,15,125);fill-rule:nonzero;"/>
        </g>
        <g transform="matrix(83.3333,0,0,83.3333,1544.29,603.32)">
            <path d="M0.28,0.119C0.294,0.119 0.305,0.115 0.311,0.109L0.441,0.001C0.45,-0.007 0.455,-0.018 0.455,-0.036L0.455,-0.408L0.463,-0.408C0.477,-0.408 0.488,-0.412 0.494,-0.418L0.624,-0.526C0.633,-0.534 0.638,-0.545 0.638,-0.563L0.638,-0.684C0.638,-0.716 0.624,-0.73 0.592,-0.73L0.064,-0.73C0.05,-0.73 0.039,-0.727 0.032,-0.721L-0.097,-0.612C-0.106,-0.604 -0.111,-0.593 -0.111,-0.575L-0.111,-0.454C-0.111,-0.422 -0.097,-0.408 -0.065,-0.408L0.072,-0.408L0.072,0.073C0.072,0.105 0.086,0.119 0.118,0.119L0.28,0.119Z" style="fill:rgb(212,15,125);fill-rule:nonzero;"/>
        </g>
        <g transform="matrix(83.3333,0,0,83.3333,1598.96,603.32)">
            <path d="M0.386,0.119C0.4,0.119 0.411,0.115 0.417,0.109L0.547,0.001C0.556,-0.007 0.561,-0.018 0.561,-0.036L0.561,-0.155C0.561,-0.187 0.547,-0.201 0.515,-0.201L0.428,-0.201L0.428,-0.426L0.547,-0.526C0.556,-0.534 0.561,-0.545 0.561,-0.563L0.561,-0.684C0.561,-0.716 0.547,-0.73 0.515,-0.73L0.089,-0.73C0.075,-0.73 0.064,-0.727 0.057,-0.721L-0.072,-0.612C-0.081,-0.604 -0.086,-0.593 -0.086,-0.575L-0.086,-0.454C-0.086,-0.422 -0.072,-0.408 -0.04,-0.408L0.049,-0.408L0.049,-0.185L-0.072,-0.083C-0.081,-0.075 -0.086,-0.064 -0.086,-0.046L-0.086,0.073C-0.086,0.105 -0.072,0.119 -0.04,0.119L0.386,0.119Z" style="fill:rgb(212,15,125);fill-rule:nonzero;"/>
        </g>
        <g transform="matrix(83.3333,0,0,83.3333,1649.37,603.32)">
            <path d="M0.106,0.119L0.366,0.119C0.384,0.119 0.397,0.115 0.408,0.105L0.537,-0.002C0.544,-0.008 0.551,-0.017 0.555,-0.029L0.653,-0.274C0.678,-0.336 0.686,-0.355 0.686,-0.42L0.686,-0.684C0.686,-0.716 0.673,-0.73 0.64,-0.73L0.483,-0.73C0.469,-0.73 0.458,-0.727 0.451,-0.721L0.322,-0.612C0.313,-0.604 0.308,-0.593 0.308,-0.575L0.308,-0.363L0.305,-0.37C0.301,-0.384 0.298,-0.395 0.298,-0.408L0.298,-0.684C0.298,-0.715 0.281,-0.73 0.249,-0.73L0.09,-0.73C0.076,-0.73 0.065,-0.727 0.058,-0.721L-0.071,-0.612C-0.08,-0.604 -0.085,-0.593 -0.085,-0.575L-0.085,-0.311C-0.085,-0.246 -0.077,-0.227 -0.052,-0.165L0.046,0.08C0.058,0.109 0.075,0.119 0.106,0.119Z" style="fill:rgb(212,15,125);fill-rule:nonzero;"/>
        </g>
        <g transform="matrix(83.3333,0,0,83.3333,1710.21,603.32)">
            <path d="M0.44,0.119C0.454,0.119 0.465,0.115 0.471,0.109L0.601,0.001C0.61,-0.007 0.615,-0.018 0.615,-0.036L0.615,-0.153C0.615,-0.185 0.601,-0.199 0.569,-0.199L0.431,-0.199L0.52,-0.274C0.529,-0.282 0.534,-0.293 0.534,-0.311L0.534,-0.418C0.534,-0.439 0.528,-0.452 0.515,-0.459L0.601,-0.53C0.61,-0.538 0.615,-0.549 0.615,-0.567L0.615,-0.684C0.615,-0.716 0.601,-0.73 0.569,-0.73L0.105,-0.73C0.091,-0.73 0.08,-0.727 0.073,-0.721L-0.056,-0.612C-0.065,-0.604 -0.07,-0.593 -0.07,-0.575L-0.07,0.073C-0.07,0.105 -0.056,0.119 -0.024,0.119L0.44,0.119Z" style="fill:rgb(212,15,125);fill-rule:nonzero;"/>
        </g>
    </g>
    <g id="outline" transform="matrix(1.23181,0,0,1.29012,-421.745,-698.269)">
        <g transform="matrix(83.3333,0,0,83.3333,348.206,603.32)">
            <path d="M0.105,0.01L0.569,0.01C0.601,0.01 0.615,-0.004 0.615,-0.036L0.615,-0.153C0.615,-0.185 0.601,-0.199 0.569,-0.199L0.303,-0.199L0.303,-0.265L0.488,-0.265C0.52,-0.265 0.534,-0.279 0.534,-0.311L0.534,-0.418C0.534,-0.45 0.52,-0.464 0.488,-0.464L0.303,-0.464L0.303,-0.521L0.569,-0.521C0.601,-0.521 0.615,-0.535 0.615,-0.567L0.615,-0.684C0.615,-0.716 0.601,-0.73 0.569,-0.73L0.105,-0.73C0.073,-0.73 0.059,-0.716 0.059,-0.684L0.059,-0.036C0.059,-0.004 0.073,0.01 0.105,0.01Z" style="fill:rgb(44,42,41);fill-rule:nonzero;"/>
        </g>
        <g transform="matrix(83.3333,0,0,83.3333,402.706,603.32)">
            <path d="M0.555,-0.029L0.653,-0.274C0.678,-0.336 0.686,-0.355 0.686,-0.42L0.686,-0.684C0.686,-0.716 0.673,-0.73 0.64,-0.73L0.483,-0.73C0.451,-0.73 0.437,-0.716 0.437,-0.684L0.437,-0.409C0.437,-0.396 0.434,-0.385 0.43,-0.371L0.383,-0.23C0.38,-0.223 0.379,-0.22 0.373,-0.22L0.362,-0.22C0.356,-0.22 0.355,-0.223 0.353,-0.23L0.305,-0.37C0.301,-0.384 0.298,-0.395 0.298,-0.408L0.298,-0.684C0.298,-0.715 0.281,-0.73 0.249,-0.73L0.09,-0.73C0.058,-0.73 0.044,-0.716 0.044,-0.684L0.044,-0.42C0.044,-0.355 0.052,-0.336 0.077,-0.274L0.175,-0.029C0.187,0 0.204,0.01 0.235,0.01L0.495,0.01C0.526,0.01 0.543,0 0.555,-0.029Z" style="fill:rgb(44,42,41);fill-rule:nonzero;"/>
        </g>
        <g transform="matrix(83.3333,0,0,83.3333,463.539,603.32)">
            <path d="M0.105,0.01L0.569,0.01C0.601,0.01 0.615,-0.004 0.615,-0.036L0.615,-0.153C0.615,-0.185 0.601,-0.199 0.569,-0.199L0.303,-0.199L0.303,-0.265L0.488,-0.265C0.52,-0.265 0.534,-0.279 0.534,-0.311L0.534,-0.418C0.534,-0.45 0.52,-0.464 0.488,-0.464L0.303,-0.464L0.303,-0.521L0.569,-0.521C0.601,-0.521 0.615,-0.535 0.615,-0.567L0.615,-0.684C0.615,-0.716 0.601,-0.73 0.569,-0.73L0.105,-0.73C0.073,-0.73 0.059,-0.716 0.059,-0.684L0.059,-0.036C0.059,-0.004 0.073,0.01 0.105,0.01Z" style="fill:rgb(44,42,41);fill-rule:nonzero;"/>
        </g>
        <g transform="matrix(83.3333,0,0,83.3333,518.039,603.32)">
            <path d="M0.37,-0.53C0.398,-0.53 0.404,-0.514 0.404,-0.493L0.404,-0.459C0.404,-0.438 0.398,-0.422 0.37,-0.422L0.305,-0.422L0.305,-0.53L0.37,-0.53ZM0.259,0.01C0.291,0.01 0.305,-0.004 0.305,-0.036L0.305,-0.222L0.435,-0.222C0.456,-0.222 0.463,-0.211 0.463,-0.189L0.463,-0.036C0.463,-0.004 0.477,0.01 0.509,0.01L0.664,0.01C0.696,0.01 0.71,-0.004 0.71,-0.036L0.71,-0.248C0.71,-0.327 0.669,-0.38 0.606,-0.398C0.634,-0.421 0.645,-0.458 0.645,-0.507L0.645,-0.553C0.645,-0.657 0.597,-0.73 0.438,-0.73L0.105,-0.73C0.073,-0.73 0.059,-0.716 0.059,-0.684L0.059,-0.036C0.059,-0.004 0.073,0.01 0.105,0.01L0.259,0.01Z" style="fill:rgb(44,42,41);fill-rule:nonzero;"/>
        </g>
        <g transform="matrix(83.3333,0,0,83.3333,577.456,603.32)">
            <path d="M0.272,0.01L0.434,0.01C0.466,0.01 0.48,-0.004 0.48,-0.036L0.48,-0.16L0.63,-0.363C0.662,-0.406 0.67,-0.427 0.67,-0.492L0.67,-0.684C0.67,-0.716 0.656,-0.73 0.624,-0.73L0.475,-0.73C0.443,-0.73 0.429,-0.716 0.429,-0.684L0.429,-0.52C0.429,-0.508 0.429,-0.496 0.422,-0.483L0.376,-0.411C0.371,-0.403 0.367,-0.399 0.36,-0.399L0.35,-0.399C0.343,-0.399 0.339,-0.403 0.335,-0.411L0.288,-0.483C0.281,-0.496 0.281,-0.508 0.281,-0.52L0.281,-0.684C0.281,-0.716 0.267,-0.73 0.235,-0.73L0.081,-0.73C0.049,-0.73 0.035,-0.716 0.035,-0.684L0.035,-0.492C0.035,-0.427 0.043,-0.406 0.075,-0.363L0.226,-0.161L0.226,-0.036C0.226,-0.004 0.239,0.01 0.272,0.01Z" style="fill:rgb(44,42,41);fill-rule:nonzero;"/>
        </g>
        <g transform="matrix(83.3333,0,0,83.3333,636.206,603.32)">
            <path d="M0.247,0.01L0.409,0.01C0.441,0.01 0.455,-0.004 0.455,-0.036L0.455,-0.517L0.592,-0.517C0.624,-0.517 0.638,-0.531 0.638,-0.563L0.638,-0.684C0.638,-0.716 0.624,-0.73 0.592,-0.73L0.064,-0.73C0.032,-0.73 0.018,-0.716 0.018,-0.684L0.018,-0.563C0.018,-0.531 0.032,-0.517 0.064,-0.517L0.201,-0.517L0.201,-0.036C0.201,-0.004 0.215,0.01 0.247,0.01Z" style="fill:rgb(44,42,41);fill-rule:nonzero;"/>
        </g>
        <g transform="matrix(83.3333,0,0,83.3333,690.872,603.32)">
            <path d="M0.105,0.01L0.26,0.01C0.292,0.01 0.306,-0.004 0.306,-0.036L0.306,-0.248L0.453,-0.248L0.453,-0.036C0.453,-0.004 0.467,0.01 0.499,0.01L0.654,0.01C0.686,0.01 0.7,-0.004 0.7,-0.036L0.7,-0.684C0.7,-0.716 0.686,-0.73 0.654,-0.73L0.499,-0.73C0.467,-0.73 0.453,-0.716 0.453,-0.684L0.453,-0.477L0.306,-0.477L0.306,-0.684C0.306,-0.716 0.292,-0.73 0.26,-0.73L0.105,-0.73C0.073,-0.73 0.059,-0.716 0.059,-0.684L0.059,-0.036C0.059,-0.004 0.073,0.01 0.105,0.01Z" style="fill:rgb(44,42,41);fill-rule:nonzero;"/>
        </g>
        <g transform="matrix(83.3333,0,0,83.3333,754.122,603.32)">
            <path d="M0.089,0.01L0.515,0.01C0.547,0.01 0.561,-0.004 0.561,-0.036L0.561,-0.155C0.561,-0.187 0.547,-0.201 0.515,-0.201L0.428,-0.201L0.428,-0.517L0.515,-0.517C0.547,-0.517 0.561,-0.531 0.561,-0.563L0.561,-0.684C0.561,-0.716 0.547,-0.73 0.515,-0.73L0.089,-0.73C0.057,-0.73 0.043,-0.716 0.043,-0.684L0.043,-0.563C0.043,-0.531 0.057,-0.517 0.089,-0.517L0.178,-0.517L0.178,-0.201L0.089,-0.201C0.057,-0.201 0.043,-0.187 0.043,-0.155L0.043,-0.036C0.043,-0.004 0.057,0.01 0.089,0.01Z" style="fill:rgb(44,42,41);fill-rule:nonzero;"/>
        </g>
        <g transform="matrix(83.3333,0,0,83.3333,804.539,603.32)">
            <path d="M0.255,0.01C0.287,0.01 0.301,-0.004 0.301,-0.036L0.301,-0.338L0.452,-0.155L0.452,-0.036C0.452,-0.004 0.466,0.01 0.498,0.01L0.648,0.01C0.68,0.01 0.694,-0.004 0.694,-0.036L0.694,-0.684C0.694,-0.716 0.68,-0.73 0.648,-0.73L0.498,-0.73C0.466,-0.73 0.452,-0.716 0.452,-0.684L0.452,-0.499L0.276,-0.7C0.256,-0.722 0.238,-0.73 0.209,-0.73L0.105,-0.73C0.073,-0.73 0.059,-0.716 0.059,-0.684L0.059,-0.036C0.059,-0.004 0.073,0.01 0.105,0.01L0.255,0.01Z" style="fill:rgb(44,42,41);fill-rule:nonzero;"/>
        </g>
        <g transform="matrix(83.3333,0,0,83.3333,867.289,603.32)">
            <path d="M0.304,0.01L0.619,0.01C0.651,0.01 0.665,-0.004 0.665,-0.036L0.665,-0.345C0.665,-0.377 0.651,-0.391 0.619,-0.391L0.464,-0.391C0.432,-0.391 0.418,-0.377 0.418,-0.345L0.418,-0.199L0.331,-0.199C0.306,-0.199 0.295,-0.211 0.295,-0.238L0.295,-0.477C0.295,-0.505 0.312,-0.517 0.346,-0.517L0.554,-0.517C0.586,-0.517 0.6,-0.531 0.6,-0.563L0.6,-0.684C0.6,-0.716 0.586,-0.73 0.554,-0.73L0.304,-0.73C0.128,-0.73 0.048,-0.661 0.048,-0.516L0.048,-0.204C0.048,-0.059 0.128,0.01 0.304,0.01Z" style="fill:rgb(44,42,41);fill-rule:nonzero;"/>
        </g>
        <g transform="matrix(83.3333,0,0,83.3333,945.039,603.32)">
            <path d="M0.089,0.01L0.515,0.01C0.547,0.01 0.561,-0.004 0.561,-0.036L0.561,-0.155C0.561,-0.187 0.547,-0.201 0.515,-0.201L0.428,-0.201L0.428,-0.517L0.515,-0.517C0.547,-0.517 0.561,-0.531 0.561,-0.563L0.561,-0.684C0.561,-0.716 0.547,-0.73 0.515,-0.73L0.089,-0.73C0.057,-0.73 0.043,-0.716 0.043,-0.684L0.043,-0.563C0.043,-0.531 0.057,-0.517 0.089,-0.517L0.178,-0.517L0.178,-0.201L0.089,-0.201C0.057,-0.201 0.043,-0.187 0.043,-0.155L0.043,-0.036C0.043,-0.004 0.057,0.01 0.089,0.01Z" style="fill:rgb(44,42,41);fill-rule:nonzero;"/>
        </g>
        <g transform="matrix(83.3333,0,0,83.3333,995.456,603.32)">
            <path d="M0.62,-0.176L0.62,-0.281C0.62,-0.399 0.555,-0.442 0.455,-0.457L0.306,-0.477C0.294,-0.478 0.288,-0.487 0.288,-0.499C0.288,-0.51 0.294,-0.519 0.305,-0.519L0.538,-0.519C0.57,-0.519 0.584,-0.533 0.584,-0.565L0.584,-0.684C0.584,-0.716 0.57,-0.73 0.538,-0.73L0.258,-0.73C0.121,-0.73 0.041,-0.664 0.041,-0.544L0.041,-0.439C0.041,-0.321 0.105,-0.278 0.205,-0.263L0.355,-0.242C0.367,-0.241 0.372,-0.233 0.372,-0.218C0.372,-0.208 0.367,-0.199 0.356,-0.199L0.087,-0.199C0.055,-0.199 0.041,-0.185 0.041,-0.153L0.041,-0.036C0.041,-0.004 0.055,0.01 0.087,0.01L0.403,0.01C0.539,0.01 0.62,-0.056 0.62,-0.176Z" style="fill:rgb(44,42,41);fill-rule:nonzero;"/>
        </g>
        <g transform="matrix(83.3333,0,0,83.3333,1068.37,603.32)">
            <path d="M0.105,0.01L0.26,0.01C0.292,0.01 0.306,-0.004 0.306,-0.036L0.306,-0.192L0.411,-0.192C0.602,-0.192 0.657,-0.276 0.657,-0.397L0.657,-0.525C0.657,-0.646 0.602,-0.73 0.411,-0.73L0.105,-0.73C0.073,-0.73 0.059,-0.716 0.059,-0.684L0.059,-0.036C0.059,-0.004 0.073,0.01 0.105,0.01ZM0.384,-0.523C0.415,-0.523 0.421,-0.504 0.421,-0.484L0.421,-0.431C0.421,-0.411 0.415,-0.392 0.384,-0.392L0.304,-0.392L0.304,-0.523L0.384,-0.523Z" style="fill:rgb(44,42,41);fill-rule:nonzero;"/>
        </g>
        <g transform="matrix(83.3333,0,0,83.3333,1125.21,603.32)">
            <path d="M0.105,0.01L0.569,0.01C0.601,0.01 0.615,-0.004 0.615,-0.036L0.615,-0.153C0.615,-0.185 0.601,-0.199 0.569,-0.199L0.303,-0.199L0.303,-0.265L0.488,-0.265C0.52,-0.265 0.534,-0.279 0.534,-0.311L0.534,-0.418C0.534,-0.45 0.52,-0.464 0.488,-0.464L0.303,-0.464L0.303,-0.521L0.569,-0.521C0.601,-0.521 0.615,-0.535 0.615,-0.567L0.615,-0.684C0.615,-0.716 0.601,-0.73 0.569,-0.73L0.105,-0.73C0.073,-0.73 0.059,-0.716 0.059,-0.684L0.059,-0.036C0.059,-0.004 0.073,0.01 0.105,0.01Z" style="fill:rgb(44,42,41);fill-rule:nonzero;"/>
        </g>
        <g transform="matrix(83.3333,0,0,83.3333,1179.71,603.32)">
            <path d="M0.37,-0.53C0.398,-0.53 0.404,-0.514 0.404,-0.493L0.404,-0.459C0.404,-0.438 0.398,-0.422 0.37,-0.422L0.305,-0.422L0.305,-0.53L0.37,-0.53ZM0.259,0.01C0.291,0.01 0.305,-0.004 0.305,-0.036L0.305,-0.222L0.435,-0.222C0.456,-0.222 0.463,-0.211 0.463,-0.189L0.463,-0.036C0.463,-0.004 0.477,0.01 0.509,0.01L0.664,0.01C0.696,0.01 0.71,-0.004 0.71,-0.036L0.71,-0.248C0.71,-0.327 0.669,-0.38 0.606,-0.398C0.634,-0.421 0.645,-0.458 0.645,-0.507L0.645,-0.553C0.645,-0.657 0.597,-0.73 0.438,-0.73L0.105,-0.73C0.073,-0.73 0.059,-0.716 0.059,-0.684L0.059,-0.036C0.059,-0.004 0.073,0.01 0.105,0.01L0.259,0.01Z" style="fill:rgb(44,42,41);fill-rule:nonzero;"/>
        </g>
        <g transform="matrix(83.3333,0,0,83.3333,1241.62,603.32)">
            <path d="M0.105,0.01L0.26,0.01C0.292,0.01 0.306,-0.004 0.306,-0.036L0.306,-0.223L0.47,-0.223C0.502,-0.223 0.516,-0.237 0.516,-0.269L0.516,-0.389C0.516,-0.421 0.502,-0.435 0.47,-0.435L0.306,-0.435L0.306,-0.519L0.551,-0.519C0.583,-0.519 0.597,-0.533 0.597,-0.565L0.597,-0.684C0.597,-0.716 0.583,-0.73 0.551,-0.73L0.105,-0.73C0.073,-0.73 0.059,-0.716 0.059,-0.684L0.059,-0.036C0.059,-0.004 0.073,0.01 0.105,0.01Z" style="fill:rgb(44,42,41);fill-rule:nonzero;"/>
        </g>
        <g transform="matrix(83.3333,0,0,83.3333,1292.71,603.32)">
            <path d="M0.689,-0.53C0.689,-0.656 0.631,-0.745 0.369,-0.745C0.107,-0.745 0.048,-0.656 0.048,-0.53L0.048,-0.189C0.048,-0.063 0.107,0.025 0.369,0.025C0.631,0.025 0.689,-0.063 0.689,-0.189L0.689,-0.53ZM0.295,-0.494C0.295,-0.517 0.313,-0.53 0.369,-0.53C0.426,-0.53 0.443,-0.517 0.443,-0.494L0.443,-0.225C0.443,-0.201 0.426,-0.188 0.369,-0.188C0.312,-0.188 0.295,-0.201 0.295,-0.225L0.295,-0.494Z" style="fill:rgb(44,42,41);fill-rule:nonzero;"/>
        </g>
        <g transform="matrix(83.3333,0,0,83.3333,1354.12,603.32)">
            <path d="M0.37,-0.53C0.398,-0.53 0.404,-0.514 0.404,-0.493L0.404,-0.459C0.404,-0.438 0.398,-0.422 0.37,-0.422L0.305,-0.422L0.305,-0.53L0.37,-0.53ZM0.259,0.01C0.291,0.01 0.305,-0.004 0.305,-0.036L0.305,-0.222L0.435,-0.222C0.456,-0.222 0.463,-0.211 0.463,-0.189L0.463,-0.036C0.463,-0.004 0.477,0.01 0.509,0.01L0.664,0.01C0.696,0.01 0.71,-0.004 0.71,-0.036L0.71,-0.248C0.71,-0.327 0.669,-0.38 0.606,-0.398C0.634,-0.421 0.645,-0.458 0.645,-0.507L0.645,-0.553C0.645,-0.657 0.597,-0.73 0.438,-0.73L0.105,-0.73C0.073,-0.73 0.059,-0.716 0.059,-0.684L0.059,-0.036C0.059,-0.004 0.073,0.01 0.105,0.01L0.259,0.01Z" style="fill:rgb(44,42,41);fill-rule:nonzero;"/>
        </g>
        <g transform="matrix(83.3333,0,0,83.3333,1416.04,603.32)">
            <path d="M0.254,0.01C0.286,0.01 0.3,-0.004 0.3,-0.036L0.3,-0.348L0.34,-0.274C0.354,-0.248 0.372,-0.237 0.402,-0.237L0.442,-0.237C0.472,-0.237 0.49,-0.248 0.504,-0.274L0.544,-0.348L0.544,-0.036C0.544,-0.004 0.557,0.01 0.59,0.01L0.744,0.01C0.776,0.01 0.79,-0.004 0.79,-0.036L0.79,-0.684C0.79,-0.716 0.776,-0.73 0.744,-0.73L0.582,-0.73C0.557,-0.73 0.542,-0.721 0.527,-0.695L0.438,-0.532C0.435,-0.526 0.434,-0.52 0.429,-0.52L0.42,-0.52C0.415,-0.52 0.414,-0.526 0.411,-0.532L0.321,-0.695C0.306,-0.721 0.291,-0.73 0.266,-0.73L0.105,-0.73C0.073,-0.73 0.059,-0.716 0.059,-0.684L0.059,-0.036C0.059,-0.004 0.073,0.01 0.105,0.01L0.254,0.01Z" style="fill:rgb(44,42,41);fill-rule:nonzero;"/>
        </g>
        <g transform="matrix(83.3333,0,0,83.3333,1486.79,603.32)">
            <path d="M0.383,-0.507L0.426,-0.368L0.297,-0.368L0.34,-0.507L0.339,-0.506C0.342,-0.512 0.344,-0.517 0.349,-0.517L0.374,-0.517C0.379,-0.517 0.381,-0.512 0.384,-0.506L0.383,-0.507ZM0.09,0.01L0.237,0.01C0.269,0.01 0.283,-0.004 0.283,-0.036L0.283,-0.166L0.44,-0.166L0.44,-0.036C0.44,-0.005 0.455,0.01 0.489,0.01L0.64,0.01C0.672,0.01 0.686,-0.004 0.686,-0.036L0.686,-0.3C0.686,-0.341 0.674,-0.392 0.646,-0.464L0.559,-0.691C0.55,-0.718 0.531,-0.73 0.5,-0.73L0.231,-0.73C0.199,-0.73 0.18,-0.718 0.171,-0.69L0.084,-0.464C0.056,-0.392 0.044,-0.341 0.044,-0.3L0.044,-0.036C0.044,-0.004 0.058,0.01 0.09,0.01Z" style="fill:rgb(44,42,41);fill-rule:nonzero;"/>
        </g>
        <g transform="matrix(83.3333,0,0,83.3333,1544.29,603.32)">
            <path d="M0.247,0.01L0.409,0.01C0.441,0.01 0.455,-0.004 0.455,-0.036L0.455,-0.517L0.592,-0.517C0.624,-0.517 0.638,-0.531 0.638,-0.563L0.638,-0.684C0.638,-0.716 0.624,-0.73 0.592,-0.73L0.064,-0.73C0.032,-0.73 0.018,-0.716 0.018,-0.684L0.018,-0.563C0.018,-0.531 0.032,-0.517 0.064,-0.517L0.201,-0.517L0.201,-0.036C0.201,-0.004 0.215,0.01 0.247,0.01Z" style="fill:rgb(44,42,41);fill-rule:nonzero;"/>
        </g>
        <g transform="matrix(83.3333,0,0,83.3333,1598.96,603.32)">
            <path d="M0.089,0.01L0.515,0.01C0.547,0.01 0.561,-0.004 0.561,-0.036L0.561,-0.155C0.561,-0.187 0.547,-0.201 0.515,-0.201L0.428,-0.201L0.428,-0.517L0.515,-0.517C0.547,-0.517 0.561,-0.531 0.561,-0.563L0.561,-0.684C0.561,-0.716 0.547,-0.73 0.515,-0.73L0.089,-0.73C0.057,-0.73 0.043,-0.716 0.043,-0.684L0.043,-0.563C0.043,-0.531 0.057,-0.517 0.089,-0.517L0.178,-0.517L0.178,-0.201L0.089,-0.201C0.057,-0.201 0.043,-0.187 0.043,-0.155L0.043,-0.036C0.043,-0.004 0.057,0.01 0.089,0.01Z" style="fill:rgb(44,42,41);fill-rule:nonzero;"/>
        </g>
        <g transform="matrix(83.3333,0,0,83.3333,1649.37,603.32)">
            <path d="M0.555,-0.029L0.653,-0.274C0.678,-0.336 0.686,-0.355 0.686,-0.42L0.686,-0.684C0.686,-0.716 0.673,-0.73 0.64,-0.73L0.483,-0.73C0.451,-0.73 0.437,-0.716 0.437,-0.684L0.437,-0.409C0.437,-0.396 0.434,-0.385 0.43,-0.371L0.383,-0.23C0.38,-0.223 0.379,-0.22 0.373,-0.22L0.362,-0.22C0.356,-0.22 0.355,-0.223 0.353,-0.23L0.305,-0.37C0.301,-0.384 0.298,-0.395 0.298,-0.408L0.298,-0.684C0.298,-0.715 0.281,-0.73 0.249,-0.73L0.09,-0.73C0.058,-0.73 0.044,-0.716 0.044,-0.684L0.044,-0.42C0.044,-0.355 0.052,-0.336 0.077,-0.274L0.175,-0.029C0.187,0 0.204,0.01 0.235,0.01L0.495,0.01C0.526,0.01 0.543,0 0.555,-0.029Z" style="fill:rgb(44,42,41);fill-rule:nonzero;"/>
        </g>
        <g transform="matrix(83.3333,0,0,83.3333,1710.21,603.32)">
            <path d="M0.105,0.01L0.569,0.01C0.601,0.01 0.615,-0.004 0.615,-0.036L0.615,-0.153C0.615,-0.185 0.601,-0.199 0.569,-0.199L0.303,-0.199L0.303,-0.265L0.488,-0.265C0.52,-0.265 0.534,-0.279 0.534,-0.311L0.534,-0.418C0.534,-0.45 0.52,-0.464 0.488,-0.464L0.303,-0.464L0.303,-0.521L0.569,-0.521C0.601,-0.521 0.615,-0.535 0.615,-0.567L0.615,-0.684C0.615,-0.716 0.601,-0.73 0.569,-0.73L0.105,-0.73C0.073,-0.73 0.059,-0.716 0.059,-0.684L0.059,-0.036C0.059,-0.004 0.073,0.01 0.105,0.01Z" style="fill:rgb(44,42,41);fill-rule:nonzero;"/>
        </g>
    </g>
    <g id="regular" transform="matrix(1.23181,0,0,1.29012,-421.745,-698.216)">
        <g transform="matrix(83.3333,0,0,83.3333,348.206,603.32)">
            <path d="M0.569,0C0.594,0 0.605,-0.011 0.605,-0.036L0.605,-0.153C0.605,-0.178 0.594,-0.189 0.569,-0.189L0.293,-0.189L0.293,-0.275L0.488,-0.275C0.513,-0.275 0.524,-0.286 0.524,-0.311L0.524,-0.418C0.524,-0.443 0.513,-0.454 0.488,-0.454L0.293,-0.454L0.293,-0.531L0.569,-0.531C0.594,-0.531 0.605,-0.542 0.605,-0.567L0.605,-0.684C0.605,-0.709 0.594,-0.72 0.569,-0.72L0.105,-0.72C0.08,-0.72 0.069,-0.709 0.069,-0.684L0.069,-0.036C0.069,-0.011 0.08,0 0.105,0L0.569,0Z" style="fill:rgb(250,225,0);fill-rule:nonzero;"/>
        </g>
        <g transform="matrix(83.3333,0,0,83.3333,402.706,603.32)">
            <path d="M0.495,0C0.521,0 0.536,-0.008 0.546,-0.033L0.644,-0.278C0.668,-0.338 0.676,-0.357 0.676,-0.42L0.676,-0.684C0.676,-0.709 0.666,-0.72 0.64,-0.72L0.483,-0.72C0.458,-0.72 0.447,-0.709 0.447,-0.684L0.447,-0.409C0.447,-0.395 0.444,-0.383 0.439,-0.368L0.392,-0.227C0.388,-0.214 0.384,-0.21 0.373,-0.21L0.362,-0.21C0.351,-0.21 0.347,-0.214 0.343,-0.227L0.296,-0.367C0.291,-0.382 0.288,-0.394 0.288,-0.408L0.288,-0.684C0.288,-0.709 0.274,-0.72 0.249,-0.72L0.09,-0.72C0.065,-0.72 0.054,-0.709 0.054,-0.684L0.054,-0.42C0.054,-0.357 0.062,-0.338 0.086,-0.278L0.184,-0.033C0.194,-0.008 0.209,0 0.235,0L0.495,0Z" style="fill:rgb(250,225,0);fill-rule:nonzero;"/>
        </g>
        <g transform="matrix(83.3333,0,0,83.3333,463.539,603.32)">
            <path d="M0.569,0C0.594,0 0.605,-0.011 0.605,-0.036L0.605,-0.153C0.605,-0.178 0.594,-0.189 0.569,-0.189L0.293,-0.189L0.293,-0.275L0.488,-0.275C0.513,-0.275 0.524,-0.286 0.524,-0.311L0.524,-0.418C0.524,-0.443 0.513,-0.454 0.488,-0.454L0.293,-0.454L0.293,-0.531L0.569,-0.531C0.594,-0.531 0.605,-0.542 0.605,-0.567L0.605,-0.684C0.605,-0.709 0.594,-0.72 0.569,-0.72L0.105,-0.72C0.08,-0.72 0.069,-0.709 0.069,-0.684L0.069,-0.036C0.069,-0.011 0.08,0 0.105,0L0.569,0Z" style="fill:rgb(250,225,0);fill-rule:nonzero;"/>
        </g>
        <g transform="matrix(83.3333,0,0,83.3333,518.039,603.32)">
            <path d="M0.295,-0.54L0.37,-0.54C0.405,-0.54 0.414,-0.52 0.414,-0.493L0.414,-0.459C0.414,-0.432 0.405,-0.412 0.37,-0.412L0.295,-0.412L0.295,-0.54ZM0.259,0C0.284,0 0.295,-0.011 0.295,-0.036L0.295,-0.232L0.435,-0.232C0.463,-0.232 0.473,-0.219 0.473,-0.189L0.473,-0.036C0.473,-0.011 0.484,0 0.509,0L0.664,0C0.689,0 0.7,-0.011 0.7,-0.036L0.7,-0.248C0.7,-0.332 0.652,-0.385 0.579,-0.393C0.621,-0.411 0.635,-0.451 0.635,-0.507L0.635,-0.553C0.635,-0.652 0.588,-0.72 0.438,-0.72L0.105,-0.72C0.08,-0.72 0.069,-0.709 0.069,-0.684L0.069,-0.036C0.069,-0.011 0.08,0 0.105,0L0.259,0Z" style="fill:rgb(250,225,0);fill-rule:nonzero;"/>
        </g>
        <g transform="matrix(83.3333,0,0,83.3333,577.456,603.32)">
            <path d="M0.434,0C0.459,0 0.47,-0.011 0.47,-0.036L0.47,-0.163L0.622,-0.369C0.652,-0.41 0.66,-0.43 0.66,-0.492L0.66,-0.684C0.66,-0.709 0.649,-0.72 0.624,-0.72L0.475,-0.72C0.45,-0.72 0.439,-0.709 0.439,-0.684L0.439,-0.52C0.439,-0.506 0.439,-0.492 0.43,-0.478L0.384,-0.406C0.377,-0.394 0.371,-0.389 0.36,-0.389L0.35,-0.389C0.339,-0.389 0.333,-0.394 0.326,-0.406L0.28,-0.478C0.271,-0.492 0.271,-0.506 0.271,-0.52L0.271,-0.684C0.271,-0.709 0.26,-0.72 0.235,-0.72L0.081,-0.72C0.056,-0.72 0.045,-0.709 0.045,-0.684L0.045,-0.492C0.045,-0.43 0.052,-0.41 0.083,-0.369L0.236,-0.164L0.236,-0.036C0.236,-0.011 0.246,0 0.272,0L0.434,0Z" style="fill:rgb(250,225,0);fill-rule:nonzero;"/>
        </g>
        <g transform="matrix(83.3333,0,0,83.3333,636.206,603.32)">
            <path d="M0.409,0C0.434,0 0.445,-0.011 0.445,-0.036L0.445,-0.527L0.592,-0.527C0.617,-0.527 0.628,-0.538 0.628,-0.563L0.628,-0.684C0.628,-0.709 0.617,-0.72 0.592,-0.72L0.064,-0.72C0.039,-0.72 0.028,-0.709 0.028,-0.684L0.028,-0.563C0.028,-0.538 0.039,-0.527 0.064,-0.527L0.211,-0.527L0.211,-0.036C0.211,-0.011 0.222,0 0.247,0L0.409,0Z" style="fill:rgb(250,225,0);fill-rule:nonzero;"/>
        </g>
        <g transform="matrix(83.3333,0,0,83.3333,690.872,603.32)">
            <path d="M0.26,0C0.285,0 0.296,-0.011 0.296,-0.036L0.296,-0.258L0.463,-0.258L0.463,-0.036C0.463,-0.011 0.474,0 0.499,0L0.654,0C0.679,0 0.69,-0.011 0.69,-0.036L0.69,-0.684C0.69,-0.709 0.679,-0.72 0.654,-0.72L0.499,-0.72C0.474,-0.72 0.463,-0.709 0.463,-0.684L0.463,-0.467L0.296,-0.467L0.296,-0.684C0.296,-0.709 0.285,-0.72 0.26,-0.72L0.105,-0.72C0.08,-0.72 0.069,-0.709 0.069,-0.684L0.069,-0.036C0.069,-0.011 0.08,0 0.105,0L0.26,0Z" style="fill:rgb(250,225,0);fill-rule:nonzero;"/>
        </g>
        <g transform="matrix(83.3333,0,0,83.3333,754.122,603.32)">
            <path d="M0.089,0L0.515,0C0.54,0 0.551,-0.011 0.551,-0.036L0.551,-0.155C0.551,-0.18 0.54,-0.191 0.515,-0.191L0.418,-0.191L0.418,-0.527L0.515,-0.527C0.54,-0.527 0.551,-0.538 0.551,-0.563L0.551,-0.684C0.551,-0.709 0.54,-0.72 0.515,-0.72L0.089,-0.72C0.064,-0.72 0.053,-0.709 0.053,-0.684L0.053,-0.563C0.053,-0.538 0.064,-0.527 0.089,-0.527L0.188,-0.527L0.188,-0.191L0.089,-0.191C0.064,-0.191 0.053,-0.18 0.053,-0.155L0.053,-0.036C0.053,-0.011 0.064,0 0.089,0Z" style="fill:rgb(250,225,0);fill-rule:nonzero;"/>
        </g>
        <g transform="matrix(83.3333,0,0,83.3333,804.539,603.32)">
            <path d="M0.255,0C0.28,0 0.291,-0.011 0.291,-0.036L0.291,-0.366L0.462,-0.159L0.462,-0.036C0.462,-0.011 0.473,0 0.498,0L0.648,0C0.673,0 0.684,-0.011 0.684,-0.036L0.684,-0.684C0.684,-0.709 0.673,-0.72 0.648,-0.72L0.498,-0.72C0.473,-0.72 0.462,-0.709 0.462,-0.684L0.462,-0.471L0.268,-0.693C0.251,-0.713 0.235,-0.72 0.209,-0.72L0.105,-0.72C0.08,-0.72 0.069,-0.709 0.069,-0.684L0.069,-0.036C0.069,-0.011 0.08,0 0.105,0L0.255,0Z" style="fill:rgb(250,225,0);fill-rule:nonzero;"/>
        </g>
        <g transform="matrix(83.3333,0,0,83.3333,867.289,603.32)">
            <path d="M0.619,0C0.644,0 0.655,-0.011 0.655,-0.036L0.655,-0.345C0.655,-0.37 0.644,-0.381 0.619,-0.381L0.464,-0.381C0.439,-0.381 0.428,-0.37 0.428,-0.345L0.428,-0.189L0.331,-0.189C0.3,-0.189 0.285,-0.204 0.285,-0.238L0.285,-0.477C0.285,-0.511 0.304,-0.527 0.346,-0.527L0.554,-0.527C0.579,-0.527 0.59,-0.538 0.59,-0.563L0.59,-0.684C0.59,-0.709 0.579,-0.72 0.554,-0.72L0.304,-0.72C0.136,-0.72 0.058,-0.655 0.058,-0.516L0.058,-0.204C0.058,-0.065 0.136,0 0.304,0L0.619,0Z" style="fill:rgb(250,225,0);fill-rule:nonzero;"/>
        </g>
        <g transform="matrix(83.3333,0,0,83.3333,945.039,603.32)">
            <path d="M0.089,0L0.515,0C0.54,0 0.551,-0.011 0.551,-0.036L0.551,-0.155C0.551,-0.18 0.54,-0.191 0.515,-0.191L0.418,-0.191L0.418,-0.527L0.515,-0.527C0.54,-0.527 0.551,-0.538 0.551,-0.563L0.551,-0.684C0.551,-0.709 0.54,-0.72 0.515,-0.72L0.089,-0.72C0.064,-0.72 0.053,-0.709 0.053,-0.684L0.053,-0.563C0.053,-0.538 0.064,-0.527 0.089,-0.527L0.188,-0.527L0.188,-0.191L0.089,-0.191C0.064,-0.191 0.053,-0.18 0.053,-0.155L0.053,-0.036C0.053,-0.011 0.064,0 0.089,0Z" style="fill:rgb(250,225,0);fill-rule:nonzero;"/>
        </g>
        <g transform="matrix(83.3333,0,0,83.3333,995.456,603.32)">
            <path d="M0.403,0C0.532,0 0.61,-0.062 0.61,-0.176L0.61,-0.281C0.61,-0.393 0.548,-0.433 0.454,-0.447L0.305,-0.467C0.288,-0.469 0.278,-0.481 0.278,-0.499C0.278,-0.517 0.288,-0.529 0.305,-0.529L0.538,-0.529C0.563,-0.529 0.574,-0.54 0.574,-0.565L0.574,-0.684C0.574,-0.709 0.563,-0.72 0.538,-0.72L0.258,-0.72C0.128,-0.72 0.051,-0.658 0.051,-0.544L0.051,-0.439C0.051,-0.327 0.112,-0.287 0.206,-0.273L0.356,-0.252C0.373,-0.25 0.382,-0.241 0.382,-0.218C0.382,-0.202 0.373,-0.189 0.356,-0.189L0.087,-0.189C0.062,-0.189 0.051,-0.178 0.051,-0.153L0.051,-0.036C0.051,-0.011 0.062,0 0.087,0L0.403,0Z" style="fill:rgb(250,225,0);fill-rule:nonzero;"/>
        </g>
        <g transform="matrix(83.3333,0,0,83.3333,1068.37,603.32)">
            <path d="M0.26,0C0.285,0 0.296,-0.011 0.296,-0.036L0.296,-0.202L0.411,-0.202C0.593,-0.202 0.647,-0.281 0.647,-0.397L0.647,-0.525C0.647,-0.641 0.593,-0.72 0.411,-0.72L0.105,-0.72C0.08,-0.72 0.069,-0.709 0.069,-0.684L0.069,-0.036C0.069,-0.011 0.08,0 0.105,0L0.26,0ZM0.294,-0.533L0.384,-0.533C0.423,-0.533 0.431,-0.51 0.431,-0.484L0.431,-0.431C0.431,-0.405 0.423,-0.382 0.384,-0.382L0.294,-0.382L0.294,-0.533Z" style="fill:rgb(250,225,0);fill-rule:nonzero;"/>
        </g>
        <g transform="matrix(83.3333,0,0,83.3333,1125.21,603.32)">
            <path d="M0.569,0C0.594,0 0.605,-0.011 0.605,-0.036L0.605,-0.153C0.605,-0.178 0.594,-0.189 0.569,-0.189L0.293,-0.189L0.293,-0.275L0.488,-0.275C0.513,-0.275 0.524,-0.286 0.524,-0.311L0.524,-0.418C0.524,-0.443 0.513,-0.454 0.488,-0.454L0.293,-0.454L0.293,-0.531L0.569,-0.531C0.594,-0.531 0.605,-0.542 0.605,-0.567L0.605,-0.684C0.605,-0.709 0.594,-0.72 0.569,-0.72L0.105,-0.72C0.08,-0.72 0.069,-0.709 0.069,-0.684L0.069,-0.036C0.069,-0.011 0.08,0 0.105,0L0.569,0Z" style="fill:rgb(250,225,0);fill-rule:nonzero;"/>
        </g>
        <g transform="matrix(83.3333,0,0,83.3333,1179.71,603.32)">
            <path d="M0.295,-0.54L0.37,-0.54C0.405,-0.54 0.414,-0.52 0.414,-0.493L0.414,-0.459C0.414,-0.432 0.405,-0.412 0.37,-0.412L0.295,-0.412L0.295,-0.54ZM0.259,0C0.284,0 0.295,-0.011 0.295,-0.036L0.295,-0.232L0.435,-0.232C0.463,-0.232 0.473,-0.219 0.473,-0.189L0.473,-0.036C0.473,-0.011 0.484,0 0.509,0L0.664,0C0.689,0 0.7,-0.011 0.7,-0.036L0.7,-0.248C0.7,-0.332 0.652,-0.385 0.579,-0.393C0.621,-0.411 0.635,-0.451 0.635,-0.507L0.635,-0.553C0.635,-0.652 0.588,-0.72 0.438,-0.72L0.105,-0.72C0.08,-0.72 0.069,-0.709 0.069,-0.684L0.069,-0.036C0.069,-0.011 0.08,0 0.105,0L0.259,0Z" style="fill:rgb(250,225,0);fill-rule:nonzero;"/>
        </g>
        <g transform="matrix(83.3333,0,0,83.3333,1241.62,603.32)">
            <path d="M0.26,0C0.285,0 0.296,-0.011 0.296,-0.036L0.296,-0.233L0.47,-0.233C0.495,-0.233 0.506,-0.244 0.506,-0.269L0.506,-0.389C0.506,-0.414 0.495,-0.425 0.47,-0.425L0.296,-0.425L0.296,-0.529L0.551,-0.529C0.576,-0.529 0.587,-0.54 0.587,-0.565L0.587,-0.684C0.587,-0.709 0.576,-0.72 0.551,-0.72L0.105,-0.72C0.08,-0.72 0.069,-0.709 0.069,-0.684L0.069,-0.036C0.069,-0.011 0.08,0 0.105,0L0.26,0Z" style="fill:rgb(250,225,0);fill-rule:nonzero;"/>
        </g>
        <g transform="matrix(83.3333,0,0,83.3333,1292.71,603.32)">
            <path d="M0.679,-0.189L0.679,-0.53C0.679,-0.652 0.619,-0.735 0.369,-0.735C0.119,-0.735 0.058,-0.652 0.058,-0.53L0.058,-0.189C0.058,-0.067 0.119,0.015 0.369,0.015C0.619,0.015 0.679,-0.067 0.679,-0.189ZM0.285,-0.225L0.285,-0.494C0.285,-0.52 0.297,-0.54 0.369,-0.54C0.442,-0.54 0.453,-0.52 0.453,-0.494L0.453,-0.225C0.453,-0.198 0.442,-0.178 0.369,-0.178C0.297,-0.178 0.285,-0.198 0.285,-0.225Z" style="fill:rgb(250,225,0);fill-rule:nonzero;"/>
        </g>
        <g transform="matrix(83.3333,0,0,83.3333,1354.12,603.32)">
            <path d="M0.295,-0.54L0.37,-0.54C0.405,-0.54 0.414,-0.52 0.414,-0.493L0.414,-0.459C0.414,-0.432 0.405,-0.412 0.37,-0.412L0.295,-0.412L0.295,-0.54ZM0.259,0C0.284,0 0.295,-0.011 0.295,-0.036L0.295,-0.232L0.435,-0.232C0.463,-0.232 0.473,-0.219 0.473,-0.189L0.473,-0.036C0.473,-0.011 0.484,0 0.509,0L0.664,0C0.689,0 0.7,-0.011 0.7,-0.036L0.7,-0.248C0.7,-0.332 0.652,-0.385 0.579,-0.393C0.621,-0.411 0.635,-0.451 0.635,-0.507L0.635,-0.553C0.635,-0.652 0.588,-0.72 0.438,-0.72L0.105,-0.72C0.08,-0.72 0.069,-0.709 0.069,-0.684L0.069,-0.036C0.069,-0.011 0.08,0 0.105,0L0.259,0Z" style="fill:rgb(250,225,0);fill-rule:nonzero;"/>
        </g>
        <g transform="matrix(83.3333,0,0,83.3333,1416.04,603.32)">
            <path d="M0.254,0C0.279,0 0.29,-0.011 0.29,-0.036L0.29,-0.388L0.349,-0.279C0.361,-0.256 0.376,-0.247 0.402,-0.247L0.442,-0.247C0.468,-0.247 0.483,-0.256 0.495,-0.279L0.554,-0.388L0.554,-0.036C0.554,-0.011 0.564,0 0.59,0L0.744,0C0.769,0 0.78,-0.011 0.78,-0.036L0.78,-0.684C0.78,-0.709 0.769,-0.72 0.744,-0.72L0.582,-0.72C0.561,-0.72 0.548,-0.712 0.536,-0.69L0.447,-0.527C0.44,-0.515 0.437,-0.51 0.429,-0.51L0.42,-0.51C0.412,-0.51 0.409,-0.515 0.402,-0.527L0.312,-0.69C0.3,-0.712 0.287,-0.72 0.266,-0.72L0.105,-0.72C0.08,-0.72 0.069,-0.709 0.069,-0.684L0.069,-0.036C0.069,-0.011 0.08,0 0.105,0L0.254,0Z" style="fill:rgb(250,225,0);fill-rule:nonzero;"/>
        </g>
        <g transform="matrix(83.3333,0,0,83.3333,1486.79,603.32)">
            <path d="M0.33,-0.51C0.335,-0.522 0.341,-0.527 0.349,-0.527L0.374,-0.527C0.382,-0.527 0.388,-0.522 0.393,-0.51L0.44,-0.358L0.283,-0.358L0.33,-0.51ZM0.273,-0.036L0.273,-0.176L0.45,-0.176L0.45,-0.036C0.45,-0.011 0.462,0 0.489,0L0.64,0C0.665,0 0.676,-0.011 0.676,-0.036L0.676,-0.3C0.676,-0.34 0.664,-0.39 0.637,-0.46L0.55,-0.687C0.542,-0.71 0.526,-0.72 0.5,-0.72L0.231,-0.72C0.204,-0.72 0.188,-0.71 0.18,-0.687L0.093,-0.46C0.066,-0.39 0.054,-0.34 0.054,-0.3L0.054,-0.036C0.054,-0.011 0.065,0 0.09,0L0.237,0C0.262,0 0.273,-0.011 0.273,-0.036Z" style="fill:rgb(250,225,0);fill-rule:nonzero;"/>
        </g>
        <g transform="matrix(83.3333,0,0,83.3333,1544.29,603.32)">
            <path d="M0.409,0C0.434,0 0.445,-0.011 0.445,-0.036L0.445,-0.527L0.592,-0.527C0.617,-0.527 0.628,-0.538 0.628,-0.563L0.628,-0.684C0.628,-0.709 0.617,-0.72 0.592,-0.72L0.064,-0.72C0.039,-0.72 0.028,-0.709 0.028,-0.684L0.028,-0.563C0.028,-0.538 0.039,-0.527 0.064,-0.527L0.211,-0.527L0.211,-0.036C0.211,-0.011 0.222,0 0.247,0L0.409,0Z" style="fill:rgb(250,225,0);fill-rule:nonzero;"/>
        </g>
        <g transform="matrix(83.3333,0,0,83.3333,1598.96,603.32)">
            <path d="M0.089,0L0.515,0C0.54,0 0.551,-0.011 0.551,-0.036L0.551,-0.155C0.551,-0.18 0.54,-0.191 0.515,-0.191L0.418,-0.191L0.418,-0.527L0.515,-0.527C0.54,-0.527 0.551,-0.538 0.551,-0.563L0.551,-0.684C0.551,-0.709 0.54,-0.72 0.515,-0.72L0.089,-0.72C0.064,-0.72 0.053,-0.709 0.053,-0.684L0.053,-0.563C0.053,-0.538 0.064,-0.527 0.089,-0.527L0.188,-0.527L0.188,-0.191L0.089,-0.191C0.064,-0.191 0.053,-0.18 0.053,-0.155L0.053,-0.036C0.053,-0.011 0.064,0 0.089,0Z" style="fill:rgb(250,225,0);fill-rule:nonzero;"/>
        </g>
        <g transform="matrix(83.3333,0,0,83.3333,1649.37,603.32)">
            <path d="M0.495,0C0.521,0 0.536,-0.008 0.546,-0.033L0.644,-0.278C0.668,-0.338 0.676,-0.357 0.676,-0.42L0.676,-0.684C0.676,-0.709 0.666,-0.72 0.64,-0.72L0.483,-0.72C0.458,-0.72 0.447,-0.709 0.447,-0.684L0.447,-0.409C0.447,-0.395 0.444,-0.383 0.439,-0.368L0.392,-0.227C0.388,-0.214 0.384,-0.21 0.373,-0.21L0.362,-0.21C0.351,-0.21 0.347,-0.214 0.343,-0.227L0.296,-0.367C0.291,-0.382 0.288,-0.394 0.288,-0.408L0.288,-0.684C0.288,-0.709 0.274,-0.72 0.249,-0.72L0.09,-0.72C0.065,-0.72 0.054,-0.709 0.054,-0.684L0.054,-0.42C0.054,-0.357 0.062,-0.338 0.086,-0.278L0.184,-0.033C0.194,-0.008 0.209,0 0.235,0L0.495,0Z" style="fill:rgb(250,225,0);fill-rule:nonzero;"/>
        </g>
        <g transform="matrix(83.3333,0,0,83.3333,1710.21,603.32)">
            <path d="M0.569,0C0.594,0 0.605,-0.011 0.605,-0.036L0.605,-0.153C0.605,-0.178 0.594,-0.189 0.569,-0.189L0.293,-0.189L0.293,-0.275L0.488,-0.275C0.513,-0.275 0.524,-0.286 0.524,-0.311L0.524,-0.418C0.524,-0.443 0.513,-0.454 0.488,-0.454L0.293,-0.454L0.293,-0.531L0.569,-0.531C0.594,-0.531 0.605,-0.542 0.605,-0.567L0.605,-0.684C0.605,-0.709 0.594,-0.72 0.569,-0.72L0.105,-0.72C0.08,-0.72 0.069,-0.709 0.069,-0.684L0.069,-0.036C0.069,-0.011 0.08,0 0.105,0L0.569,0Z" style="fill:rgb(250,225,0);fill-rule:nonzero;"/>
        </g>
    </g>
    <g id="inline" transform="matrix(1.23181,0,0,1.29012,-421.694,-698.269)">
        <g transform="matrix(83.3333,0,0,83.3333,348.206,603.32)">
            <path d="M0.515,-0.1L0.188,-0.1L0.188,-0.359L0.434,-0.359L0.434,-0.369L0.188,-0.369L0.188,-0.62L0.515,-0.62L0.515,-0.63L0.178,-0.63L0.178,-0.09L0.515,-0.09L0.515,-0.1Z" style="fill:rgb(44,42,41);fill-rule:nonzero;"/>
        </g>
        <g transform="matrix(83.3333,0,0,83.3333,402.706,603.32)">
            <path d="M0.167,-0.63L0.167,-0.414C0.167,-0.377 0.171,-0.346 0.183,-0.317L0.249,-0.157C0.265,-0.118 0.28,-0.09 0.322,-0.09L0.41,-0.09C0.452,-0.09 0.467,-0.118 0.483,-0.157L0.549,-0.317C0.561,-0.346 0.565,-0.377 0.565,-0.414L0.565,-0.63L0.555,-0.63L0.555,-0.414C0.555,-0.379 0.55,-0.348 0.539,-0.321L0.473,-0.161C0.459,-0.126 0.448,-0.1 0.41,-0.1L0.322,-0.1C0.284,-0.1 0.273,-0.126 0.259,-0.161L0.193,-0.321C0.182,-0.348 0.177,-0.379 0.177,-0.414L0.177,-0.63L0.167,-0.63Z" style="fill:rgb(44,42,41);fill-rule:nonzero;"/>
        </g>
        <g transform="matrix(83.3333,0,0,83.3333,463.539,603.32)">
            <path d="M0.515,-0.1L0.188,-0.1L0.188,-0.359L0.434,-0.359L0.434,-0.369L0.188,-0.369L0.188,-0.62L0.515,-0.62L0.515,-0.63L0.178,-0.63L0.178,-0.09L0.515,-0.09L0.515,-0.1Z" style="fill:rgb(44,42,41);fill-rule:nonzero;"/>
        </g>
        <g transform="matrix(83.3333,0,0,83.3333,518.039,603.32)">
            <path d="M0.405,-0.62C0.476,-0.62 0.509,-0.578 0.509,-0.516L0.509,-0.446C0.509,-0.372 0.488,-0.331 0.405,-0.331L0.187,-0.331L0.187,-0.62L0.405,-0.62ZM0.187,-0.09L0.187,-0.322L0.47,-0.322C0.546,-0.322 0.581,-0.29 0.581,-0.224L0.581,-0.09L0.591,-0.09L0.591,-0.224C0.591,-0.294 0.552,-0.331 0.47,-0.331L0.459,-0.331C0.507,-0.346 0.519,-0.386 0.519,-0.447L0.519,-0.516C0.519,-0.582 0.483,-0.63 0.405,-0.63L0.177,-0.63L0.177,-0.09L0.187,-0.09Z" style="fill:rgb(44,42,41);fill-rule:nonzero;"/>
        </g>
        <g transform="matrix(83.3333,0,0,83.3333,577.456,603.32)">
            <path d="M0.365,-0.261C0.396,-0.261 0.417,-0.274 0.439,-0.303L0.539,-0.438C0.555,-0.459 0.554,-0.486 0.554,-0.515L0.554,-0.63L0.544,-0.63L0.544,-0.515C0.544,-0.487 0.544,-0.46 0.53,-0.442L0.43,-0.307C0.41,-0.281 0.39,-0.271 0.365,-0.271L0.338,-0.271C0.315,-0.271 0.292,-0.28 0.274,-0.307L0.177,-0.442C0.164,-0.462 0.163,-0.487 0.163,-0.515L0.163,-0.63L0.153,-0.63L0.153,-0.515C0.153,-0.486 0.153,-0.458 0.168,-0.438L0.265,-0.303C0.287,-0.273 0.309,-0.261 0.338,-0.261L0.348,-0.261L0.348,-0.09L0.358,-0.09L0.358,-0.261L0.365,-0.261Z" style="fill:rgb(44,42,41);fill-rule:nonzero;"/>
        </g>
        <g transform="matrix(83.3333,0,0,83.3333,636.206,603.32)">
            <path d="M0.323,-0.09L0.333,-0.09L0.333,-0.62L0.538,-0.62L0.538,-0.63L0.118,-0.63L0.118,-0.62L0.323,-0.62L0.323,-0.09Z" style="fill:rgb(44,42,41);fill-rule:nonzero;"/>
        </g>
        <g transform="matrix(83.3333,0,0,83.3333,690.872,603.32)">
            <path d="M0.177,-0.09L0.187,-0.09L0.187,-0.355L0.571,-0.355L0.571,-0.09L0.581,-0.09L0.581,-0.63L0.571,-0.63L0.571,-0.365L0.187,-0.365L0.187,-0.63L0.177,-0.63L0.177,-0.09Z" style="fill:rgb(44,42,41);fill-rule:nonzero;"/>
        </g>
        <g transform="matrix(83.3333,0,0,83.3333,754.122,603.32)">
            <path d="M0.461,-0.09L0.461,-0.1L0.308,-0.1L0.308,-0.62L0.461,-0.62L0.461,-0.63L0.143,-0.63L0.143,-0.62L0.298,-0.62L0.298,-0.1L0.143,-0.1L0.143,-0.09L0.461,-0.09Z" style="fill:rgb(44,42,41);fill-rule:nonzero;"/>
        </g>
        <g transform="matrix(83.3333,0,0,83.3333,804.539,603.32)">
            <path d="M0.201,-0.622C0.194,-0.629 0.192,-0.631 0.186,-0.631C0.18,-0.631 0.174,-0.627 0.174,-0.619L0.174,-0.09L0.184,-0.09L0.184,-0.617C0.184,-0.618 0.184,-0.62 0.186,-0.62C0.188,-0.62 0.189,-0.619 0.191,-0.617L0.569,-0.193L0.569,-0.09L0.579,-0.09L0.579,-0.63L0.569,-0.63L0.569,-0.208L0.201,-0.622Z" style="fill:rgb(44,42,41);fill-rule:nonzero;"/>
        </g>
        <g transform="matrix(83.3333,0,0,83.3333,867.289,603.32)">
            <path d="M0.347,-0.09L0.546,-0.09L0.546,-0.291L0.536,-0.291L0.536,-0.1L0.347,-0.1C0.212,-0.1 0.177,-0.132 0.177,-0.219L0.177,-0.499C0.177,-0.588 0.209,-0.62 0.327,-0.62L0.5,-0.62L0.5,-0.63L0.327,-0.63C0.199,-0.63 0.167,-0.594 0.167,-0.499L0.167,-0.219C0.167,-0.126 0.2,-0.09 0.347,-0.09Z" style="fill:rgb(44,42,41);fill-rule:nonzero;"/>
        </g>
        <g transform="matrix(83.3333,0,0,83.3333,945.039,603.32)">
            <path d="M0.461,-0.09L0.461,-0.1L0.308,-0.1L0.308,-0.62L0.461,-0.62L0.461,-0.63L0.143,-0.63L0.143,-0.62L0.298,-0.62L0.298,-0.1L0.143,-0.1L0.143,-0.09L0.461,-0.09Z" style="fill:rgb(44,42,41);fill-rule:nonzero;"/>
        </g>
        <g transform="matrix(83.3333,0,0,83.3333,995.456,603.32)">
            <path d="M0.484,-0.63L0.262,-0.63C0.2,-0.63 0.16,-0.592 0.16,-0.539L0.16,-0.457C0.16,-0.402 0.184,-0.387 0.219,-0.38L0.43,-0.337C0.467,-0.329 0.491,-0.312 0.491,-0.249L0.491,-0.191C0.491,-0.138 0.452,-0.1 0.39,-0.1L0.141,-0.1L0.141,-0.09L0.39,-0.09C0.458,-0.09 0.501,-0.132 0.501,-0.191L0.501,-0.249C0.501,-0.319 0.472,-0.339 0.432,-0.347L0.221,-0.39C0.19,-0.396 0.17,-0.41 0.17,-0.457L0.17,-0.539C0.17,-0.586 0.206,-0.62 0.262,-0.62L0.484,-0.62L0.484,-0.63Z" style="fill:rgb(44,42,41);fill-rule:nonzero;"/>
        </g>
        <g transform="matrix(83.3333,0,0,83.3333,1068.37,603.32)">
            <path d="M0.397,-0.287C0.523,-0.287 0.547,-0.342 0.547,-0.42L0.547,-0.494C0.547,-0.572 0.523,-0.63 0.397,-0.63L0.181,-0.63L0.181,-0.09L0.191,-0.09L0.191,-0.287L0.397,-0.287ZM0.191,-0.297L0.191,-0.62L0.397,-0.62C0.515,-0.62 0.537,-0.566 0.537,-0.494L0.537,-0.42C0.537,-0.348 0.515,-0.297 0.397,-0.297L0.191,-0.297Z" style="fill:rgb(44,42,41);fill-rule:nonzero;"/>
        </g>
        <g transform="matrix(83.3333,0,0,83.3333,1125.21,603.32)">
            <path d="M0.515,-0.1L0.188,-0.1L0.188,-0.359L0.434,-0.359L0.434,-0.369L0.188,-0.369L0.188,-0.62L0.515,-0.62L0.515,-0.63L0.178,-0.63L0.178,-0.09L0.515,-0.09L0.515,-0.1Z" style="fill:rgb(44,42,41);fill-rule:nonzero;"/>
        </g>
        <g transform="matrix(83.3333,0,0,83.3333,1179.71,603.32)">
            <path d="M0.405,-0.62C0.476,-0.62 0.509,-0.578 0.509,-0.516L0.509,-0.446C0.509,-0.372 0.488,-0.331 0.405,-0.331L0.187,-0.331L0.187,-0.62L0.405,-0.62ZM0.187,-0.09L0.187,-0.322L0.47,-0.322C0.546,-0.322 0.581,-0.29 0.581,-0.224L0.581,-0.09L0.591,-0.09L0.591,-0.224C0.591,-0.294 0.552,-0.331 0.47,-0.331L0.459,-0.331C0.507,-0.346 0.519,-0.386 0.519,-0.447L0.519,-0.516C0.519,-0.582 0.483,-0.63 0.405,-0.63L0.177,-0.63L0.177,-0.09L0.187,-0.09Z" style="fill:rgb(44,42,41);fill-rule:nonzero;"/>
        </g>
        <g transform="matrix(83.3333,0,0,83.3333,1241.62,603.32)">
            <path d="M0.178,-0.09L0.188,-0.09L0.188,-0.324L0.416,-0.324L0.416,-0.334L0.188,-0.334L0.188,-0.62L0.497,-0.62L0.497,-0.63L0.178,-0.63L0.178,-0.09Z" style="fill:rgb(44,42,41);fill-rule:nonzero;"/>
        </g>
        <g transform="matrix(83.3333,0,0,83.3333,1292.71,603.32)">
            <path d="M0.57,-0.212L0.57,-0.507C0.57,-0.588 0.524,-0.642 0.367,-0.642C0.21,-0.642 0.166,-0.588 0.166,-0.507L0.166,-0.212C0.166,-0.131 0.21,-0.077 0.367,-0.077C0.524,-0.077 0.57,-0.131 0.57,-0.212ZM0.176,-0.212L0.176,-0.507C0.176,-0.582 0.218,-0.632 0.367,-0.632C0.516,-0.632 0.56,-0.582 0.56,-0.507L0.56,-0.212C0.56,-0.137 0.516,-0.087 0.367,-0.087C0.218,-0.087 0.176,-0.137 0.176,-0.212Z" style="fill:rgb(44,42,41);fill-rule:nonzero;"/>
        </g>
        <g transform="matrix(83.3333,0,0,83.3333,1354.12,603.32)">
            <path d="M0.405,-0.62C0.476,-0.62 0.509,-0.578 0.509,-0.516L0.509,-0.446C0.509,-0.372 0.488,-0.331 0.405,-0.331L0.187,-0.331L0.187,-0.62L0.405,-0.62ZM0.187,-0.09L0.187,-0.322L0.47,-0.322C0.546,-0.322 0.581,-0.29 0.581,-0.224L0.581,-0.09L0.591,-0.09L0.591,-0.224C0.591,-0.294 0.552,-0.331 0.47,-0.331L0.459,-0.331C0.507,-0.346 0.519,-0.386 0.519,-0.447L0.519,-0.516C0.519,-0.582 0.483,-0.63 0.405,-0.63L0.177,-0.63L0.177,-0.09L0.187,-0.09Z" style="fill:rgb(44,42,41);fill-rule:nonzero;"/>
        </g>
        <g transform="matrix(83.3333,0,0,83.3333,1416.04,603.32)">
            <path d="M0.421,-0.385C0.397,-0.385 0.393,-0.392 0.37,-0.427L0.248,-0.613C0.24,-0.626 0.229,-0.63 0.218,-0.63L0.201,-0.63C0.183,-0.63 0.175,-0.621 0.175,-0.599L0.175,-0.09L0.185,-0.09L0.185,-0.599C0.185,-0.61 0.187,-0.62 0.201,-0.62L0.216,-0.62C0.225,-0.62 0.232,-0.619 0.24,-0.606L0.362,-0.422C0.386,-0.386 0.392,-0.375 0.421,-0.375C0.45,-0.375 0.456,-0.386 0.48,-0.422L0.602,-0.606C0.61,-0.619 0.616,-0.62 0.625,-0.62L0.64,-0.62C0.654,-0.62 0.657,-0.61 0.657,-0.599L0.657,-0.09L0.667,-0.09L0.667,-0.599C0.667,-0.621 0.659,-0.63 0.64,-0.63L0.623,-0.63C0.612,-0.63 0.602,-0.626 0.594,-0.613L0.472,-0.427C0.449,-0.392 0.445,-0.385 0.421,-0.385Z" style="fill:rgb(44,42,41);fill-rule:nonzero;"/>
        </g>
        <g transform="matrix(83.3333,0,0,83.3333,1486.79,603.32)">
            <path d="M0.17,-0.303C0.17,-0.339 0.176,-0.369 0.186,-0.396L0.25,-0.56C0.263,-0.594 0.274,-0.62 0.314,-0.62L0.412,-0.62C0.449,-0.62 0.46,-0.594 0.475,-0.559L0.544,-0.396C0.554,-0.369 0.56,-0.339 0.56,-0.303L0.56,-0.272L0.17,-0.272L0.17,-0.303ZM0.56,-0.09L0.57,-0.09L0.57,-0.303C0.57,-0.34 0.564,-0.371 0.553,-0.4L0.484,-0.563C0.468,-0.602 0.456,-0.63 0.412,-0.63L0.314,-0.63C0.268,-0.63 0.256,-0.601 0.241,-0.564L0.177,-0.4C0.166,-0.371 0.16,-0.34 0.16,-0.303L0.16,-0.09L0.17,-0.09L0.17,-0.262L0.56,-0.262L0.56,-0.09Z" style="fill:rgb(44,42,41);fill-rule:nonzero;"/>
        </g>
        <g transform="matrix(83.3333,0,0,83.3333,1544.29,603.32)">
            <path d="M0.323,-0.09L0.333,-0.09L0.333,-0.62L0.538,-0.62L0.538,-0.63L0.118,-0.63L0.118,-0.62L0.323,-0.62L0.323,-0.09Z" style="fill:rgb(44,42,41);fill-rule:nonzero;"/>
        </g>
        <g transform="matrix(83.3333,0,0,83.3333,1598.96,603.32)">
            <path d="M0.461,-0.09L0.461,-0.1L0.308,-0.1L0.308,-0.62L0.461,-0.62L0.461,-0.63L0.143,-0.63L0.143,-0.62L0.298,-0.62L0.298,-0.1L0.143,-0.1L0.143,-0.09L0.461,-0.09Z" style="fill:rgb(44,42,41);fill-rule:nonzero;"/>
        </g>
        <g transform="matrix(83.3333,0,0,83.3333,1649.37,603.32)">
            <path d="M0.167,-0.63L0.167,-0.414C0.167,-0.377 0.171,-0.346 0.183,-0.317L0.249,-0.157C0.265,-0.118 0.28,-0.09 0.322,-0.09L0.41,-0.09C0.452,-0.09 0.467,-0.118 0.483,-0.157L0.549,-0.317C0.561,-0.346 0.565,-0.377 0.565,-0.414L0.565,-0.63L0.555,-0.63L0.555,-0.414C0.555,-0.379 0.55,-0.348 0.539,-0.321L0.473,-0.161C0.459,-0.126 0.448,-0.1 0.41,-0.1L0.322,-0.1C0.284,-0.1 0.273,-0.126 0.259,-0.161L0.193,-0.321C0.182,-0.348 0.177,-0.379 0.177,-0.414L0.177,-0.63L0.167,-0.63Z" style="fill:rgb(44,42,41);fill-rule:nonzero;"/>
        </g>
        <g transform="matrix(83.3333,0,0,83.3333,1710.21,603.32)">
            <path d="M0.515,-0.1L0.188,-0.1L0.188,-0.359L0.434,-0.359L0.434,-0.369L0.188,-0.369L0.188,-0.62L0.515,-0.62L0.515,-0.63L0.178,-0.63L0.178,-0.09L0.515,-0.09L0.515,-0.1Z" style="fill:rgb(44,42,41);fill-rule:nonzero;"/>
        </g>
    </g>
</svg>
