<?xml version="1.0" encoding="UTF-8" standalone="no"?>
<!DOCTYPE svg PUBLIC "-//W3C//DTD SVG 1.1//EN" "http://www.w3.org/Graphics/SVG/1.1/DTD/svg11.dtd">
<svg width="100%" height="100%" viewBox="0 0 693 185" version="1.1" xmlns="http://www.w3.org/2000/svg" xmlns:xlink="http://www.w3.org/1999/xlink" xml:space="preserve" xmlns:serif="http://www.serif.com/" style="fill:#3333c5;fill-rule:evenodd;clip-rule:evenodd;stroke-linejoin:round;stroke-miterlimit:2;">
    <g transform="matrix(1,0,0,1,-527.984,-304.381)">
        <g transform="matrix(1,1.2326e-32,4.979e-17,1,290.667,117.587)">
            <g transform="matrix(300,0,0,300,217.798,367.675)">
                <path d="M0.309,0.013C0.426,0.013 0.535,-0.045 0.535,-0.159C0.535,-0.263 0.448,-0.318 0.344,-0.337L0.272,-0.35C0.181,-0.366 0.135,-0.401 0.135,-0.46C0.135,-0.515 0.217,-0.553 0.297,-0.553C0.397,-0.553 0.438,-0.532 0.465,-0.496C0.444,-0.503 0.407,-0.486 0.407,-0.45C0.407,-0.418 0.43,-0.397 0.465,-0.397C0.495,-0.397 0.52,-0.426 0.52,-0.465C0.52,-0.54 0.439,-0.603 0.297,-0.603C0.179,-0.603 0.085,-0.542 0.085,-0.46C0.085,-0.386 0.117,-0.328 0.262,-0.301L0.338,-0.287C0.427,-0.271 0.486,-0.231 0.485,-0.159C0.484,-0.073 0.392,-0.036 0.309,-0.037C0.234,-0.038 0.169,-0.051 0.121,-0.105C0.142,-0.098 0.178,-0.115 0.178,-0.151C0.178,-0.183 0.155,-0.203 0.12,-0.203C0.09,-0.203 0.065,-0.175 0.065,-0.136C0.065,-0.051 0.177,0.013 0.309,0.013Z" style="fill-rule:nonzero;"/>
            </g>
            <g transform="matrix(300,0,0,300,397.798,367.675)">
                <path d="M0.085,-0.298L0.036,-0.303L0.06,-0.59L0.547,-0.59L0.571,-0.303L0.522,-0.298L0.503,-0.54L0.328,-0.54L0.328,-0.05L0.444,-0.05L0.444,0L0.163,0L0.163,-0.05L0.278,-0.05L0.278,-0.54L0.104,-0.54L0.085,-0.298Z" style="fill-rule:nonzero;"/>
            </g>
            <g transform="matrix(300,0,0,300,577.798,367.675)">
                <path d="M0.578,-0.05L0.525,-0.05L0.342,-0.59C0.278,-0.59 0.24,-0.59 0.177,-0.603L0.166,-0.555C0.197,-0.547 0.228,-0.543 0.258,-0.541L0.074,-0.05L0.021,-0.05L0.021,0L0.209,0L0.209,-0.05L0.126,-0.05L0.187,-0.219L0.416,-0.219L0.473,-0.05L0.39,-0.05L0.39,0L0.578,0L0.578,-0.05ZM0.399,-0.269L0.205,-0.269L0.303,-0.54L0.306,-0.54L0.399,-0.269Z" style="fill-rule:nonzero;"/>
            </g>
            <g transform="matrix(300,0,0,300,757.798,367.675)">
                <path d="M0.105,-0.54L0.027,-0.54L0.027,-0.59L0.239,-0.59L0.239,-0.54L0.159,-0.54L0.3,-0.278L0.44,-0.54L0.36,-0.54L0.36,-0.59L0.572,-0.59L0.572,-0.54L0.494,-0.54L0.324,-0.23L0.324,-0.05L0.439,-0.05L0.439,0L0.159,0L0.159,-0.05L0.274,-0.05L0.274,-0.23L0.105,-0.54Z" style="fill-rule:nonzero;"/>
            </g>
        </g>
    </g>
</svg>
